<svg width="171" height="38" viewBox="0 0 171 38" fill="none" xmlns="http://www.w3.org/2000/svg">
<g clip-path="url(#clip0_1177_2317)" filter="url(#filter0_d_1177_2317)">
<path d="M18.7099 0C20.088 0 21.36 0.107063 22.526 0.424013C23.6921 0.63602 24.6461 1.06003 25.4941 1.59005C26.3422 2.12007 26.9782 2.86209 27.4022 3.81718C27.8262 4.77015 28.0382 5.93725 28.0382 7.20929C28.0382 8.69227 27.7202 9.96537 26.9782 10.9194C26.3422 11.8724 25.2821 12.7204 24.0101 13.3564C25.8121 13.8864 27.1902 14.8394 28.0382 16.1125C28.8862 17.3845 29.4163 18.9746 29.4163 20.7767C29.4163 22.2596 29.0982 23.5327 28.5682 24.5928C28.0382 25.6528 27.1902 26.6068 26.2362 27.2429C25.2821 27.8799 24.1161 28.41 22.8441 28.7269C21.572 29.0439 20.3 29.2569 19.0279 29.2569H4.82349V0H18.7099ZM17.8619 11.8724C19.0279 11.8724 19.982 11.5544 20.724 11.0243C21.466 10.4943 21.784 9.5403 21.784 8.37426C21.784 7.73824 21.678 7.10222 21.466 6.67821C21.254 6.2542 20.936 5.93619 20.512 5.61818C20.088 5.40617 19.664 5.19416 19.1339 5.08816C18.6039 4.98216 18.0739 4.98216 17.4379 4.98216H11.2897V11.8724H17.8619V11.8724ZM18.1799 24.3808C18.8159 24.3808 19.4519 24.2748 19.982 24.1698C20.512 24.0628 21.042 23.8507 21.466 23.5327C21.89 23.2147 22.208 22.8967 22.526 22.3667C22.738 21.8367 22.9501 21.1996 22.9501 20.4586C22.9501 18.9746 22.526 17.9146 21.678 17.1715C20.83 16.5355 19.664 16.2185 18.2859 16.2185H11.2897V24.3808H18.1799ZM38.6385 24.2748C39.4866 25.1228 40.7586 25.5468 42.4547 25.5468C43.6207 25.5468 44.6807 25.2288 45.5288 24.6988C46.3768 24.0617 46.9068 23.4267 47.1188 22.7897H52.313C51.4649 25.3337 50.1929 27.1368 48.4969 28.3018C46.8008 29.3619 44.7867 29.9989 42.3487 29.9989C40.6526 29.9989 39.1686 29.6799 37.7905 29.1499C36.4125 28.6198 35.3524 27.8789 34.3984 26.8188C33.4444 25.8648 32.7024 24.6988 32.2783 23.3197C31.7483 21.9416 31.5363 20.4586 31.5363 18.7615C31.5363 17.1715 31.7483 15.6885 32.2783 14.3094C32.8084 12.9313 33.5504 11.7664 34.5044 10.7063C35.4584 9.75231 36.6245 8.90428 37.8965 8.37426C39.2746 7.84425 40.6526 7.52624 42.3487 7.52624C44.1507 7.52624 45.7408 7.84425 47.1188 8.58627C48.4969 9.32829 49.5569 10.1763 50.4049 11.4484C51.2529 12.6144 51.889 13.9914 52.313 15.4765C52.525 16.9605 52.631 18.4446 52.525 20.1406H37.1545C37.1545 21.8367 37.7905 23.4267 38.6385 24.2748V24.2748ZM45.3168 13.1444C44.5747 12.4024 43.4087 11.9784 42.0307 11.9784C41.0766 11.9784 40.3346 12.1893 39.6986 12.5084C39.0626 12.8264 38.6385 13.2494 38.2145 13.6744C37.7905 14.0995 37.5785 14.6285 37.4725 15.1585C37.3665 15.6885 37.2605 16.1114 37.2605 16.5365H46.8008C46.5888 14.9465 46.0588 13.8864 45.3168 13.1444ZM60.7932 0V11.0243H60.8992C61.6413 9.75231 62.5953 8.90428 63.7613 8.37426C64.9274 7.84425 65.9874 7.52624 67.1534 7.52624C68.7435 7.52624 70.0155 7.73824 70.9696 8.16226C71.9236 8.58627 72.7716 9.22229 73.3016 9.96431C73.8316 10.7063 74.2557 11.6604 74.4677 12.7204C74.6797 13.7804 74.7857 14.9475 74.7857 16.3245V29.3629H68.9555V17.3845C68.9555 15.5825 68.6375 14.3104 68.1075 13.4624C67.5775 12.6144 66.6234 12.1904 65.2454 12.1904C63.6553 12.1904 62.4893 12.7204 61.8533 13.5695C61.1112 14.5225 60.7932 16.1125 60.7932 18.2326V29.3629H54.9631V0H60.7932ZM79.0258 11.2364C79.6618 10.2823 80.4039 9.6463 81.3579 9.00922C82.3119 8.47921 83.3719 8.05625 84.538 7.84319C85.704 7.63118 86.869 7.52518 88.0361 7.52518C89.0961 7.52518 90.1562 7.63118 91.3233 7.73718C92.3833 7.84319 93.4433 8.16014 94.2903 8.58521C95.2443 9.00816 95.8803 9.64524 96.5174 10.3873C97.0464 11.1303 97.3644 12.1904 97.3644 13.4624V24.5928C97.3644 25.5468 97.4704 26.5008 97.5764 27.3499C97.6835 28.1979 97.9993 28.94 98.3184 29.3629H92.3822C92.1692 29.1509 92.0632 28.7269 91.9582 28.41C91.8522 28.0909 91.8522 27.6679 91.8522 27.3499C90.8982 28.3029 89.8381 28.94 88.5661 29.3629C87.2941 29.7869 86.022 29.8929 84.75 29.8929C83.69 29.8929 82.8419 29.7869 81.8879 29.47C81.0399 29.258 80.2979 28.8329 79.5558 28.3029C78.9198 27.7729 78.3898 27.1369 77.9658 26.2899C77.6478 25.4408 77.4358 24.5928 77.4358 23.4267C77.4358 22.2596 77.6478 21.1996 78.0718 20.4586C78.4958 19.7166 79.0258 19.0806 79.6618 18.5506C80.2978 18.1276 81.1459 17.7026 81.9939 17.4905C82.8419 17.2796 83.69 17.0676 84.644 16.9605L87.1881 16.6425C88.0361 16.5365 88.7781 16.4305 89.4141 16.3245C90.0502 16.1125 90.5802 15.9005 91.0042 15.5825C91.4282 15.2645 91.5342 14.8405 91.5342 14.2044C91.5342 13.5684 91.4282 13.0384 91.2162 12.7204C91.0042 12.4024 90.6862 12.0844 90.3682 11.8724C90.0491 11.6604 89.6261 11.5544 89.2021 11.4494C88.7781 11.3424 88.2481 11.3424 87.7181 11.3424C86.552 11.3424 85.704 11.5544 85.068 12.0844C84.432 12.6144 84.008 13.4624 83.902 14.5225H78.0718C78.0718 13.2504 78.4958 12.0844 79.0258 11.2364V11.2364ZM90.5791 19.5046C90.2622 19.6106 89.8382 19.7166 89.4131 19.8226C88.9891 19.9297 88.565 19.9297 88.035 20.0346C87.6121 20.1406 87.0821 20.1406 86.657 20.2466L85.385 20.5646C84.9609 20.6706 84.5369 20.8827 84.3249 21.0947C84.0069 21.3067 83.7949 21.6247 83.5829 21.9427C83.2659 22.3667 83.2659 22.7907 83.2659 23.3207C83.2659 23.8507 83.3719 24.2748 83.584 24.5928C83.796 24.9108 84.008 25.2299 84.326 25.4408C84.644 25.6528 85.068 25.7599 85.492 25.8648C85.916 25.9698 86.339 25.9708 86.869 25.9708C88.0361 25.9708 88.8831 25.7599 89.5191 25.4408C90.1562 25.0178 90.5791 24.5928 90.8982 24.0628C91.2162 23.5327 91.4282 23.0027 91.4282 22.4727C91.5342 21.9427 91.5342 21.5197 91.5342 21.2007V18.9746C91.2162 19.1866 90.8982 19.3997 90.5791 19.5046ZM106.164 8.05625V11.0243H106.27C107.011 9.75231 107.966 8.90428 109.131 8.37426C110.298 7.84425 111.57 7.52624 112.735 7.52624C114.325 7.52624 115.597 7.73824 116.551 8.16226C117.611 8.58627 118.354 9.22229 118.884 9.96431C119.414 10.7063 119.837 11.6604 120.155 12.7204C120.367 13.7804 120.474 14.9475 120.474 16.3245V29.3629H114.644V17.3845C114.644 15.5825 114.325 14.3104 113.795 13.4624C113.265 12.6144 112.311 12.0844 110.827 12.0844C109.237 12.0844 108.07 12.7204 107.329 13.6744C106.587 14.6285 106.269 16.2185 106.269 18.3386V29.4689H100.438V8.05625H106.164ZM133.51 11.8724C132.557 11.8724 131.814 12.0844 131.179 12.5095C130.543 12.9324 130.013 13.4624 129.589 14.2055C129.165 14.8415 128.953 15.5835 128.74 16.4316C128.529 17.2807 128.529 18.0216 128.529 18.8707C128.529 19.6117 128.635 20.4608 128.74 21.2017C128.953 22.0508 129.164 22.6858 129.589 23.3218C130.013 23.9589 130.437 24.4889 131.073 24.9118C131.709 25.3359 132.45 25.5489 133.404 25.5489C134.784 25.5489 135.844 25.1249 136.691 24.3818C137.434 23.6409 137.964 22.5808 138.07 21.2017H143.688C143.265 24.0638 142.205 26.1839 140.401 27.669C138.6 29.152 136.268 29.8951 133.404 29.8951C131.814 29.8951 130.33 29.577 129.058 29.047C127.679 28.517 126.619 27.775 125.666 26.821C124.713 25.8669 123.969 24.7009 123.439 23.4289C122.909 22.0508 122.698 20.6717 122.698 19.0817C122.698 17.3856 122.909 15.9016 123.439 14.5235C123.969 13.1455 124.606 11.8734 125.559 10.8134C126.513 9.75337 127.679 9.01134 128.952 8.37532C130.329 7.84531 131.813 7.5273 133.509 7.5273C134.782 7.5273 135.949 7.7393 137.114 8.05731C138.278 8.37532 139.34 8.90534 140.188 9.5403C141.142 10.1774 141.884 11.0243 142.414 12.0844C142.944 13.0384 143.263 14.3104 143.368 15.6885H137.644C137.435 13.1444 136.056 11.8724 133.51 11.8724V11.8724ZM35.9885 2.01406H47.8608V4.87615H35.9885V2.01406ZM152.486 24.2748C153.335 25.1228 154.712 25.5468 156.302 25.5468C157.469 25.5468 158.529 25.2288 159.376 24.6988C160.225 24.0617 160.755 23.4267 160.966 22.7897H166.056C165.207 25.3337 163.936 27.1368 162.238 28.3018C160.541 29.3619 158.528 29.9989 156.09 29.9989C154.394 29.9989 152.91 29.6799 151.531 29.1499C150.226 28.6634 149.062 27.8628 148.14 26.8188C147.186 25.8648 146.444 24.6988 146.02 23.3197C145.49 21.9416 145.278 20.4586 145.278 18.7615C145.278 17.1715 145.49 15.6885 146.02 14.3094C146.53 12.9799 147.286 11.7578 148.246 10.7063C149.2 9.75231 150.366 8.90428 151.638 8.37426C153.016 7.84425 154.5 7.52624 156.09 7.52624C157.891 7.52624 159.481 7.84425 160.754 8.58627C162.131 9.32829 163.191 10.1763 164.04 11.4484C164.888 12.6144 165.525 13.9914 165.949 15.4765C166.371 16.9595 166.479 18.5495 166.371 20.2466H151.001C151.001 21.8367 151.638 23.4267 152.486 24.2748V24.2748ZM159.27 13.1444C158.528 12.4024 157.361 11.9784 155.984 11.9784C155.03 11.9784 154.287 12.1893 153.651 12.5084C153.015 12.8264 152.485 13.2494 152.168 13.6744C151.851 14.0995 151.531 14.6285 151.426 15.1585C151.321 15.6885 151.215 16.1114 151.215 16.5365H160.755C160.436 14.9465 159.906 13.8864 159.27 13.1444Z" fill="white" fill-opacity="0.5"/>
</g>
<defs>
<filter id="filter0_d_1177_2317" x="0.798584" y="0" width="169.638" height="38" filterUnits="userSpaceOnUse" color-interpolation-filters="sRGB">
<feFlood flood-opacity="0" result="BackgroundImageFix"/>
<feColorMatrix in="SourceAlpha" type="matrix" values="0 0 0 0 0 0 0 0 0 0 0 0 0 0 0 0 0 0 127 0" result="hardAlpha"/>
<feOffset dy="4"/>
<feGaussianBlur stdDeviation="2"/>
<feComposite in2="hardAlpha" operator="out"/>
<feColorMatrix type="matrix" values="0 0 0 0 0 0 0 0 0 0 0 0 0 0 0 0 0 0 0.25 0"/>
<feBlend mode="normal" in2="BackgroundImageFix" result="effect1_dropShadow_1177_2317"/>
<feBlend mode="normal" in="SourceGraphic" in2="effect1_dropShadow_1177_2317" result="shape"/>
</filter>
<clipPath id="clip0_1177_2317">
<rect width="161.638" height="30" fill="white" transform="translate(4.79858)"/>
</clipPath>
</defs>
</svg>
