<svg width="131" height="38" viewBox="0 0 131 38" fill="none" xmlns="http://www.w3.org/2000/svg">
<g clip-path="url(#clip0_1177_2314)" filter="url(#filter0_d_1177_2314)">
<path d="M42.1168 11.9814C43.512 11.9814 44.643 10.85 44.643 9.45451C44.643 8.0588 43.512 6.92761 42.1168 6.92761C40.7216 6.92761 39.5906 8.0588 39.5906 9.45451C39.5906 10.85 40.7216 11.9814 42.1168 11.9814V11.9814ZM125.488 20.615C125.104 20.3447 124.807 20.3 124.561 20.8247C120.318 30.0143 113.168 25.4286 113.878 25.8321C115.464 25.1067 119.636 21.7614 119.005 17.1424C118.622 14.3195 116.199 13.0674 113.628 13.5157C109.139 14.2983 107.487 19.1402 108.328 23.4269C108.475 24.1631 108.738 24.7702 109.001 25.365C103.928 29.4902 101.913 21.6721 101.685 20.7378C101.676 20.6878 105.602 17.4155 106.693 9.61761C107.838 1.44499 105.231 -0.043108 102.565 0.00332053C97.6316 0.0892729 96.2985 10.3967 98.0894 18.9871C97.9394 19.0262 97.2413 19.4128 96.1197 19.4562C95.3125 16.9164 91.8637 14.6902 90.9611 15.5481C88.702 17.694 91.5089 21.8895 93.4839 22.2186C92.2975 29.5259 84.8777 27.7162 86.2589 18.5612C88.6751 14.0743 90.5128 7.40261 90.1849 3.37499C90.0687 1.94903 89.0144 0.0385586 86.6301 0.133321C82.0442 0.314749 81.5456 10.625 82.0832 17.9426C82.0566 17.7624 81.8013 18.8317 79.922 19.3633C79.4775 16.8959 75.5046 14.4193 74.5694 15.61C72.8187 17.8386 75.8528 21.8121 77.2899 22.0893C76.1035 29.3964 68.6839 27.5867 70.0651 18.4317C72.4813 13.945 74.3187 7.27332 73.9908 3.2457C73.8747 1.81951 72.8206 -0.0909652 70.4361 0.00355862C65.8501 0.185225 65.3516 10.4955 65.8892 17.8131C65.8623 17.63 65.6011 18.7345 63.6451 19.2574C63.5797 16.0562 59.5923 14.5883 58.6344 15.6097C56.9273 17.4305 59.0254 21.1662 60.9663 22.0893C59.7799 29.3964 52.3604 27.5867 53.7416 18.4317C56.1577 13.945 57.9954 7.27332 57.6673 3.2457C57.5513 1.81951 56.497 -0.0909652 54.1125 0.00355862C49.5268 0.185225 49.1578 11.0138 49.6954 18.3312C48.1849 24.8028 43.1194 32.8848 43.7775 16.695C43.8425 15.5593 43.9135 15.1281 43.3473 14.7028C42.923 14.3724 41.9582 14.5314 41.4308 14.5445C40.7899 14.5702 40.6292 14.9452 40.4875 15.5121C40.1575 16.9759 40.0982 18.395 40.0511 20.3312C40.0201 21.2369 39.9475 21.6595 39.5987 22.8945C39.2504 24.1293 37.263 26.3862 36.1749 26.0088C34.6654 25.4897 35.1606 21.2283 35.4435 18.3005C35.6792 15.9867 34.9244 14.9476 32.9906 14.5697C31.8585 14.3338 31.1706 14.37 29.9916 13.9983C28.8766 13.6469 28.6244 11.5378 26.2463 12.2407C24.9456 12.6255 25.7818 15.3814 25.4692 17.424C23.9323 27.4719 20.7344 27.7478 19.2508 22.8669C25.9325 6.50237 21.1837 0.0509396 18.4039 0.0509396C15.5087 0.0509396 12.1992 2.04523 13.6006 14.8052C12.9192 14.6064 12.7097 14.4993 11.9637 14.4993C7.74489 14.4993 4.87061 17.9097 4.87061 22.1169C4.87061 26.324 7.74513 29.7347 11.9639 29.7347C14.4544 29.7347 16.203 28.6021 17.5273 26.85C18.3913 28.0874 19.4435 29.7538 21.3675 29.6788C27.1025 29.4555 28.7704 17.6914 28.9673 17.0352C29.5804 17.1297 30.1604 17.3086 30.7266 17.4031C31.6699 17.5447 31.7385 17.9181 31.717 18.8669C31.467 26.8678 32.9435 29.6693 36.2925 29.6693C38.1585 29.6693 39.8216 27.8359 40.9673 26.525C41.823 28.2912 43.1866 29.6152 45.0158 29.669C49.4485 29.7793 51.1456 22.7143 50.9908 23.644C50.8694 24.3736 52.4289 29.6293 56.9923 29.6483C62.6449 29.6721 63.6956 23.4559 63.8208 22.4147C63.8366 22.2076 63.8435 22.229 63.8208 22.4147L63.8166 22.4778C65.6111 22.144 66.537 21.1819 66.537 21.1819C66.537 21.1819 67.978 29.745 73.3156 29.6486C78.8585 29.5481 79.9037 23.929 80.0408 22.8333C80.0589 22.5733 80.0697 22.6038 80.0408 22.8333C80.0401 22.844 80.0394 22.8547 80.0387 22.8655C82.1704 22.09 82.7311 21.3117 82.7311 21.3117C82.7311 21.3117 83.8763 29.7045 89.5097 29.7778C94.5297 29.8436 96.3901 24.7028 96.4011 22.5512C97.2478 22.5602 98.8139 22.0488 98.7773 22.0197C98.7773 22.0197 100.616 29.3578 105.751 29.7347C108.162 29.9117 109.971 28.3781 111.002 27.6786C113.424 29.6407 121.492 32.1469 126.587 23.51C127.306 22.2705 125.76 20.8062 125.488 20.615V20.615ZM11.7604 26.8857C9.29894 26.8857 7.72061 24.6097 7.72061 22.1557C7.72061 19.7019 9.16941 17.4259 11.6308 17.4259C12.7385 17.4259 13.3547 17.5478 14.2173 18.2981C14.3737 18.9145 14.817 20.3364 15.0327 20.9821C15.3218 21.8462 15.6656 22.5817 16.0123 23.3821C15.517 25.4352 13.8935 26.8857 11.7604 26.8857V26.8857ZM17.7585 18.3702C17.6561 18.2071 17.6775 18.3074 17.563 18.1533C17.1118 16.9259 16.2423 14.1864 16.1416 11.0747C16.0277 7.55475 16.6144 3.4288 18.3439 3.4288C19.5158 3.4288 20.7613 11.7907 17.7582 18.3702H17.7585ZM52.4158 14.7026C52.1382 12.6138 52.1237 3.30189 54.3592 3.55832C55.5935 4.05832 53.5766 12.8452 52.4158 14.7026ZM68.7394 14.7026C68.4618 12.6138 68.4473 3.30189 70.6828 3.55832C71.917 4.05832 69.9001 12.8452 68.7394 14.7026ZM84.9335 14.8324C84.6556 12.7433 84.6413 3.43142 86.8766 3.68784C88.1108 4.18784 86.0939 12.975 84.9335 14.8324ZM102.812 3.01332C104.855 2.80142 104.771 11.7267 100.669 17.3614C100.14 15.3247 99.3285 3.71261 102.812 3.01308V3.01332ZM111.402 22.2186C110.746 18.9026 112.442 16.7247 114.19 16.4859C114.802 16.3883 115.687 16.7843 115.864 17.5245C116.154 18.9195 115.822 20.9888 111.908 23.6143C111.914 23.6367 111.548 22.9571 111.402 22.2186H111.402Z" fill="white" fill-opacity="0.5"/>
</g>
<defs>
<filter id="filter0_d_1177_2314" x="0.84729" y="0" width="129.951" height="38" filterUnits="userSpaceOnUse" color-interpolation-filters="sRGB">
<feFlood flood-opacity="0" result="BackgroundImageFix"/>
<feColorMatrix in="SourceAlpha" type="matrix" values="0 0 0 0 0 0 0 0 0 0 0 0 0 0 0 0 0 0 127 0" result="hardAlpha"/>
<feOffset dy="4"/>
<feGaussianBlur stdDeviation="2"/>
<feComposite in2="hardAlpha" operator="out"/>
<feColorMatrix type="matrix" values="0 0 0 0 0 0 0 0 0 0 0 0 0 0 0 0 0 0 0.25 0"/>
<feBlend mode="normal" in2="BackgroundImageFix" result="effect1_dropShadow_1177_2314"/>
<feBlend mode="normal" in="SourceGraphic" in2="effect1_dropShadow_1177_2314" result="shape"/>
</filter>
<clipPath id="clip0_1177_2314">
<rect width="121.951" height="30" fill="white" transform="translate(4.84729)"/>
</clipPath>
</defs>
</svg>
