<svg width="963" height="739" viewBox="0 0 963 739" fill="none" xmlns="http://www.w3.org/2000/svg">
<rect x="397.677" width="351.356" height="87.839" fill="#FFDAFF"/>
<path d="M549.622 35.9573V54.0273H546.658V46.1233H538.156V54.0273H535.192V35.9573H538.156V43.7053H546.658V35.9573H549.622ZM559.738 54.2613C558.386 54.2613 557.164 53.958 556.072 53.3513C554.98 52.7273 554.122 51.8607 553.498 50.7513C552.874 49.6247 552.562 48.3247 552.562 46.8513C552.562 45.3953 552.883 44.104 553.524 42.9773C554.165 41.8507 555.041 40.984 556.15 40.3773C557.259 39.7707 558.499 39.4673 559.868 39.4673C561.237 39.4673 562.477 39.7707 563.586 40.3773C564.695 40.984 565.571 41.8507 566.212 42.9773C566.853 44.104 567.174 45.3953 567.174 46.8513C567.174 48.3073 566.845 49.5987 566.186 50.7253C565.527 51.852 564.626 52.7273 563.482 53.3513C562.355 53.958 561.107 54.2613 559.738 54.2613ZM559.738 51.6873C560.501 51.6873 561.211 51.5053 561.87 51.1413C562.546 50.7773 563.092 50.2313 563.508 49.5033C563.924 48.7753 564.132 47.8913 564.132 46.8513C564.132 45.8113 563.933 44.936 563.534 44.2253C563.135 43.4973 562.607 42.9513 561.948 42.5873C561.289 42.2233 560.579 42.0413 559.816 42.0413C559.053 42.0413 558.343 42.2233 557.684 42.5873C557.043 42.9513 556.531 43.4973 556.15 44.2253C555.769 44.936 555.578 45.8113 555.578 46.8513C555.578 48.394 555.968 49.59 556.748 50.4393C557.545 51.2713 558.542 51.6873 559.738 51.6873ZM587.446 39.4673C588.573 39.4673 589.578 39.7013 590.462 40.1693C591.363 40.6373 592.065 41.3307 592.568 42.2493C593.088 43.168 593.348 44.2773 593.348 45.5773V54.0273H590.41V46.0193C590.41 44.7367 590.089 43.7573 589.448 43.0813C588.807 42.388 587.931 42.0413 586.822 42.0413C585.713 42.0413 584.829 42.388 584.17 43.0813C583.529 43.7573 583.208 44.7367 583.208 46.0193V54.0273H580.27V46.0193C580.27 44.7367 579.949 43.7573 579.308 43.0813C578.667 42.388 577.791 42.0413 576.682 42.0413C575.573 42.0413 574.689 42.388 574.03 43.0813C573.389 43.7573 573.068 44.7367 573.068 46.0193V54.0273H570.104V39.7013H573.068V41.3393C573.553 40.75 574.169 40.2907 574.914 39.9613C575.659 39.632 576.457 39.4673 577.306 39.4673C578.45 39.4673 579.473 39.71 580.374 40.1953C581.275 40.6807 581.969 41.3827 582.454 42.3013C582.887 41.4347 583.563 40.75 584.482 40.2473C585.401 39.7273 586.389 39.4673 587.446 39.4673ZM610.25 46.5133C610.25 47.0507 610.215 47.536 610.146 47.9693H599.2C599.286 49.1133 599.711 50.032 600.474 50.7253C601.236 51.4187 602.172 51.7653 603.282 51.7653C604.876 51.7653 606.003 51.098 606.662 49.7633H609.86C609.426 51.0807 608.638 52.164 607.494 53.0133C606.367 53.8453 604.963 54.2613 603.282 54.2613C601.912 54.2613 600.682 53.958 599.59 53.3513C598.515 52.7273 597.666 51.8607 597.042 50.7513C596.435 49.6247 596.132 48.3247 596.132 46.8513C596.132 45.378 596.426 44.0867 597.016 42.9773C597.622 41.8507 598.463 40.984 599.538 40.3773C600.63 39.7707 601.878 39.4673 603.282 39.4673C604.634 39.4673 605.838 39.762 606.896 40.3513C607.953 40.9407 608.776 41.7727 609.366 42.8473C609.955 43.9047 610.25 45.1267 610.25 46.5133ZM607.156 45.5773C607.138 44.4853 606.748 43.61 605.986 42.9513C605.223 42.2927 604.278 41.9633 603.152 41.9633C602.129 41.9633 601.254 42.2927 600.526 42.9513C599.798 43.5927 599.364 44.468 599.226 45.5773H607.156Z" fill="#282D46"/>
<rect x="397.999" y="128" width="351.356" height="87.839" fill="#FFDAFF"/>
<path d="M513.146 182.182C511.933 182.182 510.841 181.974 509.87 181.558C508.9 181.125 508.137 180.518 507.582 179.738C507.028 178.958 506.75 178.048 506.75 177.008H509.922C509.992 177.788 510.295 178.429 510.832 178.932C511.387 179.435 512.158 179.686 513.146 179.686C514.169 179.686 514.966 179.443 515.538 178.958C516.11 178.455 516.396 177.814 516.396 177.034C516.396 176.427 516.214 175.933 515.85 175.552C515.504 175.171 515.062 174.876 514.524 174.668C514.004 174.46 513.276 174.235 512.34 173.992C511.162 173.68 510.2 173.368 509.454 173.056C508.726 172.727 508.102 172.224 507.582 171.548C507.062 170.872 506.802 169.971 506.802 168.844C506.802 167.804 507.062 166.894 507.582 166.114C508.102 165.334 508.83 164.736 509.766 164.32C510.702 163.904 511.786 163.696 513.016 163.696C514.767 163.696 516.197 164.138 517.306 165.022C518.433 165.889 519.057 167.085 519.178 168.61H515.902C515.85 167.951 515.538 167.388 514.966 166.92C514.394 166.452 513.64 166.218 512.704 166.218C511.855 166.218 511.162 166.435 510.624 166.868C510.087 167.301 509.818 167.925 509.818 168.74C509.818 169.295 509.983 169.754 510.312 170.118C510.659 170.465 511.092 170.742 511.612 170.95C512.132 171.158 512.843 171.383 513.744 171.626C514.94 171.955 515.911 172.285 516.656 172.614C517.419 172.943 518.06 173.455 518.58 174.148C519.118 174.824 519.386 175.734 519.386 176.878C519.386 177.797 519.135 178.663 518.632 179.478C518.147 180.293 517.428 180.951 516.474 181.454C515.538 181.939 514.429 182.182 513.146 182.182ZM536.014 174.486C536.014 175.023 535.979 175.509 535.91 175.942H524.964C525.05 177.086 525.475 178.005 526.238 178.698C527 179.391 527.936 179.738 529.046 179.738C530.64 179.738 531.767 179.071 532.426 177.736H535.624C535.19 179.053 534.402 180.137 533.258 180.986C532.131 181.818 530.727 182.234 529.046 182.234C527.676 182.234 526.446 181.931 525.354 181.324C524.279 180.7 523.43 179.833 522.806 178.724C522.199 177.597 521.896 176.297 521.896 174.824C521.896 173.351 522.19 172.059 522.78 170.95C523.386 169.823 524.227 168.957 525.302 168.35C526.394 167.743 527.642 167.44 529.046 167.44C530.398 167.44 531.602 167.735 532.66 168.324C533.717 168.913 534.54 169.745 535.13 170.82C535.719 171.877 536.014 173.099 536.014 174.486ZM532.92 173.55C532.902 172.458 532.512 171.583 531.75 170.924C530.987 170.265 530.042 169.936 528.916 169.936C527.893 169.936 527.018 170.265 526.29 170.924C525.562 171.565 525.128 172.441 524.99 173.55H532.92ZM546.158 167.44C547.285 167.44 548.29 167.674 549.174 168.142C550.076 168.61 550.778 169.303 551.28 170.222C551.783 171.141 552.034 172.25 552.034 173.55V182H549.096V173.992C549.096 172.709 548.776 171.73 548.134 171.054C547.493 170.361 546.618 170.014 545.508 170.014C544.399 170.014 543.515 170.361 542.856 171.054C542.215 171.73 541.894 172.709 541.894 173.992V182H538.93V167.674H541.894V169.312C542.38 168.723 542.995 168.263 543.74 167.934C544.503 167.605 545.309 167.44 546.158 167.44ZM554.827 174.772C554.827 173.333 555.122 172.059 555.711 170.95C556.318 169.841 557.133 168.983 558.155 168.376C559.195 167.752 560.348 167.44 561.613 167.44C562.549 167.44 563.468 167.648 564.369 168.064C565.288 168.463 566.016 169 566.553 169.676V162.76H569.543V182H566.553V179.842C566.068 180.535 565.392 181.107 564.525 181.558C563.676 182.009 562.697 182.234 561.587 182.234C560.339 182.234 559.195 181.922 558.155 181.298C557.133 180.657 556.318 179.773 555.711 178.646C555.122 177.502 554.827 176.211 554.827 174.772ZM566.553 174.824C566.553 173.836 566.345 172.978 565.929 172.25C565.531 171.522 565.002 170.967 564.343 170.586C563.685 170.205 562.974 170.014 562.211 170.014C561.449 170.014 560.738 170.205 560.079 170.586C559.421 170.95 558.883 171.496 558.467 172.224C558.069 172.935 557.869 173.784 557.869 174.772C557.869 175.76 558.069 176.627 558.467 177.372C558.883 178.117 559.421 178.689 560.079 179.088C560.755 179.469 561.466 179.66 562.211 179.66C562.974 179.66 563.685 179.469 564.343 179.088C565.002 178.707 565.531 178.152 565.929 177.424C566.345 176.679 566.553 175.812 566.553 174.824ZM583.154 169.78C583.657 169.121 584.342 168.567 585.208 168.116C586.075 167.665 587.054 167.44 588.146 167.44C589.394 167.44 590.53 167.752 591.552 168.376C592.592 168.983 593.407 169.841 593.996 170.95C594.586 172.059 594.88 173.333 594.88 174.772C594.88 176.211 594.586 177.502 593.996 178.646C593.407 179.773 592.592 180.657 591.552 181.298C590.53 181.922 589.394 182.234 588.146 182.234C587.054 182.234 586.084 182.017 585.234 181.584C584.385 181.133 583.692 180.579 583.154 179.92V188.812H580.19V167.674H583.154V169.78ZM591.864 174.772C591.864 173.784 591.656 172.935 591.24 172.224C590.842 171.496 590.304 170.95 589.628 170.586C588.97 170.205 588.259 170.014 587.496 170.014C586.751 170.014 586.04 170.205 585.364 170.586C584.706 170.967 584.168 171.522 583.752 172.25C583.354 172.978 583.154 173.836 583.154 174.824C583.154 175.812 583.354 176.679 583.752 177.424C584.168 178.152 584.706 178.707 585.364 179.088C586.04 179.469 586.751 179.66 587.496 179.66C588.259 179.66 588.97 179.469 589.628 179.088C590.304 178.689 590.842 178.117 591.24 177.372C591.656 176.627 591.864 175.76 591.864 174.772ZM596.823 174.772C596.823 173.333 597.118 172.059 597.707 170.95C598.314 169.841 599.129 168.983 600.151 168.376C601.191 167.752 602.335 167.44 603.583 167.44C604.71 167.44 605.689 167.665 606.521 168.116C607.371 168.549 608.047 169.095 608.549 169.754V167.674H611.539V182H608.549V179.868C608.047 180.544 607.362 181.107 606.495 181.558C605.629 182.009 604.641 182.234 603.531 182.234C602.301 182.234 601.174 181.922 600.151 181.298C599.129 180.657 598.314 179.773 597.707 178.646C597.118 177.502 596.823 176.211 596.823 174.772ZM608.549 174.824C608.549 173.836 608.341 172.978 607.925 172.25C607.527 171.522 606.998 170.967 606.339 170.586C605.681 170.205 604.97 170.014 604.207 170.014C603.445 170.014 602.734 170.205 602.075 170.586C601.417 170.95 600.879 171.496 600.463 172.224C600.065 172.935 599.865 173.784 599.865 174.772C599.865 175.76 600.065 176.627 600.463 177.372C600.879 178.117 601.417 178.689 602.075 179.088C602.751 179.469 603.462 179.66 604.207 179.66C604.97 179.66 605.681 179.469 606.339 179.088C606.998 178.707 607.527 178.152 607.925 177.424C608.341 176.679 608.549 175.812 608.549 174.824ZM614.444 174.824C614.444 173.351 614.739 172.059 615.328 170.95C615.935 169.823 616.767 168.957 617.824 168.35C618.882 167.743 620.095 167.44 621.464 167.44C623.198 167.44 624.628 167.856 625.754 168.688C626.898 169.503 627.67 170.673 628.068 172.198H624.87C624.61 171.487 624.194 170.933 623.622 170.534C623.05 170.135 622.331 169.936 621.464 169.936C620.251 169.936 619.28 170.369 618.552 171.236C617.842 172.085 617.486 173.281 617.486 174.824C617.486 176.367 617.842 177.571 618.552 178.438C619.28 179.305 620.251 179.738 621.464 179.738C623.18 179.738 624.316 178.984 624.87 177.476H628.068C627.652 178.932 626.872 180.093 625.728 180.96C624.584 181.809 623.163 182.234 621.464 182.234C620.095 182.234 618.882 181.931 617.824 181.324C616.767 180.7 615.935 179.833 615.328 178.724C614.739 177.597 614.444 176.297 614.444 174.824ZM636.69 174.85L643.294 182H639.29L633.986 175.838V182H631.022V162.76H633.986V173.94L639.186 167.674H643.294L636.69 174.85ZM644.431 174.772C644.431 173.333 644.725 172.059 645.315 170.95C645.921 169.841 646.736 168.983 647.759 168.376C648.799 167.752 649.943 167.44 651.191 167.44C652.317 167.44 653.297 167.665 654.129 168.116C654.978 168.549 655.654 169.095 656.157 169.754V167.674H659.147V182H656.157V179.868C655.654 180.544 654.969 181.107 654.103 181.558C653.236 182.009 652.248 182.234 651.139 182.234C649.908 182.234 648.781 181.922 647.759 181.298C646.736 180.657 645.921 179.773 645.315 178.646C644.725 177.502 644.431 176.211 644.431 174.772ZM656.157 174.824C656.157 173.836 655.949 172.978 655.533 172.25C655.134 171.522 654.605 170.967 653.947 170.586C653.288 170.205 652.577 170.014 651.815 170.014C651.052 170.014 650.341 170.205 649.683 170.586C649.024 170.95 648.487 171.496 648.071 172.224C647.672 172.935 647.473 173.784 647.473 174.772C647.473 175.76 647.672 176.627 648.071 177.372C648.487 178.117 649.024 178.689 649.683 179.088C650.359 179.469 651.069 179.66 651.815 179.66C652.577 179.66 653.288 179.469 653.947 179.088C654.605 178.707 655.134 178.152 655.533 177.424C655.949 176.679 656.157 175.812 656.157 174.824ZM668.812 167.44C669.921 167.44 670.901 167.665 671.75 168.116C672.617 168.549 673.293 169.095 673.778 169.754V167.674H676.768V182.234C676.768 183.551 676.491 184.721 675.936 185.744C675.381 186.784 674.575 187.599 673.518 188.188C672.478 188.777 671.23 189.072 669.774 189.072C667.833 189.072 666.221 188.613 664.938 187.694C663.655 186.793 662.927 185.562 662.754 184.002H665.692C665.917 184.747 666.394 185.345 667.122 185.796C667.867 186.264 668.751 186.498 669.774 186.498C670.97 186.498 671.932 186.134 672.66 185.406C673.405 184.678 673.778 183.621 673.778 182.234V179.842C673.275 180.518 672.591 181.09 671.724 181.558C670.875 182.009 669.904 182.234 668.812 182.234C667.564 182.234 666.42 181.922 665.38 181.298C664.357 180.657 663.543 179.773 662.936 178.646C662.347 177.502 662.052 176.211 662.052 174.772C662.052 173.333 662.347 172.059 662.936 170.95C663.543 169.841 664.357 168.983 665.38 168.376C666.42 167.752 667.564 167.44 668.812 167.44ZM673.778 174.824C673.778 173.836 673.57 172.978 673.154 172.25C672.755 171.522 672.227 170.967 671.568 170.586C670.909 170.205 670.199 170.014 669.436 170.014C668.673 170.014 667.963 170.205 667.304 170.586C666.645 170.95 666.108 171.496 665.692 172.224C665.293 172.935 665.094 173.784 665.094 174.772C665.094 175.76 665.293 176.627 665.692 177.372C666.108 178.117 666.645 178.689 667.304 179.088C667.98 179.469 668.691 179.66 669.436 179.66C670.199 179.66 670.909 179.469 671.568 179.088C672.227 178.707 672.755 178.152 673.154 177.424C673.57 176.679 673.778 175.812 673.778 174.824ZM693.791 174.486C693.791 175.023 693.756 175.509 693.687 175.942H682.741C682.828 177.086 683.252 178.005 684.015 178.698C684.778 179.391 685.714 179.738 686.823 179.738C688.418 179.738 689.544 179.071 690.203 177.736H693.401C692.968 179.053 692.179 180.137 691.035 180.986C689.908 181.818 688.504 182.234 686.823 182.234C685.454 182.234 684.223 181.931 683.131 181.324C682.056 180.7 681.207 179.833 680.583 178.724C679.976 177.597 679.673 176.297 679.673 174.824C679.673 173.351 679.968 172.059 680.557 170.95C681.164 169.823 682.004 168.957 683.079 168.35C684.171 167.743 685.419 167.44 686.823 167.44C688.175 167.44 689.38 167.735 690.437 168.324C691.494 168.913 692.318 169.745 692.907 170.82C693.496 171.877 693.791 173.099 693.791 174.486ZM690.697 173.55C690.68 172.458 690.29 171.583 689.527 170.924C688.764 170.265 687.82 169.936 686.693 169.936C685.67 169.936 684.795 170.265 684.067 170.924C683.339 171.565 682.906 172.441 682.767 173.55H690.697Z" fill="#282D46"/>
<rect x="190.468" y="256.76" width="351.356" height="87.839" fill="#FFDAFF"/>
<path d="M319.428 301.713C319.428 299.945 319.836 298.359 320.65 296.955C321.482 295.551 322.6 294.459 324.004 293.679C325.426 292.882 326.977 292.483 328.658 292.483C330.582 292.483 332.29 292.96 333.78 293.913C335.288 294.849 336.38 296.184 337.056 297.917H333.494C333.026 296.964 332.376 296.253 331.544 295.785C330.712 295.317 329.75 295.083 328.658 295.083C327.462 295.083 326.396 295.352 325.46 295.889C324.524 296.426 323.788 297.198 323.25 298.203C322.73 299.208 322.47 300.378 322.47 301.713C322.47 303.048 322.73 304.218 323.25 305.223C323.788 306.228 324.524 307.008 325.46 307.563C326.396 308.1 327.462 308.369 328.658 308.369C329.75 308.369 330.712 308.135 331.544 307.667C332.376 307.199 333.026 306.488 333.494 305.535H337.056C336.38 307.268 335.288 308.603 333.78 309.539C332.29 310.475 330.582 310.943 328.658 310.943C326.96 310.943 325.408 310.553 324.004 309.773C322.6 308.976 321.482 307.875 320.65 306.471C319.836 305.067 319.428 303.481 319.428 301.713ZM339.538 303.559C339.538 302.12 339.832 300.846 340.422 299.737C341.028 298.628 341.843 297.77 342.866 297.163C343.906 296.539 345.05 296.227 346.298 296.227C347.424 296.227 348.404 296.452 349.236 296.903C350.085 297.336 350.761 297.882 351.264 298.541V296.461H354.254V310.787H351.264V308.655C350.761 309.331 350.076 309.894 349.21 310.345C348.343 310.796 347.355 311.021 346.246 311.021C345.015 311.021 343.888 310.709 342.866 310.085C341.843 309.444 341.028 308.56 340.422 307.433C339.832 306.289 339.538 304.998 339.538 303.559ZM351.264 303.611C351.264 302.623 351.056 301.765 350.64 301.037C350.241 300.309 349.712 299.754 349.054 299.373C348.395 298.992 347.684 298.801 346.922 298.801C346.159 298.801 345.448 298.992 344.79 299.373C344.131 299.737 343.594 300.283 343.178 301.011C342.779 301.722 342.58 302.571 342.58 303.559C342.58 304.547 342.779 305.414 343.178 306.159C343.594 306.904 344.131 307.476 344.79 307.875C345.466 308.256 346.176 308.447 346.922 308.447C347.684 308.447 348.395 308.256 349.054 307.875C349.712 307.494 350.241 306.939 350.64 306.211C351.056 305.466 351.264 304.599 351.264 303.611ZM365.375 296.227C366.502 296.227 367.507 296.461 368.391 296.929C369.292 297.397 369.994 298.09 370.497 299.009C371 299.928 371.251 301.037 371.251 302.337V310.787H368.313V302.779C368.313 301.496 367.992 300.517 367.351 299.841C366.71 299.148 365.834 298.801 364.725 298.801C363.616 298.801 362.732 299.148 362.073 299.841C361.432 300.517 361.111 301.496 361.111 302.779V310.787H358.147V296.461H361.111V298.099C361.596 297.51 362.212 297.05 362.957 296.721C363.72 296.392 364.526 296.227 365.375 296.227ZM374.044 303.611C374.044 302.138 374.338 300.846 374.928 299.737C375.534 298.61 376.366 297.744 377.424 297.137C378.481 296.53 379.694 296.227 381.064 296.227C382.797 296.227 384.227 296.643 385.354 297.475C386.498 298.29 387.269 299.46 387.668 300.985H384.47C384.21 300.274 383.794 299.72 383.222 299.321C382.65 298.922 381.93 298.723 381.064 298.723C379.85 298.723 378.88 299.156 378.152 300.023C377.441 300.872 377.086 302.068 377.086 303.611C377.086 305.154 377.441 306.358 378.152 307.225C378.88 308.092 379.85 308.525 381.064 308.525C382.78 308.525 383.915 307.771 384.47 306.263H387.668C387.252 307.719 386.472 308.88 385.328 309.747C384.184 310.596 382.762 311.021 381.064 311.021C379.694 311.021 378.481 310.718 377.424 310.111C376.366 309.487 375.534 308.62 374.928 307.511C374.338 306.384 374.044 305.084 374.044 303.611ZM403.752 303.273C403.752 303.81 403.717 304.296 403.648 304.729H392.702C392.788 305.873 393.213 306.792 393.976 307.485C394.738 308.178 395.674 308.525 396.784 308.525C398.378 308.525 399.505 307.858 400.164 306.523H403.362C402.928 307.84 402.14 308.924 400.996 309.773C399.869 310.605 398.465 311.021 396.784 311.021C395.414 311.021 394.184 310.718 393.092 310.111C392.017 309.487 391.168 308.62 390.544 307.511C389.937 306.384 389.634 305.084 389.634 303.611C389.634 302.138 389.928 300.846 390.518 299.737C391.124 298.61 391.965 297.744 393.04 297.137C394.132 296.53 395.38 296.227 396.784 296.227C398.136 296.227 399.34 296.522 400.398 297.111C401.455 297.7 402.278 298.532 402.868 299.607C403.457 300.664 403.752 301.886 403.752 303.273ZM400.658 302.337C400.64 301.245 400.25 300.37 399.488 299.711C398.725 299.052 397.78 298.723 396.654 298.723C395.631 298.723 394.756 299.052 394.028 299.711C393.3 300.352 392.866 301.228 392.728 302.337H400.658ZM409.632 291.547V310.787H406.668V291.547H409.632Z" fill="#282D46"/>
<rect y="379" width="351.356" height="87.839" fill="#FFDAFF"/>
<path d="M128.961 423.953C128.961 422.185 129.368 420.599 130.183 419.195C131.015 417.791 132.133 416.699 133.537 415.919C134.958 415.122 136.509 414.723 138.191 414.723C140.115 414.723 141.822 415.2 143.313 416.153C144.821 417.089 145.913 418.424 146.589 420.157H143.027C142.559 419.204 141.909 418.493 141.077 418.025C140.245 417.557 139.283 417.323 138.191 417.323C136.995 417.323 135.929 417.592 134.993 418.129C134.057 418.667 133.32 419.438 132.783 420.443C132.263 421.449 132.003 422.619 132.003 423.953C132.003 425.288 132.263 426.458 132.783 427.463C133.32 428.469 134.057 429.249 134.993 429.803C135.929 430.341 136.995 430.609 138.191 430.609C139.283 430.609 140.245 430.375 141.077 429.907C141.909 429.439 142.559 428.729 143.027 427.775H146.589C145.913 429.509 144.821 430.843 143.313 431.779C141.822 432.715 140.115 433.183 138.191 433.183C136.492 433.183 134.941 432.793 133.537 432.013C132.133 431.216 131.015 430.115 130.183 428.711C129.368 427.307 128.961 425.721 128.961 423.953ZM149.07 425.799C149.07 424.361 149.365 423.087 149.954 421.977C150.561 420.868 151.375 420.01 152.398 419.403C153.438 418.779 154.582 418.467 155.83 418.467C156.957 418.467 157.936 418.693 158.768 419.143C159.617 419.577 160.293 420.123 160.796 420.781V418.701H163.786V433.027H160.796V430.895C160.293 431.571 159.609 432.135 158.742 432.585C157.875 433.036 156.887 433.261 155.778 433.261C154.547 433.261 153.421 432.949 152.398 432.325C151.375 431.684 150.561 430.8 149.954 429.673C149.365 428.529 149.07 427.238 149.07 425.799ZM160.796 425.851C160.796 424.863 160.588 424.005 160.172 423.277C159.773 422.549 159.245 421.995 158.586 421.613C157.927 421.232 157.217 421.041 156.454 421.041C155.691 421.041 154.981 421.232 154.322 421.613C153.663 421.977 153.126 422.523 152.71 423.251C152.311 423.962 152.112 424.811 152.112 425.799C152.112 426.787 152.311 427.654 152.71 428.399C153.126 429.145 153.663 429.717 154.322 430.115C154.998 430.497 155.709 430.687 156.454 430.687C157.217 430.687 157.927 430.497 158.586 430.115C159.245 429.734 159.773 429.179 160.172 428.451C160.588 427.706 160.796 426.839 160.796 425.851ZM174.907 418.467C176.034 418.467 177.039 418.701 177.923 419.169C178.824 419.637 179.526 420.331 180.029 421.249C180.532 422.168 180.783 423.277 180.783 424.577V433.027H177.845V425.019C177.845 423.737 177.524 422.757 176.883 422.081C176.242 421.388 175.366 421.041 174.257 421.041C173.148 421.041 172.264 421.388 171.605 422.081C170.964 422.757 170.643 423.737 170.643 425.019V433.027H167.679V418.701H170.643V420.339C171.128 419.75 171.744 419.291 172.489 418.961C173.252 418.632 174.058 418.467 174.907 418.467ZM183.576 425.851C183.576 424.378 183.871 423.087 184.46 421.977C185.067 420.851 185.899 419.984 186.956 419.377C188.013 418.771 189.227 418.467 190.596 418.467C192.329 418.467 193.759 418.883 194.886 419.715C196.03 420.53 196.801 421.7 197.2 423.225H194.002C193.742 422.515 193.326 421.96 192.754 421.561C192.182 421.163 191.463 420.963 190.596 420.963C189.383 420.963 188.412 421.397 187.684 422.263C186.973 423.113 186.618 424.309 186.618 425.851C186.618 427.394 186.973 428.599 187.684 429.465C188.412 430.332 189.383 430.765 190.596 430.765C192.312 430.765 193.447 430.011 194.002 428.503H197.2C196.784 429.959 196.004 431.121 194.86 431.987C193.716 432.837 192.295 433.261 190.596 433.261C189.227 433.261 188.013 432.958 186.956 432.351C185.899 431.727 185.067 430.861 184.46 429.751C183.871 428.625 183.576 427.325 183.576 425.851ZM213.284 425.513C213.284 426.051 213.249 426.536 213.18 426.969H202.234C202.32 428.113 202.745 429.032 203.508 429.725C204.27 430.419 205.206 430.765 206.316 430.765C207.91 430.765 209.037 430.098 209.696 428.763H212.894C212.46 430.081 211.672 431.164 210.528 432.013C209.401 432.845 207.997 433.261 206.316 433.261C204.946 433.261 203.716 432.958 202.624 432.351C201.549 431.727 200.7 430.861 200.076 429.751C199.469 428.625 199.166 427.325 199.166 425.851C199.166 424.378 199.46 423.087 200.05 421.977C200.656 420.851 201.497 419.984 202.572 419.377C203.664 418.771 204.912 418.467 206.316 418.467C207.668 418.467 208.872 418.762 209.93 419.351C210.987 419.941 211.81 420.773 212.4 421.847C212.989 422.905 213.284 424.127 213.284 425.513ZM210.19 424.577C210.172 423.485 209.782 422.61 209.02 421.951C208.257 421.293 207.312 420.963 206.186 420.963C205.163 420.963 204.288 421.293 203.56 421.951C202.832 422.593 202.398 423.468 202.26 424.577H210.19ZM219.165 413.787V433.027H216.201V413.787H219.165Z" fill="#282D46"/>
<rect x="397.677" y="385.143" width="351.356" height="87.839" fill="#FFDAFF"/>
<path d="M520.944 435.325C519.731 435.325 518.639 435.117 517.668 434.701C516.697 434.267 515.935 433.661 515.38 432.881C514.825 432.101 514.548 431.191 514.548 430.151H517.72C517.789 430.931 518.093 431.572 518.63 432.075C519.185 432.577 519.956 432.829 520.944 432.829C521.967 432.829 522.764 432.586 523.336 432.101C523.908 431.598 524.194 430.957 524.194 430.177C524.194 429.57 524.012 429.076 523.648 428.695C523.301 428.313 522.859 428.019 522.322 427.811C521.802 427.603 521.074 427.377 520.138 427.135C518.959 426.823 517.997 426.511 517.252 426.199C516.524 425.869 515.9 425.367 515.38 424.691C514.86 424.015 514.6 423.113 514.6 421.987C514.6 420.947 514.86 420.037 515.38 419.257C515.9 418.477 516.628 417.879 517.564 417.463C518.5 417.047 519.583 416.839 520.814 416.839C522.565 416.839 523.995 417.281 525.104 418.165C526.231 419.031 526.855 420.227 526.976 421.753H523.7C523.648 421.094 523.336 420.531 522.764 420.063C522.192 419.595 521.438 419.361 520.502 419.361C519.653 419.361 518.959 419.577 518.422 420.011C517.885 420.444 517.616 421.068 517.616 421.883C517.616 422.437 517.781 422.897 518.11 423.261C518.457 423.607 518.89 423.885 519.41 424.093C519.93 424.301 520.641 424.526 521.542 424.769C522.738 425.098 523.709 425.427 524.454 425.757C525.217 426.086 525.858 426.597 526.378 427.291C526.915 427.967 527.184 428.877 527.184 430.021C527.184 430.939 526.933 431.806 526.43 432.621C525.945 433.435 525.225 434.094 524.272 434.597C523.336 435.082 522.227 435.325 520.944 435.325ZM543.811 427.629C543.811 428.166 543.777 428.651 543.707 429.085H532.761C532.848 430.229 533.273 431.147 534.035 431.841C534.798 432.534 535.734 432.881 536.843 432.881C538.438 432.881 539.565 432.213 540.223 430.879H543.421C542.988 432.196 542.199 433.279 541.055 434.129C539.929 434.961 538.525 435.377 536.843 435.377C535.474 435.377 534.243 435.073 533.151 434.467C532.077 433.843 531.227 432.976 530.603 431.867C529.997 430.74 529.693 429.44 529.693 427.967C529.693 426.493 529.988 425.202 530.577 424.093C531.184 422.966 532.025 422.099 533.099 421.493C534.191 420.886 535.439 420.583 536.843 420.583C538.195 420.583 539.4 420.877 540.457 421.467C541.515 422.056 542.338 422.888 542.927 423.963C543.517 425.02 543.811 426.242 543.811 427.629ZM540.717 426.693C540.7 425.601 540.31 424.725 539.547 424.067C538.785 423.408 537.84 423.079 536.713 423.079C535.691 423.079 534.815 423.408 534.087 424.067C533.359 424.708 532.926 425.583 532.787 426.693H540.717ZM559.858 427.629C559.858 428.166 559.823 428.651 559.754 429.085H548.808C548.895 430.229 549.319 431.147 550.082 431.841C550.845 432.534 551.781 432.881 552.89 432.881C554.485 432.881 555.611 432.213 556.27 430.879H559.468C559.035 432.196 558.246 433.279 557.102 434.129C555.975 434.961 554.571 435.377 552.89 435.377C551.521 435.377 550.29 435.073 549.198 434.467C548.123 433.843 547.274 432.976 546.65 431.867C546.043 430.74 545.74 429.44 545.74 427.967C545.74 426.493 546.035 425.202 546.624 424.093C547.231 422.966 548.071 422.099 549.146 421.493C550.238 420.886 551.486 420.583 552.89 420.583C554.242 420.583 555.447 420.877 556.504 421.467C557.561 422.056 558.385 422.888 558.974 423.963C559.563 425.02 559.858 426.242 559.858 427.629ZM556.764 426.693C556.747 425.601 556.357 424.725 555.594 424.067C554.831 423.408 553.887 423.079 552.76 423.079C551.737 423.079 550.862 423.408 550.134 424.067C549.406 424.708 548.973 425.583 548.834 426.693H556.764ZM572.493 422.923C572.996 422.264 573.68 421.709 574.547 421.259C575.414 420.808 576.393 420.583 577.485 420.583C578.733 420.583 579.868 420.895 580.891 421.519C581.931 422.125 582.746 422.983 583.335 424.093C583.924 425.202 584.219 426.476 584.219 427.915C584.219 429.353 583.924 430.645 583.335 431.789C582.746 432.915 581.931 433.799 580.891 434.441C579.868 435.065 578.733 435.377 577.485 435.377C576.393 435.377 575.422 435.16 574.573 434.727C573.724 434.276 573.03 433.721 572.493 433.063V441.955H569.529V420.817H572.493V422.923ZM581.203 427.915C581.203 426.927 580.995 426.077 580.579 425.367C580.18 424.639 579.643 424.093 578.967 423.729C578.308 423.347 577.598 423.157 576.835 423.157C576.09 423.157 575.379 423.347 574.703 423.729C574.044 424.11 573.507 424.665 573.091 425.393C572.692 426.121 572.493 426.979 572.493 427.967C572.493 428.955 572.692 429.821 573.091 430.567C573.507 431.295 574.044 431.849 574.703 432.231C575.379 432.612 576.09 432.803 576.835 432.803C577.598 432.803 578.308 432.612 578.967 432.231C579.643 431.832 580.18 431.26 580.579 430.515C580.995 429.769 581.203 428.903 581.203 427.915ZM590.114 422.897C590.547 422.169 591.119 421.605 591.83 421.207C592.558 420.791 593.416 420.583 594.404 420.583V423.651H593.65C592.489 423.651 591.605 423.945 590.998 424.535C590.409 425.124 590.114 426.147 590.114 427.603V435.143H587.15V420.817H590.114V422.897ZM598.637 418.919C598.099 418.919 597.649 418.737 597.285 418.373C596.921 418.009 596.739 417.558 596.739 417.021C596.739 416.483 596.921 416.033 597.285 415.669C597.649 415.305 598.099 415.123 598.637 415.123C599.157 415.123 599.599 415.305 599.963 415.669C600.327 416.033 600.509 416.483 600.509 417.021C600.509 417.558 600.327 418.009 599.963 418.373C599.599 418.737 599.157 418.919 598.637 418.919ZM600.093 420.817V435.143H597.129V420.817H600.093ZM602.996 427.967C602.996 426.493 603.291 425.202 603.88 424.093C604.487 422.966 605.319 422.099 606.376 421.493C607.433 420.886 608.647 420.583 610.016 420.583C611.749 420.583 613.179 420.999 614.306 421.831C615.45 422.645 616.221 423.815 616.62 425.341H613.422C613.162 424.63 612.746 424.075 612.174 423.677C611.602 423.278 610.883 423.079 610.016 423.079C608.803 423.079 607.832 423.512 607.104 424.379C606.393 425.228 606.038 426.424 606.038 427.967C606.038 429.509 606.393 430.714 607.104 431.581C607.832 432.447 608.803 432.881 610.016 432.881C611.732 432.881 612.867 432.127 613.422 430.619H616.62C616.204 432.075 615.424 433.236 614.28 434.103C613.136 434.952 611.715 435.377 610.016 435.377C608.647 435.377 607.433 435.073 606.376 434.467C605.319 433.843 604.487 432.976 603.88 431.867C603.291 430.74 602.996 429.44 602.996 427.967ZM632.704 427.629C632.704 428.166 632.669 428.651 632.6 429.085H621.654C621.741 430.229 622.165 431.147 622.928 431.841C623.691 432.534 624.627 432.881 625.736 432.881C627.331 432.881 628.457 432.213 629.116 430.879H632.314C631.881 432.196 631.092 433.279 629.948 434.129C628.821 434.961 627.417 435.377 625.736 435.377C624.367 435.377 623.136 435.073 622.044 434.467C620.969 433.843 620.12 432.976 619.496 431.867C618.889 430.74 618.586 429.44 618.586 427.967C618.586 426.493 618.881 425.202 619.47 424.093C620.077 422.966 620.917 422.099 621.992 421.493C623.084 420.886 624.332 420.583 625.736 420.583C627.088 420.583 628.293 420.877 629.35 421.467C630.407 422.056 631.231 422.888 631.82 423.963C632.409 425.02 632.704 426.242 632.704 427.629ZM629.61 426.693C629.593 425.601 629.203 424.725 628.44 424.067C627.677 423.408 626.733 423.079 625.606 423.079C624.583 423.079 623.708 423.408 622.98 424.067C622.252 424.708 621.819 425.583 621.68 426.693H629.61Z" fill="#282D46"/>
<rect x="397.677" y="518.025" width="351.356" height="87.839" fill="#FFDAFF"/>
<path d="M506.257 564.333H498.691L497.391 568.025H494.297L500.771 549.929H504.203L510.677 568.025H507.557L506.257 564.333ZM505.425 561.915L502.487 553.517L499.523 561.915H505.425ZM512.504 560.849C512.504 559.376 512.798 558.085 513.388 556.975C513.994 555.849 514.826 554.982 515.884 554.375C516.941 553.769 518.154 553.465 519.524 553.465C521.257 553.465 522.687 553.881 523.814 554.713C524.958 555.528 525.729 556.698 526.128 558.223H522.93C522.67 557.513 522.254 556.958 521.682 556.559C521.11 556.161 520.39 555.961 519.524 555.961C518.31 555.961 517.34 556.395 516.612 557.261C515.901 558.111 515.546 559.307 515.546 560.849C515.546 562.392 515.901 563.597 516.612 564.463C517.34 565.33 518.31 565.763 519.524 565.763C521.24 565.763 522.375 565.009 522.93 563.501H526.128C525.712 564.957 524.932 566.119 523.788 566.985C522.644 567.835 521.222 568.259 519.524 568.259C518.154 568.259 516.941 567.956 515.884 567.349C514.826 566.725 513.994 565.859 513.388 564.749C512.798 563.623 512.504 562.323 512.504 560.849ZM528.094 560.849C528.094 559.376 528.388 558.085 528.978 556.975C529.584 555.849 530.416 554.982 531.474 554.375C532.531 553.769 533.744 553.465 535.114 553.465C536.847 553.465 538.277 553.881 539.404 554.713C540.548 555.528 541.319 556.698 541.718 558.223H538.52C538.26 557.513 537.844 556.958 537.272 556.559C536.7 556.161 535.98 555.961 535.114 555.961C533.9 555.961 532.93 556.395 532.202 557.261C531.491 558.111 531.136 559.307 531.136 560.849C531.136 562.392 531.491 563.597 532.202 564.463C532.93 565.33 533.9 565.763 535.114 565.763C536.83 565.763 537.965 565.009 538.52 563.501H541.718C541.302 564.957 540.522 566.119 539.378 566.985C538.234 567.835 536.812 568.259 535.114 568.259C533.744 568.259 532.531 567.956 531.474 567.349C530.416 566.725 529.584 565.859 528.978 564.749C528.388 563.623 528.094 562.323 528.094 560.849ZM557.802 560.511C557.802 561.049 557.767 561.534 557.698 561.967H546.752C546.838 563.111 547.263 564.03 548.026 564.723C548.788 565.417 549.724 565.763 550.834 565.763C552.428 565.763 553.555 565.096 554.214 563.761H557.412C556.978 565.079 556.19 566.162 555.046 567.011C553.919 567.843 552.515 568.259 550.834 568.259C549.464 568.259 548.234 567.956 547.142 567.349C546.067 566.725 545.218 565.859 544.594 564.749C543.987 563.623 543.684 562.323 543.684 560.849C543.684 559.376 543.978 558.085 544.568 556.975C545.174 555.849 546.015 554.982 547.09 554.375C548.182 553.769 549.43 553.465 550.834 553.465C552.186 553.465 553.39 553.76 554.448 554.349C555.505 554.939 556.328 555.771 556.918 556.845C557.507 557.903 557.802 559.125 557.802 560.511ZM554.708 559.575C554.69 558.483 554.3 557.608 553.538 556.949C552.775 556.291 551.83 555.961 550.704 555.961C549.681 555.961 548.806 556.291 548.078 556.949C547.35 557.591 546.916 558.466 546.778 559.575H554.708ZM563.682 555.805C564.185 555.147 564.87 554.592 565.736 554.141C566.603 553.691 567.582 553.465 568.674 553.465C569.922 553.465 571.058 553.777 572.08 554.401C573.12 555.008 573.935 555.866 574.524 556.975C575.114 558.085 575.408 559.359 575.408 560.797C575.408 562.236 575.114 563.527 574.524 564.671C573.935 565.798 573.12 566.682 572.08 567.323C571.058 567.947 569.922 568.259 568.674 568.259C567.582 568.259 566.612 568.043 565.762 567.609C564.913 567.159 564.22 566.604 563.682 565.945V574.837H560.718V553.699H563.682V555.805ZM572.392 560.797C572.392 559.809 572.184 558.96 571.768 558.249C571.37 557.521 570.832 556.975 570.156 556.611C569.498 556.23 568.787 556.039 568.024 556.039C567.279 556.039 566.568 556.23 565.892 556.611C565.234 556.993 564.696 557.547 564.28 558.275C563.882 559.003 563.682 559.861 563.682 560.849C563.682 561.837 563.882 562.704 564.28 563.449C564.696 564.177 565.234 564.732 565.892 565.113C566.568 565.495 567.279 565.685 568.024 565.685C568.787 565.685 569.498 565.495 570.156 565.113C570.832 564.715 571.37 564.143 571.768 563.397C572.184 562.652 572.392 561.785 572.392 560.797ZM581.797 556.117V564.047C581.797 564.585 581.919 564.975 582.161 565.217C582.421 565.443 582.855 565.555 583.461 565.555H585.281V568.025H582.941C581.607 568.025 580.584 567.713 579.873 567.089C579.163 566.465 578.807 565.451 578.807 564.047V556.117H577.117V553.699H578.807V550.137H581.797V553.699H585.281V556.117H581.797ZM597.731 555.779C598.165 555.051 598.737 554.488 599.447 554.089C600.175 553.673 601.033 553.465 602.021 553.465V556.533H601.267C600.106 556.533 599.222 556.828 598.615 557.417C598.026 558.007 597.731 559.029 597.731 560.485V568.025H594.767V553.699H597.731V555.779ZM606.254 551.801C605.716 551.801 605.266 551.619 604.902 551.255C604.538 550.891 604.356 550.441 604.356 549.903C604.356 549.366 604.538 548.915 604.902 548.551C605.266 548.187 605.716 548.005 606.254 548.005C606.774 548.005 607.216 548.187 607.58 548.551C607.944 548.915 608.126 549.366 608.126 549.903C608.126 550.441 607.944 550.891 607.58 551.255C607.216 551.619 606.774 551.801 606.254 551.801ZM607.71 553.699V568.025H604.746V553.699H607.71ZM610.613 560.797C610.613 559.359 610.908 558.085 611.497 556.975C612.104 555.866 612.919 555.008 613.941 554.401C614.981 553.777 616.134 553.465 617.399 553.465C618.335 553.465 619.254 553.673 620.155 554.089C621.074 554.488 621.802 555.025 622.339 555.701V548.785H625.329V568.025H622.339V565.867C621.854 566.561 621.178 567.133 620.311 567.583C619.462 568.034 618.483 568.259 617.373 568.259C616.125 568.259 614.981 567.947 613.941 567.323C612.919 566.682 612.104 565.798 611.497 564.671C610.908 563.527 610.613 562.236 610.613 560.797ZM622.339 560.849C622.339 559.861 622.131 559.003 621.715 558.275C621.317 557.547 620.788 556.993 620.129 556.611C619.471 556.23 618.76 556.039 617.997 556.039C617.235 556.039 616.524 556.23 615.865 556.611C615.207 556.975 614.669 557.521 614.253 558.249C613.855 558.96 613.655 559.809 613.655 560.797C613.655 561.785 613.855 562.652 614.253 563.397C614.669 564.143 615.207 564.715 615.865 565.113C616.541 565.495 617.252 565.685 617.997 565.685C618.76 565.685 619.471 565.495 620.129 565.113C620.788 564.732 621.317 564.177 621.715 563.449C622.131 562.704 622.339 561.837 622.339 560.849ZM642.352 560.511C642.352 561.049 642.318 561.534 642.248 561.967H631.302C631.389 563.111 631.814 564.03 632.576 564.723C633.339 565.417 634.275 565.763 635.384 565.763C636.979 565.763 638.106 565.096 638.764 563.761H641.962C641.529 565.079 640.74 566.162 639.596 567.011C638.47 567.843 637.066 568.259 635.384 568.259C634.015 568.259 632.784 567.956 631.692 567.349C630.618 566.725 629.768 565.859 629.144 564.749C628.538 563.623 628.234 562.323 628.234 560.849C628.234 559.376 628.529 558.085 629.118 556.975C629.725 555.849 630.566 554.982 631.64 554.375C632.732 553.769 633.98 553.465 635.384 553.465C636.736 553.465 637.941 553.76 638.998 554.349C640.056 554.939 640.879 555.771 641.468 556.845C642.058 557.903 642.352 559.125 642.352 560.511ZM639.258 559.575C639.241 558.483 638.851 557.608 638.088 556.949C637.326 556.291 636.381 555.961 635.254 555.961C634.232 555.961 633.356 556.291 632.628 556.949C631.9 557.591 631.467 558.466 631.328 559.575H639.258ZM648.233 555.779C648.667 555.051 649.239 554.488 649.949 554.089C650.677 553.673 651.535 553.465 652.523 553.465V556.533H651.769C650.608 556.533 649.724 556.828 649.117 557.417C648.528 558.007 648.233 559.029 648.233 560.485V568.025H645.269V553.699H648.233V555.779Z" fill="#282D46"/>
<rect x="398" y="651.047" width="351.356" height="87.839" fill="#FFDAFF"/>
<path d="M521.513 701.047L517.353 693.819H515.091V701.047H512.127V682.977H518.367C519.753 682.977 520.923 683.22 521.877 683.705C522.847 684.19 523.567 684.84 524.035 685.655C524.52 686.47 524.763 687.38 524.763 688.385C524.763 689.564 524.416 690.638 523.723 691.609C523.047 692.562 521.998 693.212 520.577 693.559L525.049 701.047H521.513ZM515.091 691.453H518.367C519.476 691.453 520.308 691.176 520.863 690.621C521.435 690.066 521.721 689.321 521.721 688.385C521.721 687.449 521.443 686.721 520.889 686.201C520.334 685.664 519.493 685.395 518.367 685.395H515.091V691.453ZM527.566 693.819C527.566 692.38 527.861 691.106 528.45 689.997C529.057 688.888 529.872 688.03 530.894 687.423C531.934 686.799 533.078 686.487 534.326 686.487C535.453 686.487 536.432 686.712 537.264 687.163C538.114 687.596 538.79 688.142 539.292 688.801V686.721H542.282V701.047H539.292V698.915C538.79 699.591 538.105 700.154 537.238 700.605C536.372 701.056 535.384 701.281 534.274 701.281C533.044 701.281 531.917 700.969 530.894 700.345C529.872 699.704 529.057 698.82 528.45 697.693C527.861 696.549 527.566 695.258 527.566 693.819ZM539.292 693.871C539.292 692.883 539.084 692.025 538.668 691.297C538.27 690.569 537.741 690.014 537.082 689.633C536.424 689.252 535.713 689.061 534.95 689.061C534.188 689.061 533.477 689.252 532.818 689.633C532.16 689.997 531.622 690.543 531.206 691.271C530.808 691.982 530.608 692.831 530.608 693.819C530.608 694.807 530.808 695.674 531.206 696.419C531.622 697.164 532.16 697.736 532.818 698.135C533.494 698.516 534.205 698.707 534.95 698.707C535.713 698.707 536.424 698.516 537.082 698.135C537.741 697.754 538.27 697.199 538.668 696.471C539.084 695.726 539.292 694.859 539.292 693.871ZM549.633 689.139V697.069C549.633 697.606 549.755 697.996 549.997 698.239C550.257 698.464 550.691 698.577 551.297 698.577H553.117V701.047H550.777C549.443 701.047 548.42 700.735 547.709 700.111C546.999 699.487 546.643 698.473 546.643 697.069V689.139H544.953V686.721H546.643V683.159H549.633V686.721H553.117V689.139H549.633ZM568.979 693.533C568.979 694.07 568.945 694.556 568.875 694.989H557.929C558.016 696.133 558.441 697.052 559.203 697.745C559.966 698.438 560.902 698.785 562.011 698.785C563.606 698.785 564.733 698.118 565.391 696.783H568.589C568.156 698.1 567.367 699.184 566.223 700.033C565.097 700.865 563.693 701.281 562.011 701.281C560.642 701.281 559.411 700.978 558.319 700.371C557.245 699.747 556.395 698.88 555.771 697.771C555.165 696.644 554.861 695.344 554.861 693.871C554.861 692.398 555.156 691.106 555.745 689.997C556.352 688.87 557.193 688.004 558.267 687.397C559.359 686.79 560.607 686.487 562.011 686.487C563.363 686.487 564.568 686.782 565.625 687.371C566.683 687.96 567.506 688.792 568.095 689.867C568.685 690.924 568.979 692.146 568.979 693.533ZM565.885 692.597C565.868 691.505 565.478 690.63 564.715 689.971C563.953 689.312 563.008 688.983 561.881 688.983C560.859 688.983 559.983 689.312 559.255 689.971C558.527 690.612 558.094 691.488 557.955 692.597H565.885ZM581.614 688.801C582.047 688.073 582.619 687.51 583.33 687.111C584.058 686.695 584.916 686.487 585.904 686.487V689.555H585.15C583.989 689.555 583.105 689.85 582.498 690.439C581.909 691.028 581.614 692.051 581.614 693.507V701.047H578.65V686.721H581.614V688.801ZM590.137 684.823C589.599 684.823 589.149 684.641 588.785 684.277C588.421 683.913 588.239 683.462 588.239 682.925C588.239 682.388 588.421 681.937 588.785 681.573C589.149 681.209 589.599 681.027 590.137 681.027C590.657 681.027 591.099 681.209 591.463 681.573C591.827 681.937 592.009 682.388 592.009 682.925C592.009 683.462 591.827 683.913 591.463 684.277C591.099 684.641 590.657 684.823 590.137 684.823ZM591.593 686.721V701.047H588.629V686.721H591.593ZM594.496 693.819C594.496 692.38 594.791 691.106 595.38 689.997C595.987 688.888 596.801 688.03 597.824 687.423C598.864 686.799 600.017 686.487 601.282 686.487C602.218 686.487 603.137 686.695 604.038 687.111C604.957 687.51 605.685 688.047 606.222 688.723V681.807H609.212V701.047H606.222V698.889C605.737 699.582 605.061 700.154 604.194 700.605C603.345 701.056 602.365 701.281 601.256 701.281C600.008 701.281 598.864 700.969 597.824 700.345C596.801 699.704 595.987 698.82 595.38 697.693C594.791 696.549 594.496 695.258 594.496 693.819ZM606.222 693.871C606.222 692.883 606.014 692.025 605.598 691.297C605.199 690.569 604.671 690.014 604.012 689.633C603.353 689.252 602.643 689.061 601.88 689.061C601.117 689.061 600.407 689.252 599.748 689.633C599.089 689.997 598.552 690.543 598.136 691.271C597.737 691.982 597.538 692.831 597.538 693.819C597.538 694.807 597.737 695.674 598.136 696.419C598.552 697.164 599.089 697.736 599.748 698.135C600.424 698.516 601.135 698.707 601.88 698.707C602.643 698.707 603.353 698.516 604.012 698.135C604.671 697.754 605.199 697.199 605.598 696.471C606.014 695.726 606.222 694.859 606.222 693.871ZM626.235 693.533C626.235 694.07 626.2 694.556 626.131 694.989H615.185C615.272 696.133 615.696 697.052 616.459 697.745C617.222 698.438 618.158 698.785 619.267 698.785C620.862 698.785 621.988 698.118 622.647 696.783H625.845C625.412 698.1 624.623 699.184 623.479 700.033C622.352 700.865 620.948 701.281 619.267 701.281C617.898 701.281 616.667 700.978 615.575 700.371C614.5 699.747 613.651 698.88 613.027 697.771C612.42 696.644 612.117 695.344 612.117 693.871C612.117 692.398 612.412 691.106 613.001 689.997C613.608 688.87 614.448 688.004 615.523 687.397C616.615 686.79 617.863 686.487 619.267 686.487C620.619 686.487 621.824 686.782 622.881 687.371C623.938 687.96 624.762 688.792 625.351 689.867C625.94 690.924 626.235 692.146 626.235 693.533ZM623.141 692.597C623.124 691.505 622.734 690.63 621.971 689.971C621.208 689.312 620.264 688.983 619.137 688.983C618.114 688.983 617.239 689.312 616.511 689.971C615.783 690.612 615.35 691.488 615.211 692.597H623.141ZM632.116 688.801C632.549 688.073 633.121 687.51 633.832 687.111C634.56 686.695 635.418 686.487 636.406 686.487V689.555H635.652C634.491 689.555 633.607 689.85 633 690.439C632.411 691.028 632.116 692.051 632.116 693.507V701.047H629.152V686.721H632.116V688.801Z" fill="#282D46"/>
<rect x="611.644" y="256.76" width="351.356" height="87.839" fill="#FFDAFF"/>
<path d="M690.449 292.717V310.787H687.485V292.717H690.449ZM701.568 296.227C702.695 296.227 703.7 296.461 704.584 296.929C705.486 297.397 706.188 298.09 706.69 299.009C707.193 299.928 707.444 301.037 707.444 302.337V310.787H704.506V302.779C704.506 301.496 704.186 300.517 703.544 299.841C702.903 299.148 702.028 298.801 700.918 298.801C699.809 298.801 698.925 299.148 698.266 299.841C697.625 300.517 697.304 301.496 697.304 302.779V310.787H694.34V296.461H697.304V298.099C697.79 297.51 698.405 297.05 699.15 296.721C699.913 296.392 700.719 296.227 701.568 296.227ZM714.189 298.567C714.692 297.908 715.376 297.354 716.243 296.903C717.11 296.452 718.089 296.227 719.181 296.227C720.429 296.227 721.564 296.539 722.587 297.163C723.627 297.77 724.442 298.628 725.031 299.737C725.62 300.846 725.915 302.12 725.915 303.559C725.915 304.998 725.62 306.289 725.031 307.433C724.442 308.56 723.627 309.444 722.587 310.085C721.564 310.709 720.429 311.021 719.181 311.021C718.089 311.021 717.118 310.804 716.269 310.371C715.42 309.92 714.726 309.366 714.189 308.707V317.599H711.225V296.461H714.189V298.567ZM722.899 303.559C722.899 302.571 722.691 301.722 722.275 301.011C721.876 300.283 721.339 299.737 720.663 299.373C720.004 298.992 719.294 298.801 718.531 298.801C717.786 298.801 717.075 298.992 716.399 299.373C715.74 299.754 715.203 300.309 714.787 301.037C714.388 301.765 714.189 302.623 714.189 303.611C714.189 304.599 714.388 305.466 714.787 306.211C715.203 306.939 715.74 307.494 716.399 307.875C717.075 308.256 717.786 308.447 718.531 308.447C719.294 308.447 720.004 308.256 720.663 307.875C721.339 307.476 721.876 306.904 722.275 306.159C722.691 305.414 722.899 304.547 722.899 303.559ZM741.82 296.461V310.787H738.856V309.097C738.388 309.686 737.773 310.154 737.01 310.501C736.265 310.83 735.467 310.995 734.618 310.995C733.491 310.995 732.477 310.761 731.576 310.293C730.692 309.825 729.99 309.132 729.47 308.213C728.967 307.294 728.716 306.185 728.716 304.885V296.461H731.654V304.443C731.654 305.726 731.975 306.714 732.616 307.407C733.257 308.083 734.133 308.421 735.242 308.421C736.351 308.421 737.227 308.083 737.868 307.407C738.527 306.714 738.856 305.726 738.856 304.443V296.461H741.82ZM749.189 298.879V306.809C749.189 307.346 749.31 307.736 749.553 307.979C749.813 308.204 750.246 308.317 750.853 308.317H752.673V310.787H750.333C748.998 310.787 747.976 310.475 747.265 309.851C746.554 309.227 746.199 308.213 746.199 306.809V298.879H744.509V296.461H746.199V292.899H749.189V296.461H752.673V298.879H749.189ZM761.171 303.559C761.171 302.12 761.465 300.846 762.055 299.737C762.661 298.628 763.476 297.77 764.499 297.163C765.539 296.539 766.683 296.227 767.931 296.227C769.057 296.227 770.037 296.452 770.869 296.903C771.718 297.336 772.394 297.882 772.897 298.541V296.461H775.887V310.787H772.897V308.655C772.394 309.331 771.709 309.894 770.843 310.345C769.976 310.796 768.988 311.021 767.879 311.021C766.648 311.021 765.521 310.709 764.499 310.085C763.476 309.444 762.661 308.56 762.055 307.433C761.465 306.289 761.171 304.998 761.171 303.559ZM772.897 303.611C772.897 302.623 772.689 301.765 772.273 301.037C771.874 300.309 771.345 299.754 770.687 299.373C770.028 298.992 769.317 298.801 768.555 298.801C767.792 298.801 767.081 298.992 766.423 299.373C765.764 299.737 765.227 300.283 764.811 301.011C764.412 301.722 764.213 302.571 764.213 303.559C764.213 304.547 764.412 305.414 764.811 306.159C765.227 306.904 765.764 307.476 766.423 307.875C767.099 308.256 767.809 308.447 768.555 308.447C769.317 308.447 770.028 308.256 770.687 307.875C771.345 307.494 771.874 306.939 772.273 306.211C772.689 305.466 772.897 304.599 772.897 303.611ZM782.744 291.547V310.787H779.78V291.547H782.744ZM789.599 291.547V310.787H786.635V291.547H789.599ZM799.257 303.559C799.257 302.12 799.551 300.846 800.141 299.737C800.747 298.628 801.562 297.77 802.585 297.163C803.625 296.539 804.777 296.227 806.043 296.227C806.979 296.227 807.897 296.435 808.799 296.851C809.717 297.25 810.445 297.787 810.983 298.463V291.547H813.973V310.787H810.983V308.629C810.497 309.322 809.821 309.894 808.955 310.345C808.105 310.796 807.126 311.021 806.017 311.021C804.769 311.021 803.625 310.709 802.585 310.085C801.562 309.444 800.747 308.56 800.141 307.433C799.551 306.289 799.257 304.998 799.257 303.559ZM810.983 303.611C810.983 302.623 810.775 301.765 810.359 301.037C809.96 300.309 809.431 299.754 808.773 299.373C808.114 298.992 807.403 298.801 806.641 298.801C805.878 298.801 805.167 298.992 804.509 299.373C803.85 299.737 803.313 300.283 802.897 301.011C802.498 301.722 802.299 302.571 802.299 303.559C802.299 304.547 802.498 305.414 802.897 306.159C803.313 306.904 803.85 307.476 804.509 307.875C805.185 308.256 805.895 308.447 806.641 308.447C807.403 308.447 808.114 308.256 808.773 307.875C809.431 307.494 809.96 306.939 810.359 306.211C810.775 305.466 810.983 304.599 810.983 303.611ZM830.996 303.273C830.996 303.81 830.961 304.296 830.892 304.729H819.946C820.032 305.873 820.457 306.792 821.22 307.485C821.982 308.178 822.918 308.525 824.028 308.525C825.622 308.525 826.749 307.858 827.408 306.523H830.606C830.172 307.84 829.384 308.924 828.24 309.773C827.113 310.605 825.709 311.021 824.028 311.021C822.658 311.021 821.428 310.718 820.336 310.111C819.261 309.487 818.412 308.62 817.788 307.511C817.181 306.384 816.878 305.084 816.878 303.611C816.878 302.138 817.172 300.846 817.762 299.737C818.368 298.61 819.209 297.744 820.284 297.137C821.376 296.53 822.624 296.227 824.028 296.227C825.38 296.227 826.584 296.522 827.642 297.111C828.699 297.7 829.522 298.532 830.112 299.607C830.701 300.664 830.996 301.886 830.996 303.273ZM827.902 302.337C827.884 301.245 827.494 300.37 826.732 299.711C825.969 299.052 825.024 298.723 823.898 298.723C822.875 298.723 822 299.052 821.272 299.711C820.544 300.352 820.11 301.228 819.972 302.337H827.902ZM837.371 298.879V306.809C837.371 307.346 837.492 307.736 837.735 307.979C837.995 308.204 838.428 308.317 839.035 308.317H840.855V310.787H838.515C837.18 310.787 836.157 310.475 835.447 309.851C834.736 309.227 834.381 308.213 834.381 306.809V298.879H832.691V296.461H834.381V292.899H837.371V296.461H840.855V298.879H837.371ZM842.598 303.559C842.598 302.12 842.893 300.846 843.482 299.737C844.089 298.628 844.904 297.77 845.926 297.163C846.966 296.539 848.11 296.227 849.358 296.227C850.485 296.227 851.464 296.452 852.296 296.903C853.146 297.336 853.822 297.882 854.324 298.541V296.461H857.314V310.787H854.324V308.655C853.822 309.331 853.137 309.894 852.27 310.345C851.404 310.796 850.416 311.021 849.306 311.021C848.076 311.021 846.949 310.709 845.926 310.085C844.904 309.444 844.089 308.56 843.482 307.433C842.893 306.289 842.598 304.998 842.598 303.559ZM854.324 303.611C854.324 302.623 854.116 301.765 853.7 301.037C853.302 300.309 852.773 299.754 852.114 299.373C851.456 298.992 850.745 298.801 849.982 298.801C849.22 298.801 848.509 298.992 847.85 299.373C847.192 299.737 846.654 300.283 846.238 301.011C845.84 301.722 845.64 302.571 845.64 303.559C845.64 304.547 845.84 305.414 846.238 306.159C846.654 306.904 847.192 307.476 847.85 307.875C848.526 308.256 849.237 308.447 849.982 308.447C850.745 308.447 851.456 308.256 852.114 307.875C852.773 307.494 853.302 306.939 853.7 306.211C854.116 305.466 854.324 304.599 854.324 303.611ZM862.715 294.563C862.178 294.563 861.727 294.381 861.363 294.017C860.999 293.653 860.817 293.202 860.817 292.665C860.817 292.128 860.999 291.677 861.363 291.313C861.727 290.949 862.178 290.767 862.715 290.767C863.235 290.767 863.677 290.949 864.041 291.313C864.405 291.677 864.587 292.128 864.587 292.665C864.587 293.202 864.405 293.653 864.041 294.017C863.677 294.381 863.235 294.563 862.715 294.563ZM864.171 296.461V310.787H861.207V296.461H864.171ZM871.027 291.547V310.787H868.063V291.547H871.027ZM880.118 311.021C878.992 311.021 877.978 310.822 877.076 310.423C876.192 310.007 875.49 309.452 874.97 308.759C874.45 308.048 874.173 307.26 874.138 306.393H877.206C877.258 307 877.544 307.511 878.064 307.927C878.602 308.326 879.269 308.525 880.066 308.525C880.898 308.525 881.54 308.369 881.99 308.057C882.458 307.728 882.692 307.312 882.692 306.809C882.692 306.272 882.432 305.873 881.912 305.613C881.41 305.353 880.604 305.067 879.494 304.755C878.42 304.46 877.544 304.174 876.868 303.897C876.192 303.62 875.603 303.195 875.1 302.623C874.615 302.051 874.372 301.297 874.372 300.361C874.372 299.598 874.598 298.905 875.048 298.281C875.499 297.64 876.14 297.137 876.972 296.773C877.822 296.409 878.792 296.227 879.884 296.227C881.514 296.227 882.822 296.643 883.81 297.475C884.816 298.29 885.353 299.408 885.422 300.829H882.458C882.406 300.188 882.146 299.676 881.678 299.295C881.21 298.914 880.578 298.723 879.78 298.723C879 298.723 878.402 298.87 877.986 299.165C877.57 299.46 877.362 299.85 877.362 300.335C877.362 300.716 877.501 301.037 877.778 301.297C878.056 301.557 878.394 301.765 878.792 301.921C879.191 302.06 879.78 302.242 880.56 302.467C881.6 302.744 882.45 303.03 883.108 303.325C883.784 303.602 884.365 304.018 884.85 304.573C885.336 305.128 885.587 305.864 885.604 306.783C885.604 307.598 885.379 308.326 884.928 308.967C884.478 309.608 883.836 310.111 883.004 310.475C882.19 310.839 881.228 311.021 880.118 311.021Z" fill="#282D46"/>
<path opacity="0.2" d="M572.558 516.568C572.998 517.008 573.711 517.008 574.151 516.568L581.318 509.401C581.757 508.962 581.757 508.249 581.318 507.809C580.878 507.369 580.165 507.369 579.725 507.809L573.354 514.179L566.984 507.809C566.544 507.369 565.831 507.369 565.391 507.809C564.952 508.249 564.952 508.962 565.391 509.401L572.558 516.568ZM572.228 472.979L572.228 515.772L574.481 515.772L574.481 472.979L572.228 472.979Z" fill="#282D46"/>
<path opacity="0.2" d="M572.881 649.59C573.321 650.029 574.034 650.029 574.474 649.59L581.641 642.423C582.081 641.983 582.081 641.27 581.641 640.83C581.201 640.391 580.488 640.391 580.048 640.83L573.678 647.201L567.307 640.83C566.868 640.391 566.155 640.391 565.715 640.83C565.275 641.27 565.275 641.983 565.715 642.423L572.881 649.59ZM572.552 606L572.552 648.793L574.804 648.793L574.804 606L572.552 606Z" fill="#282D46"/>
<path opacity="0.2" d="M786.197 344.6V390.771H788.449V344.6H786.197ZM786.197 390.771C786.197 411.296 769.559 427.934 749.034 427.934V430.186C770.802 430.186 788.449 412.54 788.449 390.771H786.197Z" fill="#282D46"/>
<path opacity="0.2" d="M572.558 129.177C572.998 129.617 573.711 129.617 574.151 129.177L581.318 122.01C581.757 121.571 581.757 120.858 581.318 120.418C580.878 119.978 580.165 119.978 579.725 120.418L573.354 126.788L566.984 120.418C566.544 119.978 565.831 119.978 565.391 120.418C564.952 120.858 564.952 121.571 565.391 122.01L572.558 129.177ZM572.228 87.8398V128.381H574.481V87.8398H572.228Z" fill="#282D46"/>
<path opacity="0.2" d="M786.527 257.558C786.966 257.997 787.679 257.997 788.119 257.558L795.286 250.391C795.726 249.951 795.726 249.238 795.286 248.798C794.846 248.359 794.133 248.359 793.693 248.798L787.323 255.169L780.953 248.798C780.513 248.359 779.8 248.359 779.36 248.798C778.92 249.238 778.92 249.951 779.36 250.391L786.527 257.558ZM786.197 210.59V256.761H788.449V210.59H786.197ZM749.034 173.427C769.559 173.427 786.197 190.065 786.197 210.59H788.449C788.449 188.821 770.802 171.175 749.034 171.175V173.427Z" fill="#282D46"/>
<path opacity="0.2" d="M366.944 342.206C366.505 341.766 365.792 341.764 365.351 342.203L358.17 349.356C357.73 349.795 357.728 350.508 358.167 350.949C358.606 351.389 359.319 351.391 359.76 350.952L366.143 344.594L372.501 350.976C372.94 351.417 373.653 351.418 374.093 350.979C374.534 350.54 374.535 349.827 374.096 349.387L366.944 342.206ZM366.144 344.144L365.017 344.142L366.144 344.144ZM366.132 345.089L367.258 345.115L366.132 345.089ZM367.27 344.146L367.272 343.003L365.02 342.999L365.017 344.142L367.27 344.146ZM396 425.002C395.961 423.876 395.961 423.876 395.961 423.876C395.961 423.876 395.961 423.876 395.96 423.876C395.96 423.876 395.959 423.876 395.957 423.876C395.954 423.877 395.95 423.877 395.944 423.877C395.931 423.877 395.912 423.878 395.886 423.879C395.835 423.88 395.758 423.882 395.656 423.884C395.453 423.888 395.152 423.893 394.767 423.895C393.998 423.899 392.894 423.891 391.565 423.845C388.902 423.752 385.351 423.505 381.771 422.891C378.174 422.275 374.629 421.302 371.928 419.798C369.232 418.298 367.544 416.371 367.262 413.875L365.024 414.128C365.42 417.632 367.803 420.08 370.833 421.766C373.858 423.45 377.692 424.477 381.39 425.111C385.104 425.748 388.763 426.001 391.486 426.096C392.85 426.143 393.984 426.151 394.778 426.147C395.176 426.145 395.489 426.14 395.703 426.136C395.811 426.134 395.893 426.132 395.95 426.13C395.978 426.129 396 426.129 396.015 426.128C396.023 426.128 396.028 426.128 396.032 426.127C396.034 426.127 396.036 426.127 396.037 426.127C396.038 426.127 396.038 426.127 396.039 426.127C396.039 426.127 396.039 426.127 396 425.002ZM367.262 413.875C366.628 408.276 366.591 392.489 366.735 377.323C366.877 362.201 367.196 347.821 367.258 345.115L365.006 345.063C364.944 347.773 364.625 362.165 364.482 377.302C364.34 392.396 364.371 408.357 365.024 414.128L367.262 413.875ZM365.017 344.142C365.017 344.461 365.013 344.745 365.006 345.063L367.258 345.115C367.266 344.78 367.269 344.48 367.27 344.146L365.017 344.142Z" fill="#282D46"/>
<path opacity="0.2" d="M398.428 193.682C398.868 194.122 398.868 194.835 398.428 195.275L391.261 202.442C390.821 202.881 390.108 202.881 389.668 202.442C389.229 202.002 389.229 201.289 389.668 200.849L396.039 194.479L389.668 188.108C389.229 187.668 389.229 186.955 389.668 186.516C390.108 186.076 390.821 186.076 391.261 186.516L398.428 193.682ZM312.045 260.5L312.045 239.524L314.297 239.524L314.297 260.5L312.045 260.5ZM358.217 193.352L397.631 193.352L397.631 195.605L358.217 195.605L358.217 193.352ZM312.045 239.524C312.045 214.024 332.717 193.352 358.217 193.352L358.217 195.605C333.96 195.605 314.297 215.268 314.297 239.524L312.045 239.524Z" fill="#282D46"/>
<path opacity="0.2" d="M168.257 320.204C168.697 320.643 168.697 321.357 168.257 321.796L161.09 328.963C160.65 329.403 159.937 329.403 159.498 328.963C159.058 328.523 159.058 327.81 159.498 327.37L165.868 321L159.498 314.63C159.058 314.19 159.058 313.477 159.498 313.037C159.937 312.597 160.65 312.597 161.09 313.037L168.257 320.204ZM81.8739 387.021L81.8739 366.046L84.1261 366.046L84.1261 387.021L81.8739 387.021ZM128.046 319.874L167.461 319.874L167.461 322.126L128.046 322.126L128.046 319.874ZM81.8739 366.046C81.8739 340.546 102.546 319.874 128.046 319.874L128.046 322.126C103.79 322.126 84.1261 341.79 84.1261 366.046L81.8739 366.046Z" fill="#282D46"/>
<path opacity="0.2" d="M219.692 466.215C220.126 465.769 220.839 465.759 221.285 466.192L228.553 473.257C228.999 473.69 229.009 474.403 228.575 474.849C228.142 475.295 227.429 475.305 226.983 474.872L220.523 468.592L214.243 475.053C213.81 475.499 213.097 475.509 212.651 475.075C212.205 474.642 212.195 473.929 212.628 473.483L219.692 466.215ZM395.964 579.126L264.971 574.985L265.042 572.734L396.036 576.874L395.964 579.126ZM220.262 529.493L219.374 467.016L221.626 466.984L222.514 529.461L220.262 529.493ZM264.971 574.985C240.305 574.205 220.613 554.168 220.262 529.493L222.514 529.461C222.848 552.932 241.58 571.992 265.042 572.734L264.971 574.985Z" fill="#282D46"/>
<path d="M748.343 428.172C747.852 428.553 747.763 429.261 748.145 429.752L754.368 437.752C754.75 438.243 755.457 438.332 755.948 437.95C756.439 437.568 756.527 436.86 756.146 436.369L750.614 429.258L757.726 423.727C758.217 423.345 758.305 422.638 757.923 422.147C757.542 421.656 756.834 421.567 756.343 421.949L748.343 428.172ZM748.894 430.178L751.129 430.457L751.409 428.222L749.174 427.943L748.894 430.178Z" fill="#CBD4DC"/>
</svg>
