<svg width="801" height="578" viewBox="0 0 801 578" fill="none" xmlns="http://www.w3.org/2000/svg">
<rect x="243" width="353.411" height="88.3527" fill="#FFDAFF"/>
<path d="M395.965 34.1155V52.1855H393.001V44.2815H384.499V52.1855H381.535V34.1155H384.499V41.8635H393.001V34.1155H395.965ZM406.081 52.4195C404.729 52.4195 403.507 52.1162 402.415 51.5095C401.323 50.8855 400.465 50.0189 399.841 48.9095C399.217 47.7829 398.905 46.4829 398.905 45.0095C398.905 43.5535 399.226 42.2622 399.867 41.1355C400.509 40.0089 401.384 39.1422 402.493 38.5355C403.603 37.9289 404.842 37.6255 406.211 37.6255C407.581 37.6255 408.82 37.9289 409.929 38.5355C411.039 39.1422 411.914 40.0089 412.555 41.1355C413.197 42.2622 413.517 43.5535 413.517 45.0095C413.517 46.4655 413.188 47.7569 412.529 48.8835C411.871 50.0102 410.969 50.8855 409.825 51.5095C408.699 52.1162 407.451 52.4195 406.081 52.4195ZM406.081 49.8455C406.844 49.8455 407.555 49.6635 408.213 49.2995C408.889 48.9355 409.435 48.3895 409.851 47.6615C410.267 46.9335 410.475 46.0495 410.475 45.0095C410.475 43.9695 410.276 43.0942 409.877 42.3835C409.479 41.6555 408.95 41.1095 408.291 40.7455C407.633 40.3815 406.922 40.1995 406.159 40.1995C405.397 40.1995 404.686 40.3815 404.027 40.7455C403.386 41.1095 402.875 41.6555 402.493 42.3835C402.112 43.0942 401.921 43.9695 401.921 45.0095C401.921 46.5522 402.311 47.7482 403.091 48.5975C403.889 49.4295 404.885 49.8455 406.081 49.8455ZM433.789 37.6255C434.916 37.6255 435.921 37.8595 436.805 38.3275C437.707 38.7955 438.409 39.4889 438.911 40.4075C439.431 41.3262 439.691 42.4355 439.691 43.7355V52.1855H436.753V44.1775C436.753 42.8949 436.433 41.9155 435.791 41.2395C435.15 40.5462 434.275 40.1995 433.165 40.1995C432.056 40.1995 431.172 40.5462 430.513 41.2395C429.872 41.9155 429.551 42.8949 429.551 44.1775V52.1855H426.613V44.1775C426.613 42.8949 426.293 41.9155 425.651 41.2395C425.01 40.5462 424.135 40.1995 423.025 40.1995C421.916 40.1995 421.032 40.5462 420.373 41.2395C419.732 41.9155 419.411 42.8949 419.411 44.1775V52.1855H416.447V37.8595H419.411V39.4975C419.897 38.9082 420.512 38.4489 421.257 38.1195C422.003 37.7902 422.8 37.6255 423.649 37.6255C424.793 37.6255 425.816 37.8682 426.717 38.3535C427.619 38.8389 428.312 39.5409 428.797 40.4595C429.231 39.5929 429.907 38.9082 430.825 38.4055C431.744 37.8855 432.732 37.6255 433.789 37.6255ZM456.593 44.6715C456.593 45.2089 456.558 45.6942 456.489 46.1275H445.543C445.63 47.2715 446.054 48.1902 446.817 48.8835C447.58 49.5769 448.516 49.9235 449.625 49.9235C451.22 49.9235 452.346 49.2562 453.005 47.9215H456.203C455.77 49.2389 454.981 50.3222 453.837 51.1715C452.71 52.0035 451.306 52.4195 449.625 52.4195C448.256 52.4195 447.025 52.1162 445.933 51.5095C444.858 50.8855 444.009 50.0189 443.385 48.9095C442.778 47.7829 442.475 46.4829 442.475 45.0095C442.475 43.5362 442.77 42.2449 443.359 41.1355C443.966 40.0089 444.806 39.1422 445.881 38.5355C446.973 37.9289 448.221 37.6255 449.625 37.6255C450.977 37.6255 452.182 37.9202 453.239 38.5095C454.296 39.0989 455.12 39.9309 455.709 41.0055C456.298 42.0629 456.593 43.2849 456.593 44.6715ZM453.499 43.7355C453.482 42.6435 453.092 41.7682 452.329 41.1095C451.566 40.4509 450.622 40.1215 449.495 40.1215C448.472 40.1215 447.597 40.4509 446.869 41.1095C446.141 41.7509 445.708 42.6262 445.569 43.7355H453.499Z" fill="#282D46"/>
<rect x="446.891" y="133.662" width="353.411" height="88.3527" fill="#FFDAFF"/>
<path d="M544.821 167.778V170.196H540.011V185.848H537.047V170.196H532.211V167.778H544.821ZM550.786 173.602C551.22 172.874 551.792 172.31 552.502 171.912C553.23 171.496 554.088 171.288 555.076 171.288V174.356H554.322C553.161 174.356 552.277 174.65 551.67 175.24C551.081 175.829 550.786 176.852 550.786 178.308V185.848H547.822V171.522H550.786V173.602ZM556.813 178.62C556.813 177.181 557.108 175.907 557.697 174.798C558.304 173.688 559.118 172.83 560.141 172.224C561.181 171.6 562.325 171.288 563.573 171.288C564.7 171.288 565.679 171.513 566.511 171.964C567.36 172.397 568.036 172.943 568.539 173.602V171.522H571.529V185.848H568.539V183.716C568.036 184.392 567.352 184.955 566.485 185.406C565.618 185.856 564.63 186.082 563.521 186.082C562.29 186.082 561.164 185.77 560.141 185.146C559.118 184.504 558.304 183.62 557.697 182.494C557.108 181.35 556.813 180.058 556.813 178.62ZM568.539 178.672C568.539 177.684 568.331 176.826 567.915 176.098C567.516 175.37 566.988 174.815 566.329 174.434C565.67 174.052 564.96 173.862 564.197 173.862C563.434 173.862 562.724 174.052 562.065 174.434C561.406 174.798 560.869 175.344 560.453 176.072C560.054 176.782 559.855 177.632 559.855 178.62C559.855 179.608 560.054 180.474 560.453 181.22C560.869 181.965 561.406 182.537 562.065 182.936C562.741 183.317 563.452 183.508 564.197 183.508C564.96 183.508 565.67 183.317 566.329 182.936C566.988 182.554 567.516 182 567.915 181.272C568.331 180.526 568.539 179.66 568.539 178.672ZM574.434 178.672C574.434 177.198 574.729 175.907 575.318 174.798C575.925 173.671 576.757 172.804 577.814 172.198C578.871 171.591 580.085 171.288 581.454 171.288C583.187 171.288 584.617 171.704 585.744 172.536C586.888 173.35 587.659 174.52 588.058 176.046H584.86C584.6 175.335 584.184 174.78 583.612 174.382C583.04 173.983 582.321 173.784 581.454 173.784C580.241 173.784 579.27 174.217 578.542 175.084C577.831 175.933 577.476 177.129 577.476 178.672C577.476 180.214 577.831 181.419 578.542 182.286C579.27 183.152 580.241 183.586 581.454 183.586C583.17 183.586 584.305 182.832 584.86 181.324H588.058C587.642 182.78 586.862 183.941 585.718 184.808C584.574 185.657 583.153 186.082 581.454 186.082C580.085 186.082 578.871 185.778 577.814 185.172C576.757 184.548 575.925 183.681 575.318 182.572C574.729 181.445 574.434 180.145 574.434 178.672ZM596.68 178.698L603.284 185.848H599.28L593.976 179.686V185.848H591.012V166.608H593.976V177.788L599.176 171.522H603.284L596.68 178.698ZM611.174 178.62C611.174 177.181 611.469 175.907 612.058 174.798C612.665 173.688 613.48 172.83 614.502 172.224C615.542 171.6 616.695 171.288 617.96 171.288C618.896 171.288 619.815 171.496 620.716 171.912C621.635 172.31 622.363 172.848 622.9 173.524V166.608H625.89V185.848H622.9V183.69C622.415 184.383 621.739 184.955 620.872 185.406C620.023 185.856 619.044 186.082 617.934 186.082C616.686 186.082 615.542 185.77 614.502 185.146C613.48 184.504 612.665 183.62 612.058 182.494C611.469 181.35 611.174 180.058 611.174 178.62ZM622.9 178.672C622.9 177.684 622.692 176.826 622.276 176.098C621.878 175.37 621.349 174.815 620.69 174.434C620.032 174.052 619.321 173.862 618.558 173.862C617.796 173.862 617.085 174.052 616.426 174.434C615.768 174.798 615.23 175.344 614.814 176.072C614.416 176.782 614.216 177.632 614.216 178.62C614.216 179.608 614.416 180.474 614.814 181.22C615.23 181.965 615.768 182.537 616.426 182.936C617.102 183.317 617.813 183.508 618.558 183.508C619.321 183.508 620.032 183.317 620.69 182.936C621.349 182.554 621.878 182 622.276 181.272C622.692 180.526 622.9 179.66 622.9 178.672ZM642.913 178.334C642.913 178.871 642.879 179.356 642.809 179.79H631.863C631.95 180.934 632.375 181.852 633.137 182.546C633.9 183.239 634.836 183.586 635.945 183.586C637.54 183.586 638.667 182.918 639.325 181.584H642.523C642.09 182.901 641.301 183.984 640.157 184.834C639.031 185.666 637.627 186.082 635.945 186.082C634.576 186.082 633.345 185.778 632.253 185.172C631.179 184.548 630.329 183.681 629.705 182.572C629.099 181.445 628.795 180.145 628.795 178.672C628.795 177.198 629.09 175.907 629.679 174.798C630.286 173.671 631.127 172.804 632.201 172.198C633.293 171.591 634.541 171.288 635.945 171.288C637.297 171.288 638.502 171.582 639.559 172.172C640.617 172.761 641.44 173.593 642.029 174.668C642.619 175.725 642.913 176.947 642.913 178.334ZM639.819 177.398C639.802 176.306 639.412 175.43 638.649 174.772C637.887 174.113 636.942 173.784 635.815 173.784C634.793 173.784 633.917 174.113 633.189 174.772C632.461 175.413 632.028 176.288 631.889 177.398H639.819ZM648.794 166.608V185.848H645.83V166.608H648.794ZM654.194 169.624C653.656 169.624 653.206 169.442 652.842 169.078C652.478 168.714 652.296 168.263 652.296 167.726C652.296 167.188 652.478 166.738 652.842 166.374C653.206 166.01 653.656 165.828 654.194 165.828C654.714 165.828 655.156 166.01 655.52 166.374C655.884 166.738 656.066 167.188 656.066 167.726C656.066 168.263 655.884 168.714 655.52 169.078C655.156 169.442 654.714 169.624 654.194 169.624ZM655.65 171.522V185.848H652.686V171.522H655.65ZM665.079 183.196L669.135 171.522H672.281L666.821 185.848H663.285L657.851 171.522H661.023L665.079 183.196ZM687.652 178.334C687.652 178.871 687.617 179.356 687.548 179.79H676.602C676.688 180.934 677.113 181.852 677.876 182.546C678.638 183.239 679.574 183.586 680.684 183.586C682.278 183.586 683.405 182.918 684.064 181.584H687.262C686.828 182.901 686.04 183.984 684.896 184.834C683.769 185.666 682.365 186.082 680.684 186.082C679.314 186.082 678.084 185.778 676.992 185.172C675.917 184.548 675.068 183.681 674.444 182.572C673.837 181.445 673.534 180.145 673.534 178.672C673.534 177.198 673.828 175.907 674.418 174.798C675.024 173.671 675.865 172.804 676.94 172.198C678.032 171.591 679.28 171.288 680.684 171.288C682.036 171.288 683.24 171.582 684.298 172.172C685.355 172.761 686.178 173.593 686.768 174.668C687.357 175.725 687.652 176.947 687.652 178.334ZM684.558 177.398C684.54 176.306 684.15 175.43 683.388 174.772C682.625 174.113 681.68 173.784 680.554 173.784C679.531 173.784 678.656 174.113 677.928 174.772C677.2 175.413 676.766 176.288 676.628 177.398H684.558ZM693.532 173.602C693.966 172.874 694.538 172.31 695.248 171.912C695.976 171.496 696.834 171.288 697.822 171.288V174.356H697.068C695.907 174.356 695.023 174.65 694.416 175.24C693.827 175.829 693.532 176.852 693.532 178.308V185.848H690.568V171.522H693.532V173.602ZM713.443 171.522L704.655 192.582H701.587L704.499 185.614L698.857 171.522H702.159L706.189 182.442L710.375 171.522H713.443Z" fill="#282D46"/>
<rect x="446.891" y="267.324" width="353.411" height="88.3527" fill="#FFDAFF"/>
<path d="M520.115 301.44V319.51H517.151V301.44H520.115ZM531.234 304.95C532.361 304.95 533.366 305.184 534.25 305.652C535.151 306.12 535.853 306.813 536.356 307.732C536.859 308.65 537.11 309.76 537.11 311.06V319.51H534.172V311.502C534.172 310.219 533.851 309.24 533.21 308.564C532.569 307.87 531.693 307.524 530.584 307.524C529.475 307.524 528.591 307.87 527.932 308.564C527.291 309.24 526.97 310.219 526.97 311.502V319.51H524.006V305.184H526.97V306.822C527.455 306.232 528.071 305.773 528.816 305.444C529.579 305.114 530.385 304.95 531.234 304.95ZM543.855 307.29C544.357 306.631 545.042 306.076 545.909 305.626C546.775 305.175 547.755 304.95 548.847 304.95C550.095 304.95 551.23 305.262 552.253 305.886C553.293 306.492 554.107 307.35 554.697 308.46C555.286 309.569 555.581 310.843 555.581 312.282C555.581 313.72 555.286 315.012 554.697 316.156C554.107 317.282 553.293 318.166 552.253 318.808C551.23 319.432 550.095 319.744 548.847 319.744C547.755 319.744 546.784 319.527 545.935 319.094C545.085 318.643 544.392 318.088 543.855 317.43V326.322H540.891V305.184H543.855V307.29ZM552.565 312.282C552.565 311.294 552.357 310.444 551.941 309.734C551.542 309.006 551.005 308.46 550.329 308.096C549.67 307.714 548.959 307.524 548.197 307.524C547.451 307.524 546.741 307.714 546.065 308.096C545.406 308.477 544.869 309.032 544.453 309.76C544.054 310.488 543.855 311.346 543.855 312.334C543.855 313.322 544.054 314.188 544.453 314.934C544.869 315.662 545.406 316.216 546.065 316.598C546.741 316.979 547.451 317.17 548.197 317.17C548.959 317.17 549.67 316.979 550.329 316.598C551.005 316.199 551.542 315.627 551.941 314.882C552.357 314.136 552.565 313.27 552.565 312.282ZM571.486 305.184V319.51H568.522V317.82C568.054 318.409 567.438 318.877 566.676 319.224C565.93 319.553 565.133 319.718 564.284 319.718C563.157 319.718 562.143 319.484 561.242 319.016C560.358 318.548 559.656 317.854 559.136 316.936C558.633 316.017 558.382 314.908 558.382 313.608V305.184H561.32V313.166C561.32 314.448 561.64 315.436 562.282 316.13C562.923 316.806 563.798 317.144 564.908 317.144C566.017 317.144 566.892 316.806 567.534 316.13C568.192 315.436 568.522 314.448 568.522 313.166V305.184H571.486ZM578.855 307.602V315.532C578.855 316.069 578.976 316.459 579.219 316.702C579.479 316.927 579.912 317.04 580.519 317.04H582.339V319.51H579.999C578.664 319.51 577.641 319.198 576.931 318.574C576.22 317.95 575.865 316.936 575.865 315.532V307.602H574.175V305.184H575.865V301.622H578.855V305.184H582.339V307.602H578.855ZM595.282 307.602V315.532C595.282 316.069 595.404 316.459 595.646 316.702C595.906 316.927 596.34 317.04 596.946 317.04H598.766V319.51H596.426C595.092 319.51 594.069 319.198 593.358 318.574C592.648 317.95 592.292 316.936 592.292 315.532V307.602H590.602V305.184H592.292V301.622H595.282V305.184H598.766V307.602H595.282ZM604.462 307.264C604.895 306.536 605.467 305.972 606.178 305.574C606.906 305.158 607.764 304.95 608.752 304.95V308.018H607.998C606.837 308.018 605.953 308.312 605.346 308.902C604.757 309.491 604.462 310.514 604.462 311.97V319.51H601.498V305.184H604.462V307.264ZM610.489 312.282C610.489 310.843 610.783 309.569 611.373 308.46C611.979 307.35 612.794 306.492 613.817 305.886C614.857 305.262 616.001 304.95 617.249 304.95C618.375 304.95 619.355 305.175 620.187 305.626C621.036 306.059 621.712 306.605 622.215 307.264V305.184H625.205V319.51H622.215V317.378C621.712 318.054 621.027 318.617 620.161 319.068C619.294 319.518 618.306 319.744 617.197 319.744C615.966 319.744 614.839 319.432 613.817 318.808C612.794 318.166 611.979 317.282 611.373 316.156C610.783 315.012 610.489 313.72 610.489 312.282ZM622.215 312.334C622.215 311.346 622.007 310.488 621.591 309.76C621.192 309.032 620.663 308.477 620.005 308.096C619.346 307.714 618.635 307.524 617.873 307.524C617.11 307.524 616.399 307.714 615.741 308.096C615.082 308.46 614.545 309.006 614.129 309.734C613.73 310.444 613.531 311.294 613.531 312.282C613.531 313.27 613.73 314.136 614.129 314.882C614.545 315.627 615.082 316.199 615.741 316.598C616.417 316.979 617.127 317.17 617.873 317.17C618.635 317.17 619.346 316.979 620.005 316.598C620.663 316.216 621.192 315.662 621.591 314.934C622.007 314.188 622.215 313.322 622.215 312.334ZM628.11 312.334C628.11 310.86 628.404 309.569 628.994 308.46C629.6 307.333 630.432 306.466 631.49 305.86C632.547 305.253 633.76 304.95 635.13 304.95C636.863 304.95 638.293 305.366 639.42 306.198C640.564 307.012 641.335 308.182 641.734 309.708H638.536C638.276 308.997 637.86 308.442 637.288 308.044C636.716 307.645 635.996 307.446 635.13 307.446C633.916 307.446 632.946 307.879 632.218 308.746C631.507 309.595 631.152 310.791 631.152 312.334C631.152 313.876 631.507 315.081 632.218 315.948C632.946 316.814 633.916 317.248 635.13 317.248C636.846 317.248 637.981 316.494 638.536 314.986H641.734C641.318 316.442 640.538 317.603 639.394 318.47C638.25 319.319 636.828 319.744 635.13 319.744C633.76 319.744 632.547 319.44 631.49 318.834C630.432 318.21 629.6 317.343 628.994 316.234C628.404 315.107 628.11 313.807 628.11 312.334ZM650.356 312.36L656.96 319.51H652.956L647.652 313.348V319.51H644.688V300.27H647.652V311.45L652.852 305.184H656.96L650.356 312.36ZM660.592 303.286C660.055 303.286 659.604 303.104 659.24 302.74C658.876 302.376 658.694 301.925 658.694 301.388C658.694 300.85 658.876 300.4 659.24 300.036C659.604 299.672 660.055 299.49 660.592 299.49C661.112 299.49 661.554 299.672 661.918 300.036C662.282 300.4 662.464 300.85 662.464 301.388C662.464 301.925 662.282 302.376 661.918 302.74C661.554 303.104 661.112 303.286 660.592 303.286ZM662.048 305.184V319.51H659.084V305.184H662.048ZM673.168 304.95C674.294 304.95 675.3 305.184 676.184 305.652C677.085 306.12 677.787 306.813 678.29 307.732C678.792 308.65 679.044 309.76 679.044 311.06V319.51H676.106V311.502C676.106 310.219 675.785 309.24 675.144 308.564C674.502 307.87 673.627 307.524 672.518 307.524C671.408 307.524 670.524 307.87 669.866 308.564C669.224 309.24 668.904 310.219 668.904 311.502V319.51H665.94V305.184H668.904V306.822C669.389 306.232 670.004 305.773 670.75 305.444C671.512 305.114 672.318 304.95 673.168 304.95ZM688.596 304.95C689.706 304.95 690.685 305.175 691.534 305.626C692.401 306.059 693.077 306.605 693.562 307.264V305.184H696.552V319.744C696.552 321.061 696.275 322.231 695.72 323.254C695.166 324.294 694.36 325.108 693.302 325.698C692.262 326.287 691.014 326.582 689.558 326.582C687.617 326.582 686.005 326.122 684.722 325.204C683.44 324.302 682.712 323.072 682.538 321.512H685.476C685.702 322.257 686.178 322.855 686.906 323.306C687.652 323.774 688.536 324.008 689.558 324.008C690.754 324.008 691.716 323.644 692.444 322.916C693.19 322.188 693.562 321.13 693.562 319.744V317.352C693.06 318.028 692.375 318.6 691.508 319.068C690.659 319.518 689.688 319.744 688.596 319.744C687.348 319.744 686.204 319.432 685.164 318.808C684.142 318.166 683.327 317.282 682.72 316.156C682.131 315.012 681.836 313.72 681.836 312.282C681.836 310.843 682.131 309.569 682.72 308.46C683.327 307.35 684.142 306.492 685.164 305.886C686.204 305.262 687.348 304.95 688.596 304.95ZM693.562 312.334C693.562 311.346 693.354 310.488 692.938 309.76C692.54 309.032 692.011 308.477 691.352 308.096C690.694 307.714 689.983 307.524 689.22 307.524C688.458 307.524 687.747 307.714 687.088 308.096C686.43 308.46 685.892 309.006 685.476 309.734C685.078 310.444 684.878 311.294 684.878 312.282C684.878 313.27 685.078 314.136 685.476 314.882C685.892 315.627 686.43 316.199 687.088 316.598C687.764 316.979 688.475 317.17 689.22 317.17C689.983 317.17 690.694 316.979 691.352 316.598C692.011 316.216 692.54 315.662 692.938 314.934C693.354 314.188 693.562 313.322 693.562 312.334ZM708.707 303.286C708.17 303.286 707.719 303.104 707.355 302.74C706.991 302.376 706.809 301.925 706.809 301.388C706.809 300.85 706.991 300.4 707.355 300.036C707.719 299.672 708.17 299.49 708.707 299.49C709.227 299.49 709.669 299.672 710.033 300.036C710.397 300.4 710.579 300.85 710.579 301.388C710.579 301.925 710.397 302.376 710.033 302.74C709.669 303.104 709.227 303.286 708.707 303.286ZM710.163 305.184V319.51H707.199V305.184H710.163ZM713.067 312.282C713.067 310.843 713.361 309.569 713.951 308.46C714.557 307.35 715.372 306.492 716.395 305.886C717.435 305.262 718.587 304.95 719.853 304.95C720.789 304.95 721.707 305.158 722.609 305.574C723.527 305.972 724.255 306.51 724.793 307.186V300.27H727.783V319.51H724.793V317.352C724.307 318.045 723.631 318.617 722.765 319.068C721.915 319.518 720.936 319.744 719.827 319.744C718.579 319.744 717.435 319.432 716.395 318.808C715.372 318.166 714.557 317.282 713.951 316.156C713.361 315.012 713.067 313.72 713.067 312.282ZM724.793 312.334C724.793 311.346 724.585 310.488 724.169 309.76C723.77 309.032 723.241 308.477 722.583 308.096C721.924 307.714 721.213 307.524 720.451 307.524C719.688 307.524 718.977 307.714 718.319 308.096C717.66 308.46 717.123 309.006 716.707 309.734C716.308 310.444 716.109 311.294 716.109 312.282C716.109 313.27 716.308 314.136 716.707 314.882C717.123 315.627 717.66 316.199 718.319 316.598C718.995 316.979 719.705 317.17 720.451 317.17C721.213 317.17 721.924 316.979 722.583 316.598C723.241 316.216 723.77 315.662 724.169 314.934C724.585 314.188 724.793 313.322 724.793 312.334Z" fill="#282D46"/>
<rect x="446.891" y="400.986" width="353.411" height="88.3527" fill="#FFDAFF"/>
<path d="M545.704 444.098C545.704 442.33 546.112 440.744 546.926 439.34C547.758 437.936 548.876 436.844 550.28 436.064C551.702 435.267 553.253 434.868 554.934 434.868C556.858 434.868 558.566 435.345 560.056 436.298C561.564 437.234 562.656 438.569 563.332 440.302H559.77C559.302 439.349 558.652 438.638 557.82 438.17C556.988 437.702 556.026 437.468 554.934 437.468C553.738 437.468 552.672 437.737 551.736 438.274C550.8 438.811 550.064 439.583 549.526 440.588C549.006 441.593 548.746 442.763 548.746 444.098C548.746 445.433 549.006 446.603 549.526 447.608C550.064 448.613 550.8 449.393 551.736 449.948C552.672 450.485 553.738 450.754 554.934 450.754C556.026 450.754 556.988 450.52 557.82 450.052C558.652 449.584 559.302 448.873 559.77 447.92H563.332C562.656 449.653 561.564 450.988 560.056 451.924C558.566 452.86 556.858 453.328 554.934 453.328C553.236 453.328 551.684 452.938 550.28 452.158C548.876 451.361 547.758 450.26 546.926 448.856C546.112 447.452 545.704 445.866 545.704 444.098ZM565.814 445.944C565.814 444.505 566.109 443.231 566.698 442.122C567.305 441.013 568.119 440.155 569.142 439.548C570.182 438.924 571.326 438.612 572.574 438.612C573.701 438.612 574.68 438.837 575.512 439.288C576.361 439.721 577.037 440.267 577.54 440.926V438.846H580.53V453.172H577.54V451.04C577.037 451.716 576.353 452.279 575.486 452.73C574.619 453.181 573.631 453.406 572.522 453.406C571.291 453.406 570.165 453.094 569.142 452.47C568.119 451.829 567.305 450.945 566.698 449.818C566.109 448.674 565.814 447.383 565.814 445.944ZM577.54 445.996C577.54 445.008 577.332 444.15 576.916 443.422C576.517 442.694 575.989 442.139 575.33 441.758C574.671 441.377 573.961 441.186 573.198 441.186C572.435 441.186 571.725 441.377 571.066 441.758C570.407 442.122 569.87 442.668 569.454 443.396C569.055 444.107 568.856 444.956 568.856 445.944C568.856 446.932 569.055 447.799 569.454 448.544C569.87 449.289 570.407 449.861 571.066 450.26C571.742 450.641 572.453 450.832 573.198 450.832C573.961 450.832 574.671 450.641 575.33 450.26C575.989 449.879 576.517 449.324 576.916 448.596C577.332 447.851 577.54 446.984 577.54 445.996ZM591.651 438.612C592.778 438.612 593.783 438.846 594.667 439.314C595.568 439.782 596.27 440.475 596.773 441.394C597.276 442.313 597.527 443.422 597.527 444.722V453.172H594.589V445.164C594.589 443.881 594.268 442.902 593.627 442.226C592.986 441.533 592.11 441.186 591.001 441.186C589.892 441.186 589.008 441.533 588.349 442.226C587.708 442.902 587.387 443.881 587.387 445.164V453.172H584.423V438.846H587.387V440.484C587.872 439.895 588.488 439.435 589.233 439.106C589.996 438.777 590.802 438.612 591.651 438.612ZM600.32 445.996C600.32 444.523 600.614 443.231 601.204 442.122C601.81 440.995 602.642 440.129 603.7 439.522C604.757 438.915 605.97 438.612 607.34 438.612C609.073 438.612 610.503 439.028 611.63 439.86C612.774 440.675 613.545 441.845 613.944 443.37H610.746C610.486 442.659 610.07 442.105 609.498 441.706C608.926 441.307 608.206 441.108 607.34 441.108C606.126 441.108 605.156 441.541 604.428 442.408C603.717 443.257 603.362 444.453 603.362 445.996C603.362 447.539 603.717 448.743 604.428 449.61C605.156 450.477 606.126 450.91 607.34 450.91C609.056 450.91 610.191 450.156 610.746 448.648H613.944C613.528 450.104 612.748 451.265 611.604 452.132C610.46 452.981 609.038 453.406 607.34 453.406C605.97 453.406 604.757 453.103 603.7 452.496C602.642 451.872 601.81 451.005 601.204 449.896C600.614 448.769 600.32 447.469 600.32 445.996ZM630.028 445.658C630.028 446.195 629.993 446.681 629.924 447.114H618.978C619.064 448.258 619.489 449.177 620.252 449.87C621.014 450.563 621.95 450.91 623.06 450.91C624.654 450.91 625.781 450.243 626.44 448.908H629.638C629.204 450.225 628.416 451.309 627.272 452.158C626.145 452.99 624.741 453.406 623.06 453.406C621.69 453.406 620.46 453.103 619.368 452.496C618.293 451.872 617.444 451.005 616.82 449.896C616.213 448.769 615.91 447.469 615.91 445.996C615.91 444.523 616.204 443.231 616.794 442.122C617.4 440.995 618.241 440.129 619.316 439.522C620.408 438.915 621.656 438.612 623.06 438.612C624.412 438.612 625.616 438.907 626.674 439.496C627.731 440.085 628.554 440.917 629.144 441.992C629.733 443.049 630.028 444.271 630.028 445.658ZM626.934 444.722C626.916 443.63 626.526 442.755 625.764 442.096C625.001 441.437 624.056 441.108 622.93 441.108C621.907 441.108 621.032 441.437 620.304 442.096C619.576 442.737 619.142 443.613 619.004 444.722H626.934ZM635.908 433.932V453.172H632.944V433.932H635.908ZM650.012 441.264V449.194C650.012 449.731 650.133 450.121 650.376 450.364C650.636 450.589 651.069 450.702 651.676 450.702H653.496V453.172H651.156C649.821 453.172 648.798 452.86 648.088 452.236C647.377 451.612 647.022 450.598 647.022 449.194V441.264H645.332V438.846H647.022V435.284H650.012V438.846H653.496V441.264H650.012ZM655.24 445.944C655.24 444.505 655.534 443.231 656.124 442.122C656.73 441.013 657.545 440.155 658.568 439.548C659.608 438.924 660.752 438.612 662 438.612C663.126 438.612 664.106 438.837 664.938 439.288C665.787 439.721 666.463 440.267 666.966 440.926V438.846H669.956V453.172H666.966V451.04C666.463 451.716 665.778 452.279 664.912 452.73C664.045 453.181 663.057 453.406 661.948 453.406C660.717 453.406 659.59 453.094 658.568 452.47C657.545 451.829 656.73 450.945 656.124 449.818C655.534 448.674 655.24 447.383 655.24 445.944ZM666.966 445.996C666.966 445.008 666.758 444.15 666.342 443.422C665.943 442.694 665.414 442.139 664.756 441.758C664.097 441.377 663.386 441.186 662.624 441.186C661.861 441.186 661.15 441.377 660.492 441.758C659.833 442.122 659.296 442.668 658.88 443.396C658.481 444.107 658.282 444.956 658.282 445.944C658.282 446.932 658.481 447.799 658.88 448.544C659.296 449.289 659.833 449.861 660.492 450.26C661.168 450.641 661.878 450.832 662.624 450.832C663.386 450.832 664.097 450.641 664.756 450.26C665.414 449.879 665.943 449.324 666.342 448.596C666.758 447.851 666.966 446.984 666.966 445.996ZM679.049 453.406C677.922 453.406 676.908 453.207 676.007 452.808C675.123 452.392 674.421 451.837 673.901 451.144C673.381 450.433 673.103 449.645 673.069 448.778H676.137C676.189 449.385 676.475 449.896 676.995 450.312C677.532 450.711 678.199 450.91 678.997 450.91C679.829 450.91 680.47 450.754 680.921 450.442C681.389 450.113 681.623 449.697 681.623 449.194C681.623 448.657 681.363 448.258 680.843 447.998C680.34 447.738 679.534 447.452 678.425 447.14C677.35 446.845 676.475 446.559 675.799 446.282C675.123 446.005 674.533 445.58 674.031 445.008C673.545 444.436 673.303 443.682 673.303 442.746C673.303 441.983 673.528 441.29 673.979 440.666C674.429 440.025 675.071 439.522 675.903 439.158C676.752 438.794 677.723 438.612 678.815 438.612C680.444 438.612 681.753 439.028 682.741 439.86C683.746 440.675 684.283 441.793 684.353 443.214H681.389C681.337 442.573 681.077 442.061 680.609 441.68C680.141 441.299 679.508 441.108 678.711 441.108C677.931 441.108 677.333 441.255 676.917 441.55C676.501 441.845 676.293 442.235 676.293 442.72C676.293 443.101 676.431 443.422 676.709 443.682C676.986 443.942 677.324 444.15 677.723 444.306C678.121 444.445 678.711 444.627 679.491 444.852C680.531 445.129 681.38 445.415 682.039 445.71C682.715 445.987 683.295 446.403 683.781 446.958C684.266 447.513 684.517 448.249 684.535 449.168C684.535 449.983 684.309 450.711 683.859 451.352C683.408 451.993 682.767 452.496 681.935 452.86C681.12 453.224 680.158 453.406 679.049 453.406ZM693.405 446.022L700.009 453.172H696.005L690.701 447.01V453.172H687.737V433.932H690.701V445.112L695.901 438.846H700.009L693.405 446.022Z" fill="#282D46"/>
<path opacity="0.2" d="M622.795 134.462C623.237 134.905 623.954 134.905 624.397 134.462L631.605 127.254C632.048 126.811 632.048 126.094 631.605 125.652C631.163 125.209 630.446 125.209 630.003 125.652L623.596 132.059L617.188 125.652C616.746 125.209 616.028 125.209 615.586 125.652C615.144 126.094 615.144 126.811 615.586 127.254L622.795 134.462ZM622.463 71.3612V133.661H624.728V71.3612H622.463ZM596.41 45.3085C610.799 45.3085 622.463 56.9727 622.463 71.3612H624.728C624.728 55.7215 612.05 43.0431 596.41 43.0431V45.3085Z" fill="#282D46"/>
<path opacity="0.2" d="M622.797 268.124C623.239 268.566 623.956 268.566 624.399 268.124L631.607 260.915C632.05 260.473 632.05 259.756 631.607 259.313C631.165 258.871 630.448 258.871 630.005 259.313L623.598 265.721L617.19 259.313C616.748 258.871 616.03 258.871 615.588 259.313C615.146 259.756 615.146 260.473 615.588 260.915L622.797 268.124ZM622.465 222.014V267.323H624.73V222.014H622.465Z" fill="#282D46"/>
<path opacity="0.2" d="M622.797 401.786C623.239 402.228 623.956 402.228 624.399 401.786L631.607 394.577C632.05 394.135 632.05 393.418 631.607 392.975C631.165 392.533 630.448 392.533 630.005 392.975L623.598 399.383L617.19 392.975C616.748 392.533 616.03 392.533 615.588 392.975C615.146 393.418 615.146 394.135 615.588 394.577L622.797 401.786ZM622.465 355.676V400.985H624.73V355.676H622.465Z" fill="#282D46"/>
<path d="M361.959 112.458L354.301 104.266L346.11 111.924" stroke="#CBD4DC" stroke-width="2.26545"/>
<path d="M445.109 464L372.233 464C362.224 464 354.109 455.886 354.109 445.876L354.109 108" stroke="#CBD4DC" stroke-width="2.26545"/>
<path d="M1.00011 561.16L8.9292 569.089L1.00011 577.018" stroke="#CBD4DC" stroke-width="2.26545"/>
</svg>
