<svg width="762" height="623" viewBox="0 0 762 623" fill="none" xmlns="http://www.w3.org/2000/svg">
<rect x="203.891" width="353.411" height="88.3527" fill="#FFDAFF"/>
<path d="M283.513 49.7935H289.623V52.1855H280.549V34.1155H283.513V49.7935ZM298.316 52.4195C296.964 52.4195 295.742 52.1162 294.65 51.5095C293.558 50.8855 292.7 50.0189 292.076 48.9095C291.452 47.7829 291.14 46.4829 291.14 45.0095C291.14 43.5535 291.46 42.2622 292.102 41.1355C292.743 40.0089 293.618 39.1422 294.728 38.5355C295.837 37.9289 297.076 37.6255 298.446 37.6255C299.815 37.6255 301.054 37.9289 302.164 38.5355C303.273 39.1422 304.148 40.0089 304.79 41.1355C305.431 42.2622 305.752 43.5535 305.752 45.0095C305.752 46.4655 305.422 47.7569 304.764 48.8835C304.105 50.0102 303.204 50.8855 302.06 51.5095C300.933 52.1162 299.685 52.4195 298.316 52.4195ZM298.316 49.8455C299.078 49.8455 299.789 49.6635 300.448 49.2995C301.124 48.9355 301.67 48.3895 302.086 47.6615C302.502 46.9335 302.71 46.0495 302.71 45.0095C302.71 43.9695 302.51 43.0942 302.112 42.3835C301.713 41.6555 301.184 41.1095 300.526 40.7455C299.867 40.3815 299.156 40.1995 298.394 40.1995C297.631 40.1995 296.92 40.3815 296.262 40.7455C295.62 41.1095 295.109 41.6555 294.728 42.3835C294.346 43.0942 294.156 43.9695 294.156 45.0095C294.156 46.5522 294.546 47.7482 295.326 48.5975C296.123 49.4295 297.12 49.8455 298.316 49.8455ZM307.694 44.9575C307.694 43.5189 307.988 42.2449 308.578 41.1355C309.184 40.0262 309.999 39.1682 311.022 38.5615C312.062 37.9375 313.206 37.6255 314.454 37.6255C315.58 37.6255 316.56 37.8509 317.392 38.3015C318.241 38.7349 318.917 39.2809 319.42 39.9395V37.8595H322.41V52.1855H319.42V50.0535C318.917 50.7295 318.232 51.2929 317.366 51.7435C316.499 52.1942 315.511 52.4195 314.402 52.4195C313.171 52.4195 312.044 52.1075 311.022 51.4835C309.999 50.8422 309.184 49.9582 308.578 48.8315C307.988 47.6875 307.694 46.3962 307.694 44.9575ZM319.42 45.0095C319.42 44.0215 319.212 43.1635 318.796 42.4355C318.397 41.7075 317.868 41.1529 317.21 40.7715C316.551 40.3902 315.84 40.1995 315.078 40.1995C314.315 40.1995 313.604 40.3902 312.946 40.7715C312.287 41.1355 311.75 41.6815 311.334 42.4095C310.935 43.1202 310.736 43.9695 310.736 44.9575C310.736 45.9455 310.935 46.8122 311.334 47.5575C311.75 48.3029 312.287 48.8749 312.946 49.2735C313.622 49.6549 314.332 49.8455 315.078 49.8455C315.84 49.8455 316.551 49.6549 317.21 49.2735C317.868 48.8922 318.397 48.3375 318.796 47.6095C319.212 46.8642 319.42 45.9975 319.42 45.0095ZM325.315 44.9575C325.315 43.5189 325.61 42.2449 326.199 41.1355C326.806 40.0262 327.62 39.1682 328.643 38.5615C329.683 37.9375 330.836 37.6255 332.101 37.6255C333.037 37.6255 333.956 37.8335 334.857 38.2495C335.776 38.6482 336.504 39.1855 337.041 39.8615V32.9455H340.031V52.1855H337.041V50.0275C336.556 50.7209 335.88 51.2929 335.013 51.7435C334.164 52.1942 333.184 52.4195 332.075 52.4195C330.827 52.4195 329.683 52.1075 328.643 51.4835C327.62 50.8422 326.806 49.9582 326.199 48.8315C325.61 47.6875 325.315 46.3962 325.315 44.9575ZM337.041 45.0095C337.041 44.0215 336.833 43.1635 336.417 42.4355C336.018 41.7075 335.49 41.1529 334.831 40.7715C334.172 40.3902 333.462 40.1995 332.699 40.1995C331.936 40.1995 331.226 40.3902 330.567 40.7715C329.908 41.1355 329.371 41.6815 328.955 42.4095C328.556 43.1202 328.357 43.9695 328.357 44.9575C328.357 45.9455 328.556 46.8122 328.955 47.5575C329.371 48.3029 329.908 48.8749 330.567 49.2735C331.243 49.6549 331.954 49.8455 332.699 49.8455C333.462 49.8455 334.172 49.6549 334.831 49.2735C335.49 48.8922 336.018 48.3375 336.417 47.6095C336.833 46.8642 337.041 45.9975 337.041 45.0095ZM345.432 35.9615C344.895 35.9615 344.444 35.7795 344.08 35.4155C343.716 35.0515 343.534 34.6009 343.534 34.0635C343.534 33.5262 343.716 33.0755 344.08 32.7115C344.444 32.3475 344.895 32.1655 345.432 32.1655C345.952 32.1655 346.394 32.3475 346.758 32.7115C347.122 33.0755 347.304 33.5262 347.304 34.0635C347.304 34.6009 347.122 35.0515 346.758 35.4155C346.394 35.7795 345.952 35.9615 345.432 35.9615ZM346.888 37.8595V52.1855H343.924V37.8595H346.888ZM358.007 37.6255C359.134 37.6255 360.139 37.8595 361.023 38.3275C361.925 38.7955 362.627 39.4889 363.129 40.4075C363.632 41.3262 363.883 42.4355 363.883 43.7355V52.1855H360.945V44.1775C360.945 42.8949 360.625 41.9155 359.983 41.2395C359.342 40.5462 358.467 40.1995 357.357 40.1995C356.248 40.1995 355.364 40.5462 354.705 41.2395C354.064 41.9155 353.743 42.8949 353.743 44.1775V52.1855H350.779V37.8595H353.743V39.4975C354.229 38.9082 354.844 38.4489 355.589 38.1195C356.352 37.7902 357.158 37.6255 358.007 37.6255ZM373.436 37.6255C374.546 37.6255 375.525 37.8509 376.374 38.3015C377.241 38.7349 377.917 39.2809 378.402 39.9395V37.8595H381.392V52.4195C381.392 53.7369 381.115 54.9069 380.56 55.9295C380.006 56.9695 379.2 57.7842 378.142 58.3735C377.102 58.9629 375.854 59.2575 374.398 59.2575C372.457 59.2575 370.845 58.7982 369.562 57.8795C368.28 56.9782 367.552 55.7475 367.378 54.1875H370.316C370.542 54.9329 371.018 55.5309 371.746 55.9815C372.492 56.4495 373.376 56.6835 374.398 56.6835C375.594 56.6835 376.556 56.3195 377.284 55.5915C378.03 54.8635 378.402 53.8062 378.402 52.4195V50.0275C377.9 50.7035 377.215 51.2755 376.348 51.7435C375.499 52.1942 374.528 52.4195 373.436 52.4195C372.188 52.4195 371.044 52.1075 370.004 51.4835C368.982 50.8422 368.167 49.9582 367.56 48.8315C366.971 47.6875 366.676 46.3962 366.676 44.9575C366.676 43.5189 366.971 42.2449 367.56 41.1355C368.167 40.0262 368.982 39.1682 370.004 38.5615C371.044 37.9375 372.188 37.6255 373.436 37.6255ZM378.402 45.0095C378.402 44.0215 378.194 43.1635 377.778 42.4355C377.38 41.7075 376.851 41.1529 376.192 40.7715C375.534 40.3902 374.823 40.1995 374.06 40.1995C373.298 40.1995 372.587 40.3902 371.928 40.7715C371.27 41.1355 370.732 41.6815 370.316 42.4095C369.918 43.1202 369.718 43.9695 369.718 44.9575C369.718 45.9455 369.918 46.8122 370.316 47.5575C370.732 48.3029 371.27 48.8749 371.928 49.2735C372.604 49.6549 373.315 49.8455 374.06 49.8455C374.823 49.8455 375.534 49.6549 376.192 49.2735C376.851 48.8922 377.38 48.3375 377.778 47.6095C378.194 46.8642 378.402 45.9975 378.402 45.0095ZM397.993 52.3675C396.78 52.3675 395.688 52.1595 394.717 51.7435C393.747 51.3102 392.984 50.7035 392.429 49.9235C391.875 49.1435 391.597 48.2335 391.597 47.1935H394.769C394.839 47.9735 395.142 48.6149 395.679 49.1175C396.234 49.6202 397.005 49.8715 397.993 49.8715C399.016 49.8715 399.813 49.6289 400.385 49.1435C400.957 48.6409 401.243 47.9995 401.243 47.2195C401.243 46.6129 401.061 46.1189 400.697 45.7375C400.351 45.3562 399.909 45.0615 399.371 44.8535C398.851 44.6455 398.123 44.4202 397.187 44.1775C396.009 43.8655 395.047 43.5535 394.301 43.2415C393.573 42.9122 392.949 42.4095 392.429 41.7335C391.909 41.0575 391.649 40.1562 391.649 39.0295C391.649 37.9895 391.909 37.0795 392.429 36.2995C392.949 35.5195 393.677 34.9215 394.613 34.5055C395.549 34.0895 396.633 33.8815 397.863 33.8815C399.614 33.8815 401.044 34.3235 402.153 35.2075C403.28 36.0742 403.904 37.2702 404.025 38.7955H400.749C400.697 38.1369 400.385 37.5735 399.813 37.1055C399.241 36.6375 398.487 36.4035 397.551 36.4035C396.702 36.4035 396.009 36.6202 395.471 37.0535C394.934 37.4869 394.665 38.1109 394.665 38.9255C394.665 39.4802 394.83 39.9395 395.159 40.3035C395.506 40.6502 395.939 40.9275 396.459 41.1355C396.979 41.3435 397.69 41.5689 398.591 41.8115C399.787 42.1409 400.758 42.4702 401.503 42.7995C402.266 43.1289 402.907 43.6402 403.427 44.3335C403.965 45.0095 404.233 45.9195 404.233 47.0635C404.233 47.9822 403.982 48.8489 403.479 49.6635C402.994 50.4782 402.275 51.1369 401.321 51.6395C400.385 52.1249 399.276 52.3675 397.993 52.3675ZM406.743 45.0095C406.743 43.5362 407.037 42.2449 407.627 41.1355C408.233 40.0089 409.065 39.1422 410.123 38.5355C411.18 37.9289 412.393 37.6255 413.763 37.6255C415.496 37.6255 416.926 38.0415 418.053 38.8735C419.197 39.6882 419.968 40.8582 420.367 42.3835H417.169C416.909 41.6729 416.493 41.1182 415.921 40.7195C415.349 40.3209 414.629 40.1215 413.763 40.1215C412.549 40.1215 411.579 40.5549 410.851 41.4215C410.14 42.2709 409.785 43.4669 409.785 45.0095C409.785 46.5522 410.14 47.7569 410.851 48.6235C411.579 49.4902 412.549 49.9235 413.763 49.9235C415.479 49.9235 416.614 49.1695 417.169 47.6615H420.367C419.951 49.1175 419.171 50.2789 418.027 51.1455C416.883 51.9949 415.461 52.4195 413.763 52.4195C412.393 52.4195 411.18 52.1162 410.123 51.5095C409.065 50.8855 408.233 50.0189 407.627 48.9095C407.037 47.7829 406.743 46.4829 406.743 45.0095ZM426.284 39.9395C426.718 39.2115 427.29 38.6482 428 38.2495C428.728 37.8335 429.586 37.6255 430.574 37.6255V40.6935H429.82C428.659 40.6935 427.775 40.9882 427.168 41.5775C426.579 42.1669 426.284 43.1895 426.284 44.6455V52.1855H423.32V37.8595H426.284V39.9395ZM446.429 44.6715C446.429 45.2089 446.394 45.6942 446.325 46.1275H435.379C435.466 47.2715 435.89 48.1902 436.653 48.8835C437.416 49.5769 438.352 49.9235 439.461 49.9235C441.056 49.9235 442.182 49.2562 442.841 47.9215H446.039C445.606 49.2389 444.817 50.3222 443.673 51.1715C442.546 52.0035 441.142 52.4195 439.461 52.4195C438.092 52.4195 436.861 52.1162 435.769 51.5095C434.694 50.8855 433.845 50.0189 433.221 48.9095C432.614 47.7829 432.311 46.4829 432.311 45.0095C432.311 43.5362 432.606 42.2449 433.195 41.1355C433.802 40.0089 434.642 39.1422 435.717 38.5355C436.809 37.9289 438.057 37.6255 439.461 37.6255C440.813 37.6255 442.018 37.9202 443.075 38.5095C444.132 39.0989 444.956 39.9309 445.545 41.0055C446.134 42.0629 446.429 43.2849 446.429 44.6715ZM443.335 43.7355C443.318 42.6435 442.928 41.7682 442.165 41.1095C441.402 40.4509 440.458 40.1215 439.331 40.1215C438.308 40.1215 437.433 40.4509 436.705 41.1095C435.977 41.7509 435.544 42.6262 435.405 43.7355H443.335ZM462.476 44.6715C462.476 45.2089 462.441 45.6942 462.372 46.1275H451.426C451.512 47.2715 451.937 48.1902 452.7 48.8835C453.462 49.5769 454.398 49.9235 455.508 49.9235C457.102 49.9235 458.229 49.2562 458.888 47.9215H462.086C461.652 49.2389 460.864 50.3222 459.72 51.1715C458.593 52.0035 457.189 52.4195 455.508 52.4195C454.138 52.4195 452.908 52.1162 451.816 51.5095C450.741 50.8855 449.892 50.0189 449.268 48.9095C448.661 47.7829 448.358 46.4829 448.358 45.0095C448.358 43.5362 448.652 42.2449 449.242 41.1355C449.848 40.0089 450.689 39.1422 451.764 38.5355C452.856 37.9289 454.104 37.6255 455.508 37.6255C456.86 37.6255 458.064 37.9202 459.122 38.5095C460.179 39.0989 461.002 39.9309 461.592 41.0055C462.181 42.0629 462.476 43.2849 462.476 44.6715ZM459.382 43.7355C459.364 42.6435 458.974 41.7682 458.212 41.1095C457.449 40.4509 456.504 40.1215 455.378 40.1215C454.355 40.1215 453.48 40.4509 452.752 41.1095C452.024 41.7509 451.59 42.6262 451.452 43.7355H459.382ZM472.621 37.6255C473.747 37.6255 474.753 37.8595 475.637 38.3275C476.538 38.7955 477.24 39.4889 477.743 40.4075C478.245 41.3262 478.497 42.4355 478.497 43.7355V52.1855H475.559V44.1775C475.559 42.8949 475.238 41.9155 474.597 41.2395C473.955 40.5462 473.08 40.1995 471.971 40.1995C470.861 40.1995 469.977 40.5462 469.319 41.2395C468.677 41.9155 468.357 42.8949 468.357 44.1775V52.1855H465.393V37.8595H468.357V39.4975C468.842 38.9082 469.457 38.4489 470.203 38.1195C470.965 37.7902 471.771 37.6255 472.621 37.6255Z" fill="#282D46"/>
<rect x="203.891" y="534.646" width="353.411" height="88.3527" fill="#FFDAFF"/>
<path d="M356.856 568.762V586.832H353.892V578.928H345.39V586.832H342.426V568.762H345.39V576.51H353.892V568.762H356.856ZM366.972 587.066C365.62 587.066 364.398 586.763 363.306 586.156C362.214 585.532 361.356 584.665 360.732 583.556C360.108 582.429 359.796 581.129 359.796 579.656C359.796 578.2 360.117 576.909 360.758 575.782C361.399 574.655 362.275 573.789 363.384 573.182C364.493 572.575 365.733 572.272 367.102 572.272C368.471 572.272 369.711 572.575 370.82 573.182C371.929 573.789 372.805 574.655 373.446 575.782C374.087 576.909 374.408 578.2 374.408 579.656C374.408 581.112 374.079 582.403 373.42 583.53C372.761 584.657 371.86 585.532 370.716 586.156C369.589 586.763 368.341 587.066 366.972 587.066ZM366.972 584.492C367.735 584.492 368.445 584.31 369.104 583.946C369.78 583.582 370.326 583.036 370.742 582.308C371.158 581.58 371.366 580.696 371.366 579.656C371.366 578.616 371.167 577.741 370.768 577.03C370.369 576.302 369.841 575.756 369.182 575.392C368.523 575.028 367.813 574.846 367.05 574.846C366.287 574.846 365.577 575.028 364.918 575.392C364.277 575.756 363.765 576.302 363.384 577.03C363.003 577.741 362.812 578.616 362.812 579.656C362.812 581.199 363.202 582.395 363.982 583.244C364.779 584.076 365.776 584.492 366.972 584.492ZM394.68 572.272C395.807 572.272 396.812 572.506 397.696 572.974C398.597 573.442 399.299 574.135 399.802 575.054C400.322 575.973 400.582 577.082 400.582 578.382V586.832H397.644V578.824C397.644 577.541 397.323 576.562 396.682 575.886C396.041 575.193 395.165 574.846 394.056 574.846C392.947 574.846 392.063 575.193 391.404 575.886C390.763 576.562 390.442 577.541 390.442 578.824V586.832H387.504V578.824C387.504 577.541 387.183 576.562 386.542 575.886C385.901 575.193 385.025 574.846 383.916 574.846C382.807 574.846 381.923 575.193 381.264 575.886C380.623 576.562 380.302 577.541 380.302 578.824V586.832H377.338V572.506H380.302V574.144C380.787 573.555 381.403 573.095 382.148 572.766C382.893 572.437 383.691 572.272 384.54 572.272C385.684 572.272 386.707 572.515 387.608 573C388.509 573.485 389.203 574.187 389.688 575.106C390.121 574.239 390.797 573.555 391.716 573.052C392.635 572.532 393.623 572.272 394.68 572.272ZM417.484 579.318C417.484 579.855 417.449 580.341 417.38 580.774H406.434C406.52 581.918 406.945 582.837 407.708 583.53C408.47 584.223 409.406 584.57 410.516 584.57C412.11 584.57 413.237 583.903 413.896 582.568H417.094C416.66 583.885 415.872 584.969 414.728 585.818C413.601 586.65 412.197 587.066 410.516 587.066C409.146 587.066 407.916 586.763 406.824 586.156C405.749 585.532 404.9 584.665 404.276 583.556C403.669 582.429 403.366 581.129 403.366 579.656C403.366 578.183 403.66 576.891 404.25 575.782C404.856 574.655 405.697 573.789 406.772 573.182C407.864 572.575 409.112 572.272 410.516 572.272C411.868 572.272 413.072 572.567 414.13 573.156C415.187 573.745 416.01 574.577 416.6 575.652C417.189 576.709 417.484 577.931 417.484 579.318ZM414.39 578.382C414.372 577.29 413.982 576.415 413.22 575.756C412.457 575.097 411.512 574.768 410.386 574.768C409.363 574.768 408.488 575.097 407.76 575.756C407.032 576.397 406.598 577.273 406.46 578.382H414.39Z" fill="#282D46"/>
<rect y="133.662" width="353.411" height="88.3527" fill="#FFDAFF"/>
<path d="M145.74 183.456H151.85V185.848H142.776V167.778H145.74V183.456ZM160.542 186.082C159.19 186.082 157.968 185.778 156.876 185.172C155.784 184.548 154.926 183.681 154.302 182.572C153.678 181.445 153.366 180.145 153.366 178.672C153.366 177.216 153.687 175.924 154.328 174.798C154.97 173.671 155.845 172.804 156.954 172.198C158.064 171.591 159.303 171.288 160.672 171.288C162.042 171.288 163.281 171.591 164.39 172.198C165.5 172.804 166.375 173.671 167.016 174.798C167.658 175.924 167.978 177.216 167.978 178.672C167.978 180.128 167.649 181.419 166.99 182.546C166.332 183.672 165.43 184.548 164.286 185.172C163.16 185.778 161.912 186.082 160.542 186.082ZM160.542 183.508C161.305 183.508 162.016 183.326 162.674 182.962C163.35 182.598 163.896 182.052 164.312 181.324C164.728 180.596 164.936 179.712 164.936 178.672C164.936 177.632 164.737 176.756 164.338 176.046C163.94 175.318 163.411 174.772 162.752 174.408C162.094 174.044 161.383 173.862 160.62 173.862C159.858 173.862 159.147 174.044 158.488 174.408C157.847 174.772 157.336 175.318 156.954 176.046C156.573 176.756 156.382 177.632 156.382 178.672C156.382 180.214 156.772 181.41 157.552 182.26C158.35 183.092 159.346 183.508 160.542 183.508ZM176.68 171.288C177.79 171.288 178.769 171.513 179.618 171.964C180.485 172.397 181.161 172.943 181.646 173.602V171.522H184.636V186.082C184.636 187.399 184.359 188.569 183.804 189.592C183.25 190.632 182.444 191.446 181.386 192.036C180.346 192.625 179.098 192.92 177.642 192.92C175.701 192.92 174.089 192.46 172.806 191.542C171.524 190.64 170.796 189.41 170.622 187.85H173.56C173.786 188.595 174.262 189.193 174.99 189.644C175.736 190.112 176.62 190.346 177.642 190.346C178.838 190.346 179.8 189.982 180.528 189.254C181.274 188.526 181.646 187.468 181.646 186.082V183.69C181.144 184.366 180.459 184.938 179.592 185.406C178.743 185.856 177.772 186.082 176.68 186.082C175.432 186.082 174.288 185.77 173.248 185.146C172.226 184.504 171.411 183.62 170.804 182.494C170.215 181.35 169.92 180.058 169.92 178.62C169.92 177.181 170.215 175.907 170.804 174.798C171.411 173.688 172.226 172.83 173.248 172.224C174.288 171.6 175.432 171.288 176.68 171.288ZM181.646 178.672C181.646 177.684 181.438 176.826 181.022 176.098C180.624 175.37 180.095 174.815 179.436 174.434C178.778 174.052 178.067 173.862 177.304 173.862C176.542 173.862 175.831 174.052 175.172 174.434C174.514 174.798 173.976 175.344 173.56 176.072C173.162 176.782 172.962 177.632 172.962 178.62C172.962 179.608 173.162 180.474 173.56 181.22C173.976 181.965 174.514 182.537 175.172 182.936C175.848 183.317 176.559 183.508 177.304 183.508C178.067 183.508 178.778 183.317 179.436 182.936C180.095 182.554 180.624 182 181.022 181.272C181.438 180.526 181.646 179.66 181.646 178.672ZM190.037 169.624C189.5 169.624 189.049 169.442 188.685 169.078C188.321 168.714 188.139 168.263 188.139 167.726C188.139 167.188 188.321 166.738 188.685 166.374C189.049 166.01 189.5 165.828 190.037 165.828C190.557 165.828 190.999 166.01 191.363 166.374C191.727 166.738 191.909 167.188 191.909 167.726C191.909 168.263 191.727 168.714 191.363 169.078C190.999 169.442 190.557 169.624 190.037 169.624ZM191.493 171.522V185.848H188.529V171.522H191.493ZM202.613 171.288C203.74 171.288 204.745 171.522 205.629 171.99C206.53 172.458 207.232 173.151 207.735 174.07C208.238 174.988 208.489 176.098 208.489 177.398V185.848H205.551V177.84C205.551 176.557 205.23 175.578 204.589 174.902C203.948 174.208 203.072 173.862 201.963 173.862C200.854 173.862 199.97 174.208 199.311 174.902C198.67 175.578 198.349 176.557 198.349 177.84V185.848H195.385V171.522H198.349V173.16C198.834 172.57 199.45 172.111 200.195 171.782C200.958 171.452 201.764 171.288 202.613 171.288Z" fill="#282D46"/>
<rect x="407.781" y="133.662" width="353.411" height="88.3527" fill="#FFDAFF"/>
<path d="M541.42 185.848L537.26 178.62H534.998V185.848H532.034V167.778H538.274C539.661 167.778 540.831 168.02 541.784 168.506C542.755 168.991 543.474 169.641 543.942 170.456C544.428 171.27 544.67 172.18 544.67 173.186C544.67 174.364 544.324 175.439 543.63 176.41C542.954 177.363 541.906 178.013 540.484 178.36L544.956 185.848H541.42ZM534.998 176.254H538.274C539.384 176.254 540.216 175.976 540.77 175.422C541.342 174.867 541.628 174.122 541.628 173.186C541.628 172.25 541.351 171.522 540.796 171.002C540.242 170.464 539.401 170.196 538.274 170.196H534.998V176.254ZM561.592 178.334C561.592 178.871 561.557 179.356 561.488 179.79H550.542C550.629 180.934 551.053 181.852 551.816 182.546C552.579 183.239 553.515 183.586 554.624 183.586C556.219 183.586 557.345 182.918 558.004 181.584H561.202C560.769 182.901 559.98 183.984 558.836 184.834C557.709 185.666 556.305 186.082 554.624 186.082C553.255 186.082 552.024 185.778 550.932 185.172C549.857 184.548 549.008 183.681 548.384 182.572C547.777 181.445 547.474 180.145 547.474 178.672C547.474 177.198 547.769 175.907 548.358 174.798C548.965 173.671 549.805 172.804 550.88 172.198C551.972 171.591 553.22 171.288 554.624 171.288C555.976 171.288 557.181 171.582 558.238 172.172C559.295 172.761 560.119 173.593 560.708 174.668C561.297 175.725 561.592 176.947 561.592 178.334ZM558.498 177.398C558.481 176.306 558.091 175.43 557.328 174.772C556.565 174.113 555.621 173.784 554.494 173.784C553.471 173.784 552.596 174.113 551.868 174.772C551.14 175.413 550.707 176.288 550.568 177.398H558.498ZM570.281 171.288C571.39 171.288 572.37 171.513 573.219 171.964C574.086 172.397 574.762 172.943 575.247 173.602V171.522H578.237V186.082C578.237 187.399 577.96 188.569 577.405 189.592C576.85 190.632 576.044 191.446 574.987 192.036C573.947 192.625 572.699 192.92 571.243 192.92C569.302 192.92 567.69 192.46 566.407 191.542C565.124 190.64 564.396 189.41 564.223 187.85H567.161C567.386 188.595 567.863 189.193 568.591 189.644C569.336 190.112 570.22 190.346 571.243 190.346C572.439 190.346 573.401 189.982 574.129 189.254C574.874 188.526 575.247 187.468 575.247 186.082V183.69C574.744 184.366 574.06 184.938 573.193 185.406C572.344 185.856 571.373 186.082 570.281 186.082C569.033 186.082 567.889 185.77 566.849 185.146C565.826 184.504 565.012 183.62 564.405 182.494C563.816 181.35 563.521 180.058 563.521 178.62C563.521 177.181 563.816 175.907 564.405 174.798C565.012 173.688 565.826 172.83 566.849 172.224C567.889 171.6 569.033 171.288 570.281 171.288ZM575.247 178.672C575.247 177.684 575.039 176.826 574.623 176.098C574.224 175.37 573.696 174.815 573.037 174.434C572.378 174.052 571.668 173.862 570.905 173.862C570.142 173.862 569.432 174.052 568.773 174.434C568.114 174.798 567.577 175.344 567.161 176.072C566.762 176.782 566.563 177.632 566.563 178.62C566.563 179.608 566.762 180.474 567.161 181.22C567.577 181.965 568.114 182.537 568.773 182.936C569.449 183.317 570.16 183.508 570.905 183.508C571.668 183.508 572.378 183.317 573.037 182.936C573.696 182.554 574.224 182 574.623 181.272C575.039 180.526 575.247 179.66 575.247 178.672ZM583.638 169.624C583.101 169.624 582.65 169.442 582.286 169.078C581.922 168.714 581.74 168.263 581.74 167.726C581.74 167.188 581.922 166.738 582.286 166.374C582.65 166.01 583.101 165.828 583.638 165.828C584.158 165.828 584.6 166.01 584.964 166.374C585.328 166.738 585.51 167.188 585.51 167.726C585.51 168.263 585.328 168.714 584.964 169.078C584.6 169.442 584.158 169.624 583.638 169.624ZM585.094 171.522V185.848H582.13V171.522H585.094ZM594.185 186.082C593.059 186.082 592.045 185.882 591.143 185.484C590.259 185.068 589.557 184.513 589.037 183.82C588.517 183.109 588.24 182.32 588.205 181.454H591.273C591.325 182.06 591.611 182.572 592.131 182.988C592.669 183.386 593.336 183.586 594.133 183.586C594.965 183.586 595.607 183.43 596.057 183.118C596.525 182.788 596.759 182.372 596.759 181.87C596.759 181.332 596.499 180.934 595.979 180.674C595.477 180.414 594.671 180.128 593.561 179.816C592.487 179.521 591.611 179.235 590.935 178.958C590.259 178.68 589.67 178.256 589.167 177.684C588.682 177.112 588.439 176.358 588.439 175.422C588.439 174.659 588.665 173.966 589.115 173.342C589.566 172.7 590.207 172.198 591.039 171.834C591.889 171.47 592.859 171.288 593.951 171.288C595.581 171.288 596.889 171.704 597.877 172.536C598.883 173.35 599.42 174.468 599.489 175.89H596.525C596.473 175.248 596.213 174.737 595.745 174.356C595.277 173.974 594.645 173.784 593.847 173.784C593.067 173.784 592.469 173.931 592.053 174.226C591.637 174.52 591.429 174.91 591.429 175.396C591.429 175.777 591.568 176.098 591.845 176.358C592.123 176.618 592.461 176.826 592.859 176.982C593.258 177.12 593.847 177.302 594.627 177.528C595.667 177.805 596.517 178.091 597.175 178.386C597.851 178.663 598.432 179.079 598.917 179.634C599.403 180.188 599.654 180.925 599.671 181.844C599.671 182.658 599.446 183.386 598.995 184.028C598.545 184.669 597.903 185.172 597.071 185.536C596.257 185.9 595.295 186.082 594.185 186.082ZM606.332 173.94V181.87C606.332 182.407 606.453 182.797 606.696 183.04C606.956 183.265 607.389 183.378 607.996 183.378H609.816V185.848H607.476C606.141 185.848 605.119 185.536 604.408 184.912C603.697 184.288 603.342 183.274 603.342 181.87V173.94H601.652V171.522H603.342V167.96H606.332V171.522H609.816V173.94H606.332ZM625.678 178.334C625.678 178.871 625.643 179.356 625.574 179.79H614.628C614.715 180.934 615.139 181.852 615.902 182.546C616.665 183.239 617.601 183.586 618.71 183.586C620.305 183.586 621.431 182.918 622.09 181.584H625.288C624.855 182.901 624.066 183.984 622.922 184.834C621.795 185.666 620.391 186.082 618.71 186.082C617.341 186.082 616.11 185.778 615.018 185.172C613.943 184.548 613.094 183.681 612.47 182.572C611.863 181.445 611.56 180.145 611.56 178.672C611.56 177.198 611.855 175.907 612.444 174.798C613.051 173.671 613.891 172.804 614.966 172.198C616.058 171.591 617.306 171.288 618.71 171.288C620.062 171.288 621.267 171.582 622.324 172.172C623.381 172.761 624.205 173.593 624.794 174.668C625.383 175.725 625.678 176.947 625.678 178.334ZM622.584 177.398C622.567 176.306 622.177 175.43 621.414 174.772C620.651 174.113 619.707 173.784 618.58 173.784C617.557 173.784 616.682 174.113 615.954 174.772C615.226 175.413 614.793 176.288 614.654 177.398H622.584ZM631.559 173.602C631.992 172.874 632.564 172.31 633.275 171.912C634.003 171.496 634.861 171.288 635.849 171.288V174.356H635.095C633.934 174.356 633.05 174.65 632.443 175.24C631.854 175.829 631.559 176.852 631.559 178.308V185.848H628.595V171.522H631.559V173.602Z" fill="#282D46"/>
<rect x="407.781" y="267.324" width="353.411" height="88.3527" fill="#FFDAFF"/>
<path d="M491.628 319.692C489.947 319.692 488.395 319.302 486.974 318.522C485.57 317.724 484.452 316.624 483.62 315.22C482.805 313.798 482.398 312.204 482.398 310.436C482.398 308.668 482.805 307.082 483.62 305.678C484.452 304.274 485.57 303.182 486.974 302.402C488.395 301.604 489.947 301.206 491.628 301.206C493.327 301.206 494.878 301.604 496.282 302.402C497.703 303.182 498.821 304.274 499.636 305.678C500.451 307.082 500.858 308.668 500.858 310.436C500.858 312.204 500.451 313.798 499.636 315.22C498.821 316.624 497.703 317.724 496.282 318.522C494.878 319.302 493.327 319.692 491.628 319.692ZM491.628 317.118C492.824 317.118 493.89 316.849 494.826 316.312C495.762 315.757 496.49 314.977 497.01 313.972C497.547 312.949 497.816 311.77 497.816 310.436C497.816 309.101 497.547 307.931 497.01 306.926C496.49 305.92 495.762 305.149 494.826 304.612C493.89 304.074 492.824 303.806 491.628 303.806C490.432 303.806 489.366 304.074 488.43 304.612C487.494 305.149 486.757 305.92 486.22 306.926C485.7 307.931 485.44 309.101 485.44 310.436C485.44 311.77 485.7 312.949 486.22 313.972C486.757 314.977 487.494 315.757 488.43 316.312C489.366 316.849 490.432 317.118 491.628 317.118ZM515.449 301.44V303.858H510.639V319.51H507.675V303.858H502.839V301.44H515.449ZM531.086 306.822C531.086 307.74 530.87 308.607 530.436 309.422C530.003 310.236 529.31 310.904 528.356 311.424C527.403 311.926 526.181 312.178 524.69 312.178H521.414V319.51H518.45V301.44H524.69C526.077 301.44 527.247 301.682 528.2 302.168C529.171 302.636 529.89 303.277 530.358 304.092C530.844 304.906 531.086 305.816 531.086 306.822ZM524.69 309.76C525.817 309.76 526.658 309.508 527.212 309.006C527.767 308.486 528.044 307.758 528.044 306.822C528.044 304.846 526.926 303.858 524.69 303.858H521.414V309.76H524.69ZM546.205 316.858L550.261 305.184H553.407L547.947 319.51H544.411L538.977 305.184H542.149L546.205 316.858ZM568.778 311.996C568.778 312.533 568.743 313.018 568.674 313.452H557.728C557.814 314.596 558.239 315.514 559.002 316.208C559.764 316.901 560.7 317.248 561.81 317.248C563.404 317.248 564.531 316.58 565.19 315.246H568.388C567.954 316.563 567.166 317.646 566.022 318.496C564.895 319.328 563.491 319.744 561.81 319.744C560.44 319.744 559.21 319.44 558.118 318.834C557.043 318.21 556.194 317.343 555.57 316.234C554.963 315.107 554.66 313.807 554.66 312.334C554.66 310.86 554.954 309.569 555.544 308.46C556.15 307.333 556.991 306.466 558.066 305.86C559.158 305.253 560.406 304.95 561.81 304.95C563.162 304.95 564.366 305.244 565.424 305.834C566.481 306.423 567.304 307.255 567.894 308.33C568.483 309.387 568.778 310.609 568.778 311.996ZM565.684 311.06C565.666 309.968 565.276 309.092 564.514 308.434C563.751 307.775 562.806 307.446 561.68 307.446C560.657 307.446 559.782 307.775 559.054 308.434C558.326 309.075 557.892 309.95 557.754 311.06H565.684ZM574.658 307.264C575.092 306.536 575.664 305.972 576.374 305.574C577.102 305.158 577.96 304.95 578.948 304.95V308.018H578.194C577.033 308.018 576.149 308.312 575.542 308.902C574.953 309.491 574.658 310.514 574.658 311.97V319.51H571.694V305.184H574.658V307.264ZM583.181 303.286C582.644 303.286 582.193 303.104 581.829 302.74C581.465 302.376 581.283 301.925 581.283 301.388C581.283 300.85 581.465 300.4 581.829 300.036C582.193 299.672 582.644 299.49 583.181 299.49C583.701 299.49 584.143 299.672 584.507 300.036C584.871 300.4 585.053 300.85 585.053 301.388C585.053 301.925 584.871 302.376 584.507 302.74C584.143 303.104 583.701 303.286 583.181 303.286ZM584.637 305.184V319.51H581.673V305.184H584.637ZM594.534 307.602H591.882V319.51H588.892V307.602H587.202V305.184H588.892V304.17C588.892 302.523 589.326 301.327 590.192 300.582C591.076 299.819 592.454 299.438 594.326 299.438V301.908C593.425 301.908 592.792 302.081 592.428 302.428C592.064 302.757 591.882 303.338 591.882 304.17V305.184H594.534V307.602ZM598.669 303.286C598.132 303.286 597.681 303.104 597.317 302.74C596.953 302.376 596.771 301.925 596.771 301.388C596.771 300.85 596.953 300.4 597.317 300.036C597.681 299.672 598.132 299.49 598.669 299.49C599.189 299.49 599.631 299.672 599.995 300.036C600.359 300.4 600.541 300.85 600.541 301.388C600.541 301.925 600.359 302.376 599.995 302.74C599.631 303.104 599.189 303.286 598.669 303.286ZM600.125 305.184V319.51H597.161V305.184H600.125ZM603.029 312.334C603.029 310.86 603.323 309.569 603.913 308.46C604.519 307.333 605.351 306.466 606.409 305.86C607.466 305.253 608.679 304.95 610.049 304.95C611.782 304.95 613.212 305.366 614.339 306.198C615.483 307.012 616.254 308.182 616.653 309.708H613.455C613.195 308.997 612.779 308.442 612.207 308.044C611.635 307.645 610.915 307.446 610.049 307.446C608.835 307.446 607.865 307.879 607.137 308.746C606.426 309.595 606.071 310.791 606.071 312.334C606.071 313.876 606.426 315.081 607.137 315.948C607.865 316.814 608.835 317.248 610.049 317.248C611.765 317.248 612.9 316.494 613.455 314.986H616.653C616.237 316.442 615.457 317.603 614.313 318.47C613.169 319.319 611.747 319.744 610.049 319.744C608.679 319.744 607.466 319.44 606.409 318.834C605.351 318.21 604.519 317.343 603.913 316.234C603.323 315.107 603.029 313.807 603.029 312.334ZM618.619 312.282C618.619 310.843 618.913 309.569 619.503 308.46C620.109 307.35 620.924 306.492 621.947 305.886C622.987 305.262 624.131 304.95 625.379 304.95C626.505 304.95 627.485 305.175 628.317 305.626C629.166 306.059 629.842 306.605 630.345 307.264V305.184H633.335V319.51H630.345V317.378C629.842 318.054 629.157 318.617 628.291 319.068C627.424 319.518 626.436 319.744 625.327 319.744C624.096 319.744 622.969 319.432 621.947 318.808C620.924 318.166 620.109 317.282 619.503 316.156C618.913 315.012 618.619 313.72 618.619 312.282ZM630.345 312.334C630.345 311.346 630.137 310.488 629.721 309.76C629.322 309.032 628.793 308.477 628.135 308.096C627.476 307.714 626.765 307.524 626.003 307.524C625.24 307.524 624.529 307.714 623.871 308.096C623.212 308.46 622.675 309.006 622.259 309.734C621.86 310.444 621.661 311.294 621.661 312.282C621.661 313.27 621.86 314.136 622.259 314.882C622.675 315.627 623.212 316.199 623.871 316.598C624.547 316.979 625.257 317.17 626.003 317.17C626.765 317.17 627.476 316.979 628.135 316.598C628.793 316.216 629.322 315.662 629.721 314.934C630.137 314.188 630.345 313.322 630.345 312.334ZM640.686 307.602V315.532C640.686 316.069 640.807 316.459 641.05 316.702C641.31 316.927 641.743 317.04 642.35 317.04H644.17V319.51H641.83C640.495 319.51 639.472 319.198 638.762 318.574C638.051 317.95 637.696 316.936 637.696 315.532V307.602H636.006V305.184H637.696V301.622H640.686V305.184H644.17V307.602H640.686ZM648.409 303.286C647.872 303.286 647.421 303.104 647.057 302.74C646.693 302.376 646.511 301.925 646.511 301.388C646.511 300.85 646.693 300.4 647.057 300.036C647.421 299.672 647.872 299.49 648.409 299.49C648.929 299.49 649.371 299.672 649.735 300.036C650.099 300.4 650.281 300.85 650.281 301.388C650.281 301.925 650.099 302.376 649.735 302.74C649.371 303.104 648.929 303.286 648.409 303.286ZM649.865 305.184V319.51H646.901V305.184H649.865ZM659.971 319.744C658.619 319.744 657.397 319.44 656.305 318.834C655.213 318.21 654.355 317.343 653.731 316.234C653.107 315.107 652.795 313.807 652.795 312.334C652.795 310.878 653.116 309.586 653.757 308.46C654.398 307.333 655.274 306.466 656.383 305.86C657.492 305.253 658.732 304.95 660.101 304.95C661.47 304.95 662.71 305.253 663.819 305.86C664.928 306.466 665.804 307.333 666.445 308.46C667.086 309.586 667.407 310.878 667.407 312.334C667.407 313.79 667.078 315.081 666.419 316.208C665.76 317.334 664.859 318.21 663.715 318.834C662.588 319.44 661.34 319.744 659.971 319.744ZM659.971 317.17C660.734 317.17 661.444 316.988 662.103 316.624C662.779 316.26 663.325 315.714 663.741 314.986C664.157 314.258 664.365 313.374 664.365 312.334C664.365 311.294 664.166 310.418 663.767 309.708C663.368 308.98 662.84 308.434 662.181 308.07C661.522 307.706 660.812 307.524 660.049 307.524C659.286 307.524 658.576 307.706 657.917 308.07C657.276 308.434 656.764 308.98 656.383 309.708C656.002 310.418 655.811 311.294 655.811 312.334C655.811 313.876 656.201 315.072 656.981 315.922C657.778 316.754 658.775 317.17 659.971 317.17ZM677.565 304.95C678.692 304.95 679.697 305.184 680.581 305.652C681.482 306.12 682.184 306.813 682.687 307.732C683.19 308.65 683.441 309.76 683.441 311.06V319.51H680.503V311.502C680.503 310.219 680.182 309.24 679.541 308.564C678.9 307.87 678.024 307.524 676.915 307.524C675.806 307.524 674.922 307.87 674.263 308.564C673.622 309.24 673.301 310.219 673.301 311.502V319.51H670.337V305.184H673.301V306.822C673.786 306.232 674.402 305.773 675.147 305.444C675.91 305.114 676.716 304.95 677.565 304.95Z" fill="#282D46"/>
<rect x="407.781" y="400.986" width="353.411" height="88.3527" fill="#FFDAFF"/>
<path d="M471.873 444.098C471.873 442.33 472.281 440.744 473.095 439.34C473.927 437.936 475.045 436.844 476.449 436.064C477.871 435.267 479.422 434.868 481.103 434.868C483.027 434.868 484.735 435.345 486.225 436.298C487.733 437.234 488.825 438.569 489.501 440.302H485.939C485.471 439.349 484.821 438.638 483.989 438.17C483.157 437.702 482.195 437.468 481.103 437.468C479.907 437.468 478.841 437.737 477.905 438.274C476.969 438.811 476.233 439.583 475.695 440.588C475.175 441.593 474.915 442.763 474.915 444.098C474.915 445.433 475.175 446.603 475.695 447.608C476.233 448.613 476.969 449.393 477.905 449.948C478.841 450.485 479.907 450.754 481.103 450.754C482.195 450.754 483.157 450.52 483.989 450.052C484.821 449.584 485.471 448.873 485.939 447.92H489.501C488.825 449.653 487.733 450.988 486.225 451.924C484.735 452.86 483.027 453.328 481.103 453.328C479.405 453.328 477.853 452.938 476.449 452.158C475.045 451.361 473.927 450.26 473.095 448.856C472.281 447.452 471.873 445.866 471.873 444.098ZM495.935 440.926C496.368 440.198 496.94 439.635 497.651 439.236C498.379 438.82 499.237 438.612 500.225 438.612V441.68H499.471C498.309 441.68 497.425 441.975 496.819 442.564C496.229 443.153 495.935 444.176 495.935 445.632V453.172H492.971V438.846H495.935V440.926ZM516.079 445.658C516.079 446.195 516.045 446.681 515.975 447.114H505.029C505.116 448.258 505.541 449.177 506.303 449.87C507.066 450.563 508.002 450.91 509.111 450.91C510.706 450.91 511.833 450.243 512.491 448.908H515.689C515.256 450.225 514.467 451.309 513.323 452.158C512.197 452.99 510.793 453.406 509.111 453.406C507.742 453.406 506.511 453.103 505.419 452.496C504.345 451.872 503.495 451.005 502.871 449.896C502.265 448.769 501.961 447.469 501.961 445.996C501.961 444.523 502.256 443.231 502.845 442.122C503.452 440.995 504.293 440.129 505.367 439.522C506.459 438.915 507.707 438.612 509.111 438.612C510.463 438.612 511.668 438.907 512.725 439.496C513.783 440.085 514.606 440.917 515.195 441.992C515.785 443.049 516.079 444.271 516.079 445.658ZM512.985 444.722C512.968 443.63 512.578 442.755 511.815 442.096C511.053 441.437 510.108 441.108 508.981 441.108C507.959 441.108 507.083 441.437 506.355 442.096C505.627 442.737 505.194 443.613 505.055 444.722H512.985ZM518.008 445.944C518.008 444.505 518.303 443.231 518.892 442.122C519.499 441.013 520.314 440.155 521.336 439.548C522.376 438.924 523.52 438.612 524.768 438.612C525.895 438.612 526.874 438.837 527.706 439.288C528.556 439.721 529.232 440.267 529.734 440.926V438.846H532.724V453.172H529.734V451.04C529.232 451.716 528.547 452.279 527.68 452.73C526.814 453.181 525.826 453.406 524.716 453.406C523.486 453.406 522.359 453.094 521.336 452.47C520.314 451.829 519.499 450.945 518.892 449.818C518.303 448.674 518.008 447.383 518.008 445.944ZM529.734 445.996C529.734 445.008 529.526 444.15 529.11 443.422C528.712 442.694 528.183 442.139 527.524 441.758C526.866 441.377 526.155 441.186 525.392 441.186C524.63 441.186 523.919 441.377 523.26 441.758C522.602 442.122 522.064 442.668 521.648 443.396C521.25 444.107 521.05 444.956 521.05 445.944C521.05 446.932 521.25 447.799 521.648 448.544C522.064 449.289 522.602 449.861 523.26 450.26C523.936 450.641 524.647 450.832 525.392 450.832C526.155 450.832 526.866 450.641 527.524 450.26C528.183 449.879 528.712 449.324 529.11 448.596C529.526 447.851 529.734 446.984 529.734 445.996ZM540.075 441.264V449.194C540.075 449.731 540.197 450.121 540.439 450.364C540.699 450.589 541.133 450.702 541.739 450.702H543.559V453.172H541.219C539.885 453.172 538.862 452.86 538.151 452.236C537.441 451.612 537.085 450.598 537.085 449.194V441.264H535.395V438.846H537.085V435.284H540.075V438.846H543.559V441.264H540.075ZM559.421 445.658C559.421 446.195 559.386 446.681 559.317 447.114H548.371C548.458 448.258 548.882 449.177 549.645 449.87C550.408 450.563 551.344 450.91 552.453 450.91C554.048 450.91 555.174 450.243 555.833 448.908H559.031C558.598 450.225 557.809 451.309 556.665 452.158C555.538 452.99 554.134 453.406 552.453 453.406C551.084 453.406 549.853 453.103 548.761 452.496C547.686 451.872 546.837 451.005 546.213 449.896C545.606 448.769 545.303 447.469 545.303 445.996C545.303 444.523 545.598 443.231 546.187 442.122C546.794 440.995 547.634 440.129 548.709 439.522C549.801 438.915 551.049 438.612 552.453 438.612C553.805 438.612 555.01 438.907 556.067 439.496C557.124 440.085 557.948 440.917 558.537 441.992C559.126 443.049 559.421 444.271 559.421 445.658ZM556.327 444.722C556.31 443.63 555.92 442.755 555.157 442.096C554.394 441.437 553.45 441.108 552.323 441.108C551.3 441.108 550.425 441.437 549.697 442.096C548.969 442.737 548.536 443.613 548.397 444.722H556.327ZM572.056 440.952C572.559 440.293 573.243 439.739 574.11 439.288C574.977 438.837 575.956 438.612 577.048 438.612C578.296 438.612 579.431 438.924 580.454 439.548C581.494 440.155 582.309 441.013 582.898 442.122C583.487 443.231 583.782 444.505 583.782 445.944C583.782 447.383 583.487 448.674 582.898 449.818C582.309 450.945 581.494 451.829 580.454 452.47C579.431 453.094 578.296 453.406 577.048 453.406C575.956 453.406 574.985 453.189 574.136 452.756C573.287 452.305 572.593 451.751 572.056 451.092V459.984H569.092V438.846H572.056V440.952ZM580.766 445.944C580.766 444.956 580.558 444.107 580.142 443.396C579.743 442.668 579.206 442.122 578.53 441.758C577.871 441.377 577.161 441.186 576.398 441.186C575.653 441.186 574.942 441.377 574.266 441.758C573.607 442.139 573.07 442.694 572.654 443.422C572.255 444.15 572.056 445.008 572.056 445.996C572.056 446.984 572.255 447.851 572.654 448.596C573.07 449.324 573.607 449.879 574.266 450.26C574.942 450.641 575.653 450.832 576.398 450.832C577.161 450.832 577.871 450.641 578.53 450.26C579.206 449.861 579.743 449.289 580.142 448.544C580.558 447.799 580.766 446.932 580.766 445.944ZM585.725 445.944C585.725 444.505 586.02 443.231 586.609 442.122C587.216 441.013 588.03 440.155 589.053 439.548C590.093 438.924 591.237 438.612 592.485 438.612C593.612 438.612 594.591 438.837 595.423 439.288C596.272 439.721 596.948 440.267 597.451 440.926V438.846H600.441V453.172H597.451V451.04C596.948 451.716 596.264 452.279 595.397 452.73C594.53 453.181 593.542 453.406 592.433 453.406C591.202 453.406 590.076 453.094 589.053 452.47C588.03 451.829 587.216 450.945 586.609 449.818C586.02 448.674 585.725 447.383 585.725 445.944ZM597.451 445.996C597.451 445.008 597.243 444.15 596.827 443.422C596.428 442.694 595.9 442.139 595.241 441.758C594.582 441.377 593.872 441.186 593.109 441.186C592.346 441.186 591.636 441.377 590.977 441.758C590.318 442.122 589.781 442.668 589.365 443.396C588.966 444.107 588.767 444.956 588.767 445.944C588.767 446.932 588.966 447.799 589.365 448.544C589.781 449.289 590.318 449.861 590.977 450.26C591.653 450.641 592.364 450.832 593.109 450.832C593.872 450.832 594.582 450.641 595.241 450.26C595.9 449.879 596.428 449.324 596.827 448.596C597.243 447.851 597.451 446.984 597.451 445.996ZM609.534 453.406C608.407 453.406 607.393 453.207 606.492 452.808C605.608 452.392 604.906 451.837 604.386 451.144C603.866 450.433 603.589 449.645 603.554 448.778H606.622C606.674 449.385 606.96 449.896 607.48 450.312C608.017 450.711 608.685 450.91 609.482 450.91C610.314 450.91 610.955 450.754 611.406 450.442C611.874 450.113 612.108 449.697 612.108 449.194C612.108 448.657 611.848 448.258 611.328 447.998C610.825 447.738 610.019 447.452 608.91 447.14C607.835 446.845 606.96 446.559 606.284 446.282C605.608 446.005 605.019 445.58 604.516 445.008C604.031 444.436 603.788 443.682 603.788 442.746C603.788 441.983 604.013 441.29 604.464 440.666C604.915 440.025 605.556 439.522 606.388 439.158C607.237 438.794 608.208 438.612 609.3 438.612C610.929 438.612 612.238 439.028 613.226 439.86C614.231 440.675 614.769 441.793 614.838 443.214H611.874C611.822 442.573 611.562 442.061 611.094 441.68C610.626 441.299 609.993 441.108 609.196 441.108C608.416 441.108 607.818 441.255 607.402 441.55C606.986 441.845 606.778 442.235 606.778 442.72C606.778 443.101 606.917 443.422 607.194 443.682C607.471 443.942 607.809 444.15 608.208 444.306C608.607 444.445 609.196 444.627 609.976 444.852C611.016 445.129 611.865 445.415 612.524 445.71C613.2 445.987 613.781 446.403 614.266 446.958C614.751 447.513 615.003 448.249 615.02 449.168C615.02 449.983 614.795 450.711 614.344 451.352C613.893 451.993 613.252 452.496 612.42 452.86C611.605 453.224 610.643 453.406 609.534 453.406ZM623.423 453.406C622.296 453.406 621.282 453.207 620.381 452.808C619.497 452.392 618.795 451.837 618.275 451.144C617.755 450.433 617.477 449.645 617.443 448.778H620.511C620.563 449.385 620.849 449.896 621.369 450.312C621.906 450.711 622.573 450.91 623.371 450.91C624.203 450.91 624.844 450.754 625.295 450.442C625.763 450.113 625.997 449.697 625.997 449.194C625.997 448.657 625.737 448.258 625.217 447.998C624.714 447.738 623.908 447.452 622.799 447.14C621.724 446.845 620.849 446.559 620.173 446.282C619.497 446.005 618.907 445.58 618.405 445.008C617.919 444.436 617.677 443.682 617.677 442.746C617.677 441.983 617.902 441.29 618.353 440.666C618.803 440.025 619.445 439.522 620.277 439.158C621.126 438.794 622.097 438.612 623.189 438.612C624.818 438.612 626.127 439.028 627.115 439.86C628.12 440.675 628.657 441.793 628.727 443.214H625.763C625.711 442.573 625.451 442.061 624.983 441.68C624.515 441.299 623.882 441.108 623.085 441.108C622.305 441.108 621.707 441.255 621.291 441.55C620.875 441.845 620.667 442.235 620.667 442.72C620.667 443.101 620.805 443.422 621.083 443.682C621.36 443.942 621.698 444.15 622.097 444.306C622.495 444.445 623.085 444.627 623.865 444.852C624.905 445.129 625.754 445.415 626.413 445.71C627.089 445.987 627.669 446.403 628.155 446.958C628.64 447.513 628.891 448.249 628.909 449.168C628.909 449.983 628.683 450.711 628.233 451.352C627.782 451.993 627.141 452.496 626.309 452.86C625.494 453.224 624.532 453.406 623.423 453.406ZM651.351 438.846L646.905 453.172H643.785L640.899 442.59L638.013 453.172H634.893L630.421 438.846H633.437L636.427 450.364L639.469 438.846H642.563L645.475 450.312L648.439 438.846H651.351ZM659.781 453.406C658.429 453.406 657.207 453.103 656.115 452.496C655.023 451.872 654.165 451.005 653.541 449.896C652.917 448.769 652.605 447.469 652.605 445.996C652.605 444.54 652.925 443.249 653.567 442.122C654.208 440.995 655.083 440.129 656.193 439.522C657.302 438.915 658.541 438.612 659.911 438.612C661.28 438.612 662.519 438.915 663.629 439.522C664.738 440.129 665.613 440.995 666.255 442.122C666.896 443.249 667.217 444.54 667.217 445.996C667.217 447.452 666.887 448.743 666.229 449.87C665.57 450.997 664.669 451.872 663.525 452.496C662.398 453.103 661.15 453.406 659.781 453.406ZM659.781 450.832C660.543 450.832 661.254 450.65 661.913 450.286C662.589 449.922 663.135 449.376 663.551 448.648C663.967 447.92 664.175 447.036 664.175 445.996C664.175 444.956 663.975 444.081 663.577 443.37C663.178 442.642 662.649 442.096 661.991 441.732C661.332 441.368 660.621 441.186 659.859 441.186C659.096 441.186 658.385 441.368 657.727 441.732C657.085 442.096 656.574 442.642 656.193 443.37C655.811 444.081 655.621 444.956 655.621 445.996C655.621 447.539 656.011 448.735 656.791 449.584C657.588 450.416 658.585 450.832 659.781 450.832ZM673.111 440.926C673.544 440.198 674.116 439.635 674.827 439.236C675.555 438.82 676.413 438.612 677.401 438.612V441.68H676.647C675.485 441.68 674.601 441.975 673.995 442.564C673.405 443.153 673.111 444.176 673.111 445.632V453.172H670.147V438.846H673.111V440.926ZM679.137 445.944C679.137 444.505 679.432 443.231 680.021 442.122C680.628 441.013 681.442 440.155 682.465 439.548C683.505 438.924 684.658 438.612 685.923 438.612C686.859 438.612 687.778 438.82 688.679 439.236C689.598 439.635 690.326 440.172 690.863 440.848V433.932H693.853V453.172H690.863V451.014C690.378 451.707 689.702 452.279 688.835 452.73C687.986 453.181 687.006 453.406 685.897 453.406C684.649 453.406 683.505 453.094 682.465 452.47C681.442 451.829 680.628 450.945 680.021 449.818C679.432 448.674 679.137 447.383 679.137 445.944ZM690.863 445.996C690.863 445.008 690.655 444.15 690.239 443.422C689.84 442.694 689.312 442.139 688.653 441.758C687.994 441.377 687.284 441.186 686.521 441.186C685.758 441.186 685.048 441.377 684.389 441.758C683.73 442.122 683.193 442.668 682.777 443.396C682.378 444.107 682.179 444.956 682.179 445.944C682.179 446.932 682.378 447.799 682.777 448.544C683.193 449.289 683.73 449.861 684.389 450.26C685.065 450.641 685.776 450.832 686.521 450.832C687.284 450.832 687.994 450.641 688.653 450.26C689.312 449.879 689.84 449.324 690.239 448.596C690.655 447.851 690.863 446.984 690.863 445.996Z" fill="#282D46"/>
<rect y="267.324" width="353.411" height="88.3527" fill="#FFDAFF"/>
<path d="M83.8466 319.692C82.1653 319.692 80.6139 319.302 79.1926 318.522C77.7886 317.724 76.6706 316.624 75.8386 315.22C75.0239 313.798 74.6166 312.204 74.6166 310.436C74.6166 308.668 75.0239 307.082 75.8386 305.678C76.6706 304.274 77.7886 303.182 79.1926 302.402C80.6139 301.604 82.1653 301.206 83.8466 301.206C85.5453 301.206 87.0966 301.604 88.5006 302.402C89.9219 303.182 91.0399 304.274 91.8546 305.678C92.6693 307.082 93.0766 308.668 93.0766 310.436C93.0766 312.204 92.6693 313.798 91.8546 315.22C91.0399 316.624 89.9219 317.724 88.5006 318.522C87.0966 319.302 85.5453 319.692 83.8466 319.692ZM83.8466 317.118C85.0426 317.118 86.1086 316.849 87.0446 316.312C87.9806 315.757 88.7086 314.977 89.2286 313.972C89.7659 312.949 90.0346 311.77 90.0346 310.436C90.0346 309.101 89.7659 307.931 89.2286 306.926C88.7086 305.92 87.9806 305.149 87.0446 304.612C86.1086 304.074 85.0426 303.806 83.8466 303.806C82.6506 303.806 81.5846 304.074 80.6486 304.612C79.7126 305.149 78.9759 305.92 78.4386 306.926C77.9186 307.931 77.6586 309.101 77.6586 310.436C77.6586 311.77 77.9186 312.949 78.4386 313.972C78.9759 314.977 79.7126 315.757 80.6486 316.312C81.5846 316.849 82.6506 317.118 83.8466 317.118ZM107.667 301.44V303.858H102.857V319.51H99.8933V303.858H95.0573V301.44H107.667ZM123.305 306.822C123.305 307.74 123.088 308.607 122.655 309.422C122.222 310.236 121.528 310.904 120.575 311.424C119.622 311.926 118.4 312.178 116.909 312.178H113.633V319.51H110.669V301.44H116.909C118.296 301.44 119.466 301.682 120.419 302.168C121.39 302.636 122.109 303.277 122.577 304.092C123.062 304.906 123.305 305.816 123.305 306.822ZM116.909 309.76C118.036 309.76 118.876 309.508 119.431 309.006C119.986 308.486 120.263 307.758 120.263 306.822C120.263 304.846 119.145 303.858 116.909 303.858H113.633V309.76H116.909ZM138.424 316.858L142.48 305.184H145.626L140.166 319.51H136.63L131.196 305.184H134.368L138.424 316.858ZM160.996 311.996C160.996 312.533 160.962 313.018 160.892 313.452H149.946C150.033 314.596 150.458 315.514 151.22 316.208C151.983 316.901 152.919 317.248 154.028 317.248C155.623 317.248 156.75 316.58 157.408 315.246H160.606C160.173 316.563 159.384 317.646 158.24 318.496C157.114 319.328 155.71 319.744 154.028 319.744C152.659 319.744 151.428 319.44 150.336 318.834C149.262 318.21 148.412 317.343 147.788 316.234C147.182 315.107 146.878 313.807 146.878 312.334C146.878 310.86 147.173 309.569 147.762 308.46C148.369 307.333 149.21 306.466 150.284 305.86C151.376 305.253 152.624 304.95 154.028 304.95C155.38 304.95 156.585 305.244 157.642 305.834C158.7 306.423 159.523 307.255 160.112 308.33C160.702 309.387 160.996 310.609 160.996 311.996ZM157.902 311.06C157.885 309.968 157.495 309.092 156.732 308.434C155.97 307.775 155.025 307.446 153.898 307.446C152.876 307.446 152 307.775 151.272 308.434C150.544 309.075 150.111 309.95 149.972 311.06H157.902ZM166.877 307.264C167.311 306.536 167.883 305.972 168.593 305.574C169.321 305.158 170.179 304.95 171.167 304.95V308.018H170.413C169.252 308.018 168.368 308.312 167.761 308.902C167.172 309.491 166.877 310.514 166.877 311.97V319.51H163.913V305.184H166.877V307.264ZM175.4 303.286C174.862 303.286 174.412 303.104 174.048 302.74C173.684 302.376 173.502 301.925 173.502 301.388C173.502 300.85 173.684 300.4 174.048 300.036C174.412 299.672 174.862 299.49 175.4 299.49C175.92 299.49 176.362 299.672 176.726 300.036C177.09 300.4 177.272 300.85 177.272 301.388C177.272 301.925 177.09 302.376 176.726 302.74C176.362 303.104 175.92 303.286 175.4 303.286ZM176.856 305.184V319.51H173.892V305.184H176.856ZM186.753 307.602H184.101V319.51H181.111V307.602H179.421V305.184H181.111V304.17C181.111 302.523 181.545 301.327 182.411 300.582C183.295 299.819 184.673 299.438 186.545 299.438V301.908C185.644 301.908 185.011 302.081 184.647 302.428C184.283 302.757 184.101 303.338 184.101 304.17V305.184H186.753V307.602ZM190.888 303.286C190.351 303.286 189.9 303.104 189.536 302.74C189.172 302.376 188.99 301.925 188.99 301.388C188.99 300.85 189.172 300.4 189.536 300.036C189.9 299.672 190.351 299.49 190.888 299.49C191.408 299.49 191.85 299.672 192.214 300.036C192.578 300.4 192.76 300.85 192.76 301.388C192.76 301.925 192.578 302.376 192.214 302.74C191.85 303.104 191.408 303.286 190.888 303.286ZM192.344 305.184V319.51H189.38V305.184H192.344ZM195.247 312.334C195.247 310.86 195.542 309.569 196.131 308.46C196.738 307.333 197.57 306.466 198.627 305.86C199.685 305.253 200.898 304.95 202.267 304.95C204.001 304.95 205.431 305.366 206.557 306.198C207.701 307.012 208.473 308.182 208.871 309.708H205.673C205.413 308.997 204.997 308.442 204.425 308.044C203.853 307.645 203.134 307.446 202.267 307.446C201.054 307.446 200.083 307.879 199.355 308.746C198.645 309.595 198.289 310.791 198.289 312.334C198.289 313.876 198.645 315.081 199.355 315.948C200.083 316.814 201.054 317.248 202.267 317.248C203.983 317.248 205.119 316.494 205.673 314.986H208.871C208.455 316.442 207.675 317.603 206.531 318.47C205.387 319.319 203.966 319.744 202.267 319.744C200.898 319.744 199.685 319.44 198.627 318.834C197.57 318.21 196.738 317.343 196.131 316.234C195.542 315.107 195.247 313.807 195.247 312.334ZM210.837 312.282C210.837 310.843 211.132 309.569 211.721 308.46C212.328 307.35 213.143 306.492 214.165 305.886C215.205 305.262 216.349 304.95 217.597 304.95C218.724 304.95 219.703 305.175 220.535 305.626C221.385 306.059 222.061 306.605 222.563 307.264V305.184H225.553V319.51H222.563V317.378C222.061 318.054 221.376 318.617 220.509 319.068C219.643 319.518 218.655 319.744 217.545 319.744C216.315 319.744 215.188 319.432 214.165 318.808C213.143 318.166 212.328 317.282 211.721 316.156C211.132 315.012 210.837 313.72 210.837 312.282ZM222.563 312.334C222.563 311.346 222.355 310.488 221.939 309.76C221.541 309.032 221.012 308.477 220.353 308.096C219.695 307.714 218.984 307.524 218.221 307.524C217.459 307.524 216.748 307.714 216.089 308.096C215.431 308.46 214.893 309.006 214.477 309.734C214.079 310.444 213.879 311.294 213.879 312.282C213.879 313.27 214.079 314.136 214.477 314.882C214.893 315.627 215.431 316.199 216.089 316.598C216.765 316.979 217.476 317.17 218.221 317.17C218.984 317.17 219.695 316.979 220.353 316.598C221.012 316.216 221.541 315.662 221.939 314.934C222.355 314.188 222.563 313.322 222.563 312.334ZM232.904 307.602V315.532C232.904 316.069 233.026 316.459 233.268 316.702C233.528 316.927 233.962 317.04 234.568 317.04H236.388V319.51H234.048C232.714 319.51 231.691 319.198 230.98 318.574C230.27 317.95 229.914 316.936 229.914 315.532V307.602H228.224V305.184H229.914V301.622H232.904V305.184H236.388V307.602H232.904ZM240.628 303.286C240.091 303.286 239.64 303.104 239.276 302.74C238.912 302.376 238.73 301.925 238.73 301.388C238.73 300.85 238.912 300.4 239.276 300.036C239.64 299.672 240.091 299.49 240.628 299.49C241.148 299.49 241.59 299.672 241.954 300.036C242.318 300.4 242.5 300.85 242.5 301.388C242.5 301.925 242.318 302.376 241.954 302.74C241.59 303.104 241.148 303.286 240.628 303.286ZM242.084 305.184V319.51H239.12V305.184H242.084ZM252.19 319.744C250.838 319.744 249.616 319.44 248.524 318.834C247.432 318.21 246.574 317.343 245.95 316.234C245.326 315.107 245.014 313.807 245.014 312.334C245.014 310.878 245.334 309.586 245.976 308.46C246.617 307.333 247.492 306.466 248.602 305.86C249.711 305.253 250.95 304.95 252.32 304.95C253.689 304.95 254.928 305.253 256.038 305.86C257.147 306.466 258.022 307.333 258.664 308.46C259.305 309.586 259.626 310.878 259.626 312.334C259.626 313.79 259.296 315.081 258.638 316.208C257.979 317.334 257.078 318.21 255.934 318.834C254.807 319.44 253.559 319.744 252.19 319.744ZM252.19 317.17C252.952 317.17 253.663 316.988 254.322 316.624C254.998 316.26 255.544 315.714 255.96 314.986C256.376 314.258 256.584 313.374 256.584 312.334C256.584 311.294 256.384 310.418 255.986 309.708C255.587 308.98 255.058 308.434 254.4 308.07C253.741 307.706 253.03 307.524 252.268 307.524C251.505 307.524 250.794 307.706 250.136 308.07C249.494 308.434 248.983 308.98 248.602 309.708C248.22 310.418 248.03 311.294 248.03 312.334C248.03 313.876 248.42 315.072 249.2 315.922C249.997 316.754 250.994 317.17 252.19 317.17ZM269.784 304.95C270.91 304.95 271.916 305.184 272.8 305.652C273.701 306.12 274.403 306.813 274.906 307.732C275.408 308.65 275.66 309.76 275.66 311.06V319.51H272.722V311.502C272.722 310.219 272.401 309.24 271.76 308.564C271.118 307.87 270.243 307.524 269.134 307.524C268.024 307.524 267.14 307.87 266.482 308.564C265.84 309.24 265.52 310.219 265.52 311.502V319.51H262.556V305.184H265.52V306.822C266.005 306.232 266.62 305.773 267.366 305.444C268.128 305.114 268.934 304.95 269.784 304.95Z" fill="#282D46"/>
<path opacity="0.2" d="M583.685 134.462C584.128 134.905 584.845 134.905 585.287 134.462L592.496 127.254C592.938 126.811 592.938 126.094 592.496 125.652C592.053 125.209 591.336 125.209 590.894 125.652L584.486 132.059L578.079 125.652C577.636 125.209 576.919 125.209 576.477 125.652C576.034 126.094 576.034 126.811 576.477 127.254L583.685 134.462ZM583.354 71.3612V133.661H585.619V71.3612H583.354ZM557.301 45.3085C571.689 45.3085 583.354 56.9727 583.354 71.3612H585.619C585.619 55.7215 572.94 43.0431 557.301 43.0431V45.3085Z" fill="#282D46"/>
<path opacity="0.2" d="M583.687 268.124C584.13 268.566 584.847 268.566 585.289 268.124L592.498 260.915C592.94 260.473 592.94 259.756 592.498 259.313C592.056 258.871 591.338 258.871 590.896 259.313L584.488 265.721L578.081 259.313C577.638 258.871 576.921 258.871 576.479 259.313C576.036 259.756 576.036 260.473 576.479 260.915L583.687 268.124ZM583.356 222.014V267.323H585.621V222.014H583.356Z" fill="#282D46"/>
<path opacity="0.2" d="M583.687 401.786C584.13 402.228 584.847 402.228 585.289 401.786L592.498 394.577C592.94 394.135 592.94 393.418 592.498 392.975C592.056 392.533 591.338 392.533 590.896 392.975L584.488 399.383L578.081 392.975C577.638 392.533 576.921 392.533 576.479 392.975C576.036 393.418 576.036 394.135 576.479 394.577L583.687 401.786ZM583.356 355.676V400.985H585.621V355.676H583.356Z" fill="#282D46"/>
<path d="M565.23 572.027L557.301 579.956L565.23 587.886" stroke="#CBD4DC" stroke-width="2.26545"/>
<path opacity="0.2" d="M175.906 134.462C176.348 134.905 177.066 134.905 177.508 134.462L184.717 127.254C185.159 126.811 185.159 126.094 184.717 125.652C184.274 125.209 183.557 125.209 183.115 125.652L176.707 132.059L170.299 125.652C169.857 125.209 169.14 125.209 168.697 125.652C168.255 126.094 168.255 126.811 168.697 127.254L175.906 134.462ZM175.574 71.3612V133.661H177.84V71.3612H175.574ZM203.892 43.0431C188.253 43.0431 175.574 55.7215 175.574 71.3612H177.84C177.84 56.9727 189.504 45.3085 203.892 45.3085V43.0431Z" fill="#282D46"/>
<path opacity="0.2" d="M175.906 268.124C176.348 268.566 177.066 268.566 177.508 268.124L184.717 260.915C185.159 260.473 185.159 259.756 184.717 259.313C184.274 258.871 183.557 258.871 183.115 259.313L176.707 265.721L170.299 259.313C169.857 258.871 169.14 258.871 168.697 259.313C168.255 259.756 168.255 260.473 168.697 260.915L175.906 268.124ZM175.574 222.014V267.323H177.84V222.014H175.574Z" fill="#282D46"/>
<path d="M586.752 489.338V561.832C586.752 571.842 578.637 579.956 568.628 579.956H557.301" stroke="#CBD4DC" stroke-width="2.26545"/>
<path d="M176.705 355.676V561.832C176.705 571.842 184.82 579.956 194.829 579.956H206.156" stroke="#CBD4DC" stroke-width="2.26545"/>
<path d="M197.094 573.16L205.023 581.089L197.094 589.018" stroke="#CBD4DC" stroke-width="2.26545"/>
</svg>
