<svg width="131" height="38" viewBox="0 0 131 38" fill="none" xmlns="http://www.w3.org/2000/svg">
<g clip-path="url(#clip0_1177_2315)" filter="url(#filter0_d_1177_2315)">
<path d="M124.799 25.9057C124.262 25.9108 123.75 26.1282 123.373 26.5102C122.997 26.8923 122.787 27.4078 122.789 27.9442C122.792 28.4806 123.007 28.9942 123.387 29.3726C123.767 29.751 124.282 29.9634 124.818 29.9634C125.355 29.9634 125.869 29.751 126.249 29.3726C126.63 28.9942 126.844 28.4806 126.847 27.9442C126.85 27.4078 126.64 26.8923 126.263 26.5102C125.887 26.1282 125.374 25.9108 124.838 25.9057H124.799ZM124.799 29.7311C124.447 29.737 124.101 29.6384 123.805 29.4478C123.51 29.2572 123.277 28.9832 123.137 28.6604C122.997 28.3376 122.956 27.9805 123.019 27.6343C123.081 27.2881 123.246 26.9683 123.49 26.7154C123.735 26.4625 124.049 26.2878 124.393 26.2134C124.737 26.139 125.095 26.1683 125.422 26.2975C125.75 26.4267 126.031 26.6501 126.232 26.9394C126.432 27.2286 126.542 27.5708 126.548 27.9226V27.9525C126.558 28.414 126.384 28.8606 126.065 29.1939C125.745 29.5273 125.307 29.7202 124.845 29.7302H124.799L124.799 29.7311ZM117.01 25.3514H112.602V18.4472C112.602 16.8009 112.572 14.6815 110.309 14.6815C108.013 14.6815 107.661 16.4753 107.661 18.3274V25.3509H103.253V11.1532H107.485V13.0935H107.544C107.968 12.3693 108.58 11.7735 109.315 11.3697C110.051 10.9658 110.882 10.7689 111.72 10.8001C116.188 10.8001 117.012 13.7392 117.012 17.5628L117.01 25.3514ZM98.2782 9.21248C97.7722 9.21257 97.2776 9.06261 96.8568 8.78157C96.436 8.50052 96.108 8.10101 95.9143 7.63356C95.7206 7.16611 95.6698 6.65171 95.7685 6.15541C95.8671 5.65911 96.1107 5.20321 96.4684 4.84534C96.8261 4.48748 97.2819 4.24374 97.7782 4.14493C98.2745 4.04612 98.7889 4.0967 99.2564 4.29025C99.7239 4.48381 100.124 4.81165 100.405 5.23233C100.686 5.653 100.836 6.14762 100.836 6.65362C100.836 6.9896 100.77 7.32229 100.642 7.63271C100.513 7.94314 100.325 8.22521 100.087 8.46282C99.8496 8.70043 99.5676 8.88893 99.2573 9.01756C98.9469 9.14619 98.6142 9.21242 98.2782 9.21248V9.21248ZM100.483 25.3514H96.0693V11.1532H100.483V25.3514ZM119.208 0.00159915H93.854C93.2785 -0.00489506 92.724 0.217345 92.3123 0.619485C91.9006 1.02162 91.6654 1.57076 91.6584 2.14623V27.6058C91.6651 28.1815 91.9002 28.731 92.3119 29.1336C92.7236 29.5361 93.2782 29.7588 93.854 29.7527H119.208C119.785 29.7599 120.341 29.5379 120.755 29.1353C121.168 28.7328 121.405 28.1827 121.413 27.6058V2.14439C121.404 1.56778 121.168 1.01802 120.754 0.615893C120.341 0.213763 119.785 -0.00784255 119.208 -0.00023779V0.00159915ZM79.659 14.58C77.4547 14.58 76.1321 16.0519 76.1321 18.1965C76.1321 20.3411 77.4542 21.8144 79.659 21.8144C81.8638 21.8144 83.1891 20.3448 83.1891 18.1965C83.1891 16.0482 81.8661 14.58 79.659 14.58V14.58ZM87.2479 25.3431H83.1891V23.4603H83.129C82.6198 24.1451 81.9594 24.7032 81.1991 25.0909C80.4389 25.4787 79.5994 25.6857 78.746 25.6958C74.5101 25.6958 71.7198 22.6387 71.7198 18.3154C71.7198 14.3449 74.1891 10.699 78.2482 10.699C80.0728 10.699 81.777 11.1982 82.7768 12.5819H82.8346V4.39786H87.2474L87.2479 25.3431ZM66.0592 16.5956C66.0676 16.2379 66.0034 15.8823 65.8703 15.5502C65.7373 15.2181 65.5382 14.9164 65.2851 14.6635C65.032 14.4106 64.7303 14.2117 64.3981 14.0789C64.0659 13.9461 63.7102 13.882 63.3525 13.8907C62.5822 13.8428 61.8239 14.0995 61.2411 14.6055C60.6583 15.1115 60.2977 15.8262 60.237 16.5956H66.0592ZM69.7937 22.8871C69.0611 23.7755 68.1401 24.4899 67.0974 24.9784C66.0547 25.467 64.9164 25.7175 63.7649 25.7119C59.3562 25.7119 55.8265 22.7691 55.8265 18.2121C55.8265 13.6551 59.3558 10.7137 63.7649 10.7137C67.8856 10.7137 70.4697 13.6528 70.4697 18.2121V19.5944H60.237C60.3644 20.3784 60.7709 21.0898 61.3814 21.5978C61.992 22.1057 62.7656 22.3759 63.5596 22.3585C64.1871 22.3547 64.8037 22.1939 65.3532 21.8909C65.9027 21.5878 66.3677 21.1522 66.7058 20.6236L69.7937 22.8871ZM25.9671 11.1495H30.2007V13.0898H30.2609C30.6838 12.3653 31.2955 11.7693 32.0307 11.3653C32.7659 10.9614 33.5971 10.7648 34.4354 10.7964C38.906 10.7964 39.729 13.7378 39.729 17.5591V25.345H35.3203V18.4422C35.3203 16.7945 35.29 14.6765 33.0241 14.6765C30.7325 14.6765 30.3789 16.4707 30.3789 18.3223V25.3431H25.9703L25.9671 11.1495ZM41.9645 4.39924H46.3732V16.9203L51.3697 11.1417H56.7749L50.9885 17.7148L56.6532 25.3518H51.112L46.432 18.3338H46.3741V25.3509H41.9654L41.9645 4.39924ZM19.1139 11.1482H23.5226V25.3459H19.1139V11.1482ZM21.3182 4.08971C21.824 4.0898 22.3184 4.23987 22.739 4.52095C23.1595 4.80202 23.4872 5.20148 23.6807 5.66881C23.8742 6.13613 23.9248 6.65034 23.826 7.14641C23.7273 7.64249 23.4837 8.09814 23.126 8.45577C22.7683 8.81339 22.3126 9.05692 21.8165 9.15557C21.3204 9.25421 20.8062 9.20354 20.3389 9.00995C19.8717 8.81637 19.4723 8.48857 19.1913 8.068C18.9103 7.64744 18.7603 7.153 18.7603 6.64719C18.7603 6.3113 18.8264 5.9787 18.955 5.66838C19.0836 5.35806 19.272 5.07611 19.5095 4.83862C19.747 4.60113 20.029 4.41275 20.3394 4.28426C20.6497 4.15576 20.9823 4.08965 21.3182 4.08971V4.08971ZM4 4.40245H8.58914V21.1186H17.085V25.3537H4V4.40245ZM125.121 28.0632C125.196 28.0639 125.271 28.0492 125.34 28.0198C125.41 27.9904 125.473 27.9471 125.525 27.8924C125.577 27.8378 125.617 27.773 125.643 27.7021C125.669 27.6312 125.681 27.5558 125.676 27.4804C125.676 27.0671 125.427 26.8696 124.915 26.8696H124.089V29.0335H124.4V28.0903H124.782L124.79 28.1017L125.383 29.0335H125.716L125.078 28.0691L125.121 28.0632ZM124.761 27.8464H124.4V27.1148H124.857C125.093 27.1148 125.363 27.1534 125.363 27.4625C125.363 27.8179 125.09 27.8464 124.759 27.8464" fill="white" fill-opacity="0.5"/>
</g>
<defs>
<filter id="filter0_d_1177_2315" x="0" y="0" width="130.847" height="38" filterUnits="userSpaceOnUse" color-interpolation-filters="sRGB">
<feFlood flood-opacity="0" result="BackgroundImageFix"/>
<feColorMatrix in="SourceAlpha" type="matrix" values="0 0 0 0 0 0 0 0 0 0 0 0 0 0 0 0 0 0 127 0" result="hardAlpha"/>
<feOffset dy="4"/>
<feGaussianBlur stdDeviation="2"/>
<feComposite in2="hardAlpha" operator="out"/>
<feColorMatrix type="matrix" values="0 0 0 0 0 0 0 0 0 0 0 0 0 0 0 0 0 0 0.25 0"/>
<feBlend mode="normal" in2="BackgroundImageFix" result="effect1_dropShadow_1177_2315"/>
<feBlend mode="normal" in="SourceGraphic" in2="effect1_dropShadow_1177_2315" result="shape"/>
</filter>
<clipPath id="clip0_1177_2315">
<rect width="122.847" height="30" fill="white" transform="translate(4)"/>
</clipPath>
</defs>
</svg>
