<svg width="150" height="150" viewBox="0 0 150 150" fill="none" xmlns="http://www.w3.org/2000/svg">
<circle cx="75" cy="75" r="75" fill="#FFDAFF"/>
<path d="M41.5151 80.748C40.8683 80.748 40.3433 80.23 40.3433 79.5918V42.5918C40.3433 40.6794 41.9206 39.123 43.8589 39.123H107.14C109.078 39.123 110.656 40.6794 110.656 42.5918V46.0605C110.656 46.6988 110.131 47.2168 109.484 47.2168C108.837 47.2168 108.312 46.6988 108.312 46.0605V42.5918C108.312 41.9559 107.785 41.4355 107.14 41.4355H43.8589C43.2144 41.4355 42.687 41.9559 42.687 42.5918V79.5918C42.687 80.23 42.162 80.748 41.5151 80.748Z" fill="#643297"/>
<path d="M75.4995 106.186H62.6089C61.962 106.186 61.437 105.668 61.437 105.029C61.437 104.391 61.962 103.873 62.6089 103.873H64.9526C66.8909 103.873 68.4683 102.317 68.4683 100.404V94.623C68.4683 93.9848 68.9933 93.4668 69.6401 93.4668C70.287 93.4668 70.812 93.9848 70.812 94.623V100.404C70.812 101.706 70.3737 102.906 69.6378 103.873H75.4995C76.1464 103.873 76.6714 104.391 76.6714 105.029C76.6714 105.668 76.1464 106.186 75.4995 106.186Z" fill="#643297"/>
<path d="M74.3276 94.623H43.8589C41.9206 94.623 40.3433 93.0667 40.3433 91.1543V84.2168C40.3433 83.5785 40.8683 83.0605 41.5151 83.0605H74.3276C74.9745 83.0605 75.4995 83.5785 75.4995 84.2168C75.4995 84.855 74.9745 85.373 74.3276 85.373H42.687V91.1543C42.687 91.7902 43.2144 92.3105 43.8589 92.3105H74.3276C74.9745 92.3105 75.4995 92.8285 75.4995 93.4668C75.4995 94.105 74.9745 94.623 74.3276 94.623Z" fill="#643297"/>
<path d="M88.3906 55.3105H100.109C100.756 55.3105 101.281 54.7925 101.281 54.1543C101.281 53.516 100.756 52.998 100.109 52.998H88.3906C87.7438 52.998 87.2188 53.516 87.2188 54.1543C87.2188 54.7925 87.7438 55.3105 88.3906 55.3105Z" fill="#643297"/>
<path d="M93.0781 101.559H95.4219C96.0687 101.559 96.5938 101.041 96.5938 100.402C96.5938 99.7641 96.0687 99.2461 95.4219 99.2461H93.0781C92.4313 99.2461 91.9062 99.7641 91.9062 100.402C91.9062 101.041 92.4313 101.559 93.0781 101.559Z" fill="#643297"/>
<path d="M104.796 106.186H83.7026C80.4706 106.186 77.8433 103.593 77.8433 100.404V54.1543C77.8433 50.9654 80.4706 48.373 83.7026 48.373H104.796C108.028 48.373 110.656 50.9654 110.656 54.1543V100.404C110.656 103.593 108.028 106.186 104.796 106.186ZM83.7026 50.6855C81.7644 50.6855 80.187 52.2419 80.187 54.1543V100.404C80.187 102.317 81.7644 103.873 83.7026 103.873H104.796C106.735 103.873 108.312 102.317 108.312 100.404V54.1543C108.312 52.2419 106.735 50.6855 104.796 50.6855H83.7026Z" fill="#643297"/>
</svg>
