<svg width="150" height="150" viewBox="0 0 150 150" fill="none" xmlns="http://www.w3.org/2000/svg">
<circle cx="75" cy="75" r="75" fill="#FFDAFF"/>
<path d="M64.458 55.8253H71.3288C71.7576 55.8253 72.1688 55.6549 72.472 55.3517C72.7751 55.0486 72.9455 54.6374 72.9455 54.2086C72.9455 53.7798 72.7751 53.3686 72.472 53.0654C72.1688 52.7622 71.7576 52.5919 71.3288 52.5919H64.458C64.0292 52.5919 63.618 52.7622 63.3148 53.0654C63.0116 53.3686 62.8413 53.7798 62.8413 54.2086C62.8413 54.6374 63.0116 55.0486 63.3148 55.3517C63.618 55.6549 64.0292 55.8253 64.458 55.8253Z" fill="#643297"/>
<path d="M89.1128 93.817H84.5215C84.0927 93.817 83.6815 93.9873 83.3783 94.2905C83.0751 94.5937 82.9048 95.0049 82.9048 95.4337C82.9048 95.8624 83.0751 96.2737 83.3783 96.5768C83.6815 96.88 84.0927 97.0503 84.5215 97.0503H89.1128C89.5415 97.0503 89.9528 96.88 90.2559 96.5768C90.5591 96.2737 90.7294 95.8624 90.7294 95.4337C90.7294 95.0049 90.5591 94.5937 90.2559 94.2905C89.9528 93.9873 89.5415 93.817 89.1128 93.817Z" fill="#643297"/>
<path d="M77.1973 93.817H64.458C64.0292 93.817 63.618 93.9873 63.3148 94.2905C63.0116 94.5937 62.8413 95.0049 62.8413 95.4337C62.8413 95.8624 63.0116 96.2737 63.3148 96.5768C63.618 96.88 64.0292 97.0503 64.458 97.0503H77.1973C77.6261 97.0503 78.0373 96.88 78.3405 96.5768C78.6436 96.2737 78.814 95.8624 78.814 95.4337C78.814 95.0049 78.6436 94.5937 78.3405 94.2905C78.0373 93.9873 77.6261 93.817 77.1973 93.817Z" fill="#643297"/>
<path d="M109.159 94.6429L105.134 90.6336V47.2261C105.134 46.4214 104.975 45.6247 104.667 44.8813C104.359 44.1379 103.908 43.4625 103.339 42.8935C102.77 42.3245 102.095 41.8732 101.351 41.5653C100.608 41.2574 99.8112 41.0989 99.0065 41.0989H59.6084V37.2351C59.6084 36.8063 59.438 36.3951 59.1349 36.0919C58.8317 35.7887 58.4205 35.6184 57.9917 35.6184H52.1555C50.5382 35.5833 48.9719 36.186 47.7952 37.2962C46.6185 38.4063 45.9258 39.9349 45.8667 41.5516V103.793C45.8667 105.418 46.5122 106.977 47.6613 108.126C48.8104 109.275 50.3688 109.92 51.9939 109.92H99.0065C100.632 109.92 102.19 109.275 103.339 108.126C104.488 106.977 105.134 105.418 105.134 103.793V102.807C106.133 102.928 107.146 102.734 108.03 102.253C108.915 101.772 109.628 101.028 110.071 100.123C110.513 99.2186 110.663 98.1988 110.5 97.2052C110.336 96.2116 109.868 95.2935 109.159 94.5782V94.6429ZM49.1 41.5516C49.1419 40.781 49.4864 40.0581 50.0587 39.5403C50.631 39.0225 51.3846 38.7518 52.1555 38.7871H56.375V97.7954H52.1555C51.09 97.7931 50.0404 98.0541 49.1 98.5552V41.5516ZM99.0065 106.752H51.9939C51.6223 106.741 51.2565 106.657 50.9173 106.505C50.5782 106.353 50.2722 106.136 50.017 105.866C49.7618 105.596 49.5623 105.278 49.43 104.931C49.2976 104.583 49.2349 104.213 49.2455 103.842C49.2561 103.47 49.3398 103.104 49.4918 102.765C49.6438 102.426 49.8611 102.12 50.1313 101.865C50.4016 101.61 50.7194 101.41 51.0667 101.278C51.414 101.145 51.784 101.083 52.1555 101.093H57.9917C58.4205 101.093 58.8317 100.923 59.1349 100.62C59.438 100.317 59.6084 99.9055 59.6084 99.4767V44.3322H99.0065C99.3866 44.3322 99.7629 44.4071 100.114 44.5525C100.465 44.6979 100.784 44.9111 101.053 45.1798C101.321 45.4485 101.535 45.7675 101.68 46.1186C101.826 46.4697 101.9 46.846 101.9 47.2261V87.4002L100.009 85.5087C99.8586 85.3572 99.6798 85.2369 99.4828 85.1549C99.2858 85.0728 99.0745 85.0305 98.861 85.0305C98.6476 85.0305 98.4363 85.0728 98.2393 85.1549C98.0423 85.2369 97.8635 85.3572 97.7132 85.5087L96.5815 86.6404L94.011 84.0699C95.6003 82.2452 96.8004 80.1154 97.538 77.8108C98.2755 75.5063 98.535 73.0754 98.3006 70.6671C98.0661 68.2587 97.3426 65.9236 96.1744 63.8045C95.0062 61.6855 93.4178 59.8272 91.5065 58.3433C89.5952 56.8594 87.4011 55.7812 85.0587 55.1746C82.7162 54.5681 80.2746 54.4459 77.8833 54.8157C75.492 55.1855 73.2013 56.0394 71.1514 57.3252C69.1016 58.6109 67.3357 60.3015 65.9619 62.2934H64.4584C64.0296 62.2934 63.6184 62.4637 63.3152 62.7669C63.012 63.0701 62.8417 63.4813 62.8417 63.9101C62.8333 64.286 62.9563 64.6531 63.1894 64.9482C63.4225 65.2433 63.7512 65.4478 64.1189 65.5267C62.7531 68.5672 62.2742 71.9318 62.7376 75.2326C63.201 78.5334 64.5877 81.6361 66.7379 84.1831H64.4584C64.0296 84.1831 63.6184 84.3534 63.3152 84.6566C63.012 84.9598 62.8417 85.371 62.8417 85.7997C62.8417 86.2285 63.012 86.6397 63.3152 86.9429C63.6184 87.2461 64.0296 87.4164 64.4584 87.4164H70.2945C73.4883 89.5846 77.3009 90.6548 81.1564 90.4652C85.012 90.2756 88.7012 88.8366 91.6669 86.3656L94.2374 88.9361L93.1057 90.0839C92.8046 90.3868 92.6356 90.7965 92.6356 91.2236C92.6356 91.6507 92.8046 92.0605 93.1057 92.3634L101.852 101.126V103.858C101.852 104.617 101.554 105.346 101.021 105.887C100.489 106.429 99.7656 106.739 99.0065 106.752ZM65.8002 72.7047C65.8002 69.827 66.6535 67.0139 68.2523 64.6212C69.8511 62.2284 72.1235 60.3635 74.7822 59.2623C77.4408 58.161 80.3663 57.8729 83.1888 58.4343C86.0112 58.9957 88.6037 60.3815 90.6386 62.4163C92.6735 64.4512 94.0592 67.0437 94.6206 69.8662C95.182 72.6886 94.8939 75.6141 93.7926 78.2728C92.6914 80.9314 90.8265 83.2038 88.4338 84.8026C86.041 86.4014 83.2279 87.2547 80.3502 87.2547C76.4913 87.2547 72.7905 85.7218 70.0618 82.9931C67.3331 80.2645 65.8002 76.5636 65.8002 72.7047ZM106.864 99.2181C106.561 99.5192 106.151 99.6882 105.724 99.6882C105.297 99.6882 104.887 99.5192 104.584 99.2181L96.5007 91.1347L98.7802 88.8552L106.783 96.8577C106.95 97.0033 107.085 97.1817 107.18 97.3817C107.275 97.5817 107.328 97.799 107.335 98.0204C107.343 98.2417 107.305 98.4622 107.224 98.6682C107.143 98.8742 107.02 99.0614 106.864 99.2181Z" fill="#643297"/>
<path d="M85.2001 79.6697C85.2001 79.241 85.0298 78.8297 84.7266 78.5266C84.4234 78.2234 84.0122 78.0531 83.5835 78.0531H81.9668V68.4662H84.6666V69.0321C84.6666 69.4608 84.837 69.872 85.1401 70.1752C85.4433 70.4784 85.8545 70.6487 86.2833 70.6487C86.7121 70.6487 87.1233 70.4784 87.4264 70.1752C87.7296 69.872 87.9 69.4608 87.9 69.0321V66.9304C87.9 66.5016 87.7296 66.0904 87.4264 65.7872C87.1233 65.484 86.7121 65.3137 86.2833 65.3137H74.417C73.9882 65.3137 73.577 65.484 73.2738 65.7872C72.9706 66.0904 72.8003 66.5016 72.8003 66.9304V69.0321C72.8003 69.4608 72.9706 69.872 73.2738 70.1752C73.577 70.4784 73.9882 70.6487 74.417 70.6487C74.8457 70.6487 75.2569 70.4784 75.5601 70.1752C75.8633 69.872 76.0336 69.4608 76.0336 69.0321V68.5471H78.7335V78.1339H77.1976C76.9853 78.1339 76.7751 78.1757 76.579 78.2569C76.3828 78.3382 76.2046 78.4573 76.0545 78.6074C75.9043 78.7575 75.7853 78.9357 75.704 79.1319C75.6228 79.328 75.581 79.5382 75.581 79.7506C75.581 79.9629 75.6228 80.1731 75.704 80.3692C75.7853 80.5654 75.9043 80.7436 76.0545 80.8937C76.2046 81.0438 76.3828 81.1629 76.579 81.2442C76.7751 81.3254 76.9853 81.3672 77.1976 81.3672H83.5835C83.8027 81.3675 84.0198 81.3232 84.2214 81.2369C84.423 81.1507 84.6049 81.0243 84.7562 80.8655C84.9074 80.7067 85.0247 80.5188 85.1011 80.3132C85.1774 80.1077 85.2111 79.8887 85.2001 79.6697Z" fill="#643297"/>
</svg>
