<svg width="151" height="150" viewBox="0 0 151 150" fill="none" xmlns="http://www.w3.org/2000/svg">
<circle cx="75.5" cy="75" r="75" fill="#FFDAFF"/>
<path fill-rule="evenodd" clip-rule="evenodd" d="M71.0237 109.547H79.9761C81.2115 109.547 82.2142 108.544 82.2142 107.308C82.2142 106.073 81.2115 105.07 79.9761 105.07H71.0237C69.7883 105.07 68.7856 106.073 68.7856 107.308C68.7856 108.544 69.7883 109.547 71.0237 109.547Z" fill="#643297"/>
<path fill-rule="evenodd" clip-rule="evenodd" d="M68.7859 102.832H82.2145C83.4499 102.832 84.4526 101.829 84.4526 100.594C84.4526 99.3581 83.4499 98.3555 82.2145 98.3555H68.7859C67.5505 98.3555 66.5479 99.3581 66.5479 100.594C66.5479 101.829 67.5505 102.832 68.7859 102.832Z" fill="#643297"/>
<path fill-rule="evenodd" clip-rule="evenodd" d="M68.69 96.1082L68.7862 96.1172H82.2148H82.3133C83.5487 96.1127 84.5469 95.1123 84.5469 93.8791C84.5469 90.278 86.1337 86.8627 88.8843 84.5418C93.3717 80.8892 95.3345 75.2872 95.3345 68.9512C95.3345 58.0047 86.447 49.1172 75.5005 49.1172C64.554 49.1172 55.6665 58.0047 55.6665 68.9512C55.6665 75.3074 57.645 80.9228 62.1995 84.488C64.9479 86.809 66.5481 90.2489 66.5481 93.8769C66.5481 95.7166 68.2625 96.0523 68.69 96.1082ZM80.2229 91.641H70.8744C70.3216 87.5229 68.2536 83.7271 65.0307 81.0212C65.0106 81.0056 64.9904 80.9877 64.9703 80.972C61.4632 78.2348 60.1427 73.8369 60.1427 68.9512C60.1427 60.4755 67.0248 53.5934 75.5005 53.5934C83.9762 53.5934 90.8583 60.4755 90.8583 68.9512C90.8583 73.8504 89.5244 78.2594 86.0598 81.0682C86.0509 81.0749 86.0397 81.0839 86.0307 81.0929C82.8303 83.7808 80.7735 87.552 80.2229 91.641Z" fill="#643297"/>
<path fill-rule="evenodd" clip-rule="evenodd" d="M73.2644 80.4521H73.2621V84.9283C73.2621 86.1637 74.2648 87.1664 75.5002 87.1664C76.7357 87.1664 77.7383 86.1637 77.7383 84.9283V80.5618C77.7406 80.526 77.7406 80.4879 77.7406 80.4521C77.7406 79.5524 78.2755 78.7377 79.0991 78.3774C82.0265 77.1218 84.4101 75.0672 84.4526 71.2446C84.5063 66.2961 80.4487 62.2676 75.5002 62.2676C70.5585 62.2676 66.5479 66.2782 66.5479 71.22C66.5479 72.4554 67.5505 73.4581 68.7859 73.4581C70.0214 73.4581 71.024 72.4554 71.024 71.22C71.024 68.7491 73.0294 66.7438 75.5002 66.7438C77.9644 66.7438 80.0033 68.7312 79.9764 71.1953C79.9585 72.9366 78.6582 73.6975 77.3243 74.2682C77.3198 74.2705 77.3153 74.2727 77.3109 74.275C74.8534 75.3448 73.2644 77.7709 73.2644 80.4521Z" fill="#643297"/>
<path fill-rule="evenodd" clip-rule="evenodd" d="M77.7379 44.642V40.1658C77.7379 38.9304 76.7352 37.9277 75.4998 37.9277C74.2644 37.9277 73.2617 38.9304 73.2617 40.1658V44.642C73.2617 45.8774 74.2644 46.8801 75.4998 46.8801C76.7352 46.8801 77.7379 45.8774 77.7379 44.642Z" fill="#643297"/>
<path fill-rule="evenodd" clip-rule="evenodd" d="M96.8645 54.4159L100.029 51.2512C100.902 50.3761 100.902 48.9594 100.029 48.0843C99.1563 47.2115 97.7374 47.2115 96.8645 48.0843L93.6976 51.2512C92.8248 52.1241 92.8248 53.543 93.6976 54.4159C94.5727 55.2888 95.9894 55.2888 96.8645 54.4159Z" fill="#643297"/>
<path fill-rule="evenodd" clip-rule="evenodd" d="M103.476 74.8512H107.953C109.188 74.8512 110.191 73.8485 110.191 72.6131C110.191 71.3777 109.188 70.375 107.953 70.375H103.476C102.241 70.375 101.238 71.3777 101.238 72.6131C101.238 73.8485 102.241 74.8512 103.476 74.8512Z" fill="#643297"/>
<path fill-rule="evenodd" clip-rule="evenodd" d="M93.702 93.9811L96.8667 97.1458C97.7418 98.0187 99.1585 98.0187 100.031 97.1458C100.906 96.273 100.906 94.854 100.031 93.9811L96.8667 90.8165C95.9938 89.9414 94.5749 89.9414 93.702 90.8165C92.8291 91.6893 92.8291 93.1083 93.702 93.9811Z" fill="#643297"/>
<path fill-rule="evenodd" clip-rule="evenodd" d="M54.1396 90.8206L50.975 93.9853C50.1021 94.8604 50.1021 96.2771 50.975 97.15C51.8478 98.0251 53.2668 98.0251 54.1396 97.15L57.3043 93.9853C58.1794 93.1102 58.1771 91.6935 57.3043 90.8206C56.4314 89.9455 55.0125 89.9455 54.1396 90.8206Z" fill="#643297"/>
<path fill-rule="evenodd" clip-rule="evenodd" d="M47.5239 70.3887L43.0477 70.3909C41.8122 70.3909 40.8096 71.3936 40.8096 72.629C40.8096 73.8644 41.8122 74.8671 43.0477 74.8671L47.5239 74.8649C48.7593 74.8649 49.762 73.8622 49.762 72.6268C49.762 71.3913 48.7593 70.3887 47.5239 70.3887Z" fill="#643297"/>
<path fill-rule="evenodd" clip-rule="evenodd" d="M57.2929 51.2588L54.1283 48.0941C53.2532 47.2212 51.8364 47.2212 50.9636 48.0941C50.0885 48.967 50.0907 50.3859 50.9636 51.2588L54.1305 54.4234C55.0033 55.2963 56.4223 55.2963 57.2952 54.4234C58.168 53.5483 58.168 52.1316 57.2929 51.2588Z" fill="#643297"/>
</svg>
