<svg width="930" height="935" viewBox="0 0 930 935" fill="none" xmlns="http://www.w3.org/2000/svg">
<path fill-rule="evenodd" clip-rule="evenodd" d="M1.50205 386.427C-7.45778 238.662 27.8594 78.4907 125.98 -22.6976C173.139 -71.3308 235.56 -83.6525 301.648 -89.4417C362.698 -94.7894 426.879 -94.5624 485.047 -112.236C582.434 -141.826 663.078 -222.32 764.632 -216.744C877.14 -210.566 950.576 -145.108 1032.85 -60.4591C1007.44 79.5645 1077.76 146.511 1068.21 273.5C1058.95 396.581 1075.2 432.897 1024.2 542.617C968.388 662.667 1026.36 855.527 917.079 919.27C810.027 981.714 693.778 826.753 572.482 806.105C515.614 796.424 456.024 807.489 397.626 817.168C318.048 830.358 240.684 840.976 175.442 793.022C58.2477 706.883 10.7156 538.376 1.50205 386.427Z" fill="#3F0071"/>
</svg>
